<?xml version="1.0" encoding="UTF-8"?><svg xmlns:svg="http://www.w3.org/2000/svg" xmlns="http://www.w3.org/2000/svg" xmlns:xlink="http://www.w3.org/1999/xlink" version="1.0" width="651" height="182" viewBox="0 0 651 182" ><rect x="20" y="1" height="30" width="70" fill="#cfe2f3" /><line x1="20" y1="1" x2="90" y2="1" stroke="#000000" stroke-width="1" /><line x1="20" y1="31" x2="90" y2="31" stroke="#000000" stroke-width="1" /><line x1="90" y1="1" x2="90" y2="31" stroke="#000000" stroke-width="1" /><line x1="20" y1="1" x2="20" y2="31" stroke="#000000" stroke-width="1" /><text font-size="18" font-family="Arial" x="55" y="17" text-anchor="middle" dominant-baseline="middle" >Bit</text><rect x="90" y="1" height="30" width="70" fill="#cfe2f3" /><line x1="90" y1="1" x2="160" y2="1" stroke="#000000" stroke-width="1" /><line x1="90" y1="31" x2="160" y2="31" stroke="#000000" stroke-width="1" /><line x1="160" y1="1" x2="160" y2="31" stroke="#000000" stroke-width="1" /><line x1="90" y1="1" x2="90" y2="31" stroke="#000000" stroke-width="1" /><text font-size="18" font-family="Arial" x="125" y="17" text-anchor="middle" dominant-baseline="middle" >7</text><rect x="160" y="1" height="30" width="70" fill="#cfe2f3" /><line x1="160" y1="1" x2="230" y2="1" stroke="#000000" stroke-width="1" /><line x1="160" y1="31" x2="230" y2="31" stroke="#000000" stroke-width="1" /><line x1="230" y1="1" x2="230" y2="31" stroke="#000000" stroke-width="1" /><line x1="160" y1="1" x2="160" y2="31" stroke="#000000" stroke-width="1" /><text font-size="18" font-family="Arial" x="195" y="17" text-anchor="middle" dominant-baseline="middle" >6</text><rect x="230" y="1" height="30" width="70" fill="#cfe2f3" /><line x1="230" y1="1" x2="300" y2="1" stroke="#000000" stroke-width="1" /><line x1="230" y1="31" x2="300" y2="31" stroke="#000000" stroke-width="1" /><line x1="300" y1="1" x2="300" y2="31" stroke="#000000" stroke-width="1" /><line x1="230" y1="1" x2="230" y2="31" stroke="#000000" stroke-width="1" /><text font-size="18" font-family="Arial" x="265" y="17" text-anchor="middle" dominant-baseline="middle" >5</text><rect x="300" y="1" height="30" width="70" fill="#cfe2f3" /><line x1="300" y1="1" x2="370" y2="1" stroke="#000000" stroke-width="1" /><line x1="300" y1="31" x2="370" y2="31" stroke="#000000" stroke-width="1" /><line x1="370" y1="1" x2="370" y2="31" stroke="#000000" stroke-width="1" /><line x1="300" y1="1" x2="300" y2="31" stroke="#000000" stroke-width="1" /><text font-size="18" font-family="Arial" x="335" y="17" text-anchor="middle" dominant-baseline="middle" >4</text><rect x="370" y="1" height="30" width="70" fill="#cfe2f3" /><line x1="370" y1="1" x2="440" y2="1" stroke="#000000" stroke-width="1" /><line x1="370" y1="31" x2="440" y2="31" stroke="#000000" stroke-width="1" /><line x1="440" y1="1" x2="440" y2="31" stroke="#000000" stroke-width="1" /><line x1="370" y1="1" x2="370" y2="31" stroke="#000000" stroke-width="1" /><text font-size="18" font-family="Arial" x="405" y="17" text-anchor="middle" dominant-baseline="middle" >3</text><rect x="440" y="1" height="30" width="70" fill="#cfe2f3" /><line x1="440" y1="1" x2="510" y2="1" stroke="#000000" stroke-width="1" /><line x1="440" y1="31" x2="510" y2="31" stroke="#000000" stroke-width="1" /><line x1="510" y1="1" x2="510" y2="31" stroke="#000000" stroke-width="1" /><line x1="440" y1="1" x2="440" y2="31" stroke="#000000" stroke-width="1" /><text font-size="18" font-family="Arial" x="475" y="17" text-anchor="middle" dominant-baseline="middle" >2</text><rect x="510" y="1" height="30" width="70" fill="#cfe2f3" /><line x1="510" y1="1" x2="580" y2="1" stroke="#000000" stroke-width="1" /><line x1="510" y1="31" x2="580" y2="31" stroke="#000000" stroke-width="1" /><line x1="580" y1="1" x2="580" y2="31" stroke="#000000" stroke-width="1" /><line x1="510" y1="1" x2="510" y2="31" stroke="#000000" stroke-width="1" /><text font-size="18" font-family="Arial" x="545" y="17" text-anchor="middle" dominant-baseline="middle" >1</text><rect x="580" y="1" height="30" width="70" fill="#cfe2f3" /><line x1="580" y1="1" x2="650" y2="1" stroke="#000000" stroke-width="1" /><line x1="580" y1="31" x2="650" y2="31" stroke="#000000" stroke-width="1" /><line x1="650" y1="1" x2="650" y2="31" stroke="#000000" stroke-width="1" /><line x1="580" y1="1" x2="580" y2="31" stroke="#000000" stroke-width="1" /><text font-size="18" font-family="Arial" x="615" y="17" text-anchor="middle" dominant-baseline="middle" >0</text><text font-size="18" font-family="Arial" x="15" y="16" text-anchor="end" > </text><text font-size="18" font-family="Arial" x="15" y="46" text-anchor="end" > </text><line x1="20" y1="31" x2="90" y2="31" stroke="#000000" stroke-width="1" /><line x1="20" y1="61" x2="90" y2="61" stroke="#000000" stroke-width="1" /><line x1="90" y1="31" x2="90" y2="61" stroke="#000000" stroke-width="1" /><line x1="20" y1="31" x2="20" y2="61" stroke="#000000" stroke-width="1" /><text font-size="18" font-family="Arial" x="24" y="47" text-anchor="start" dominant-baseline="middle" >Byte 1</text><line x1="90" y1="31" x2="650" y2="31" stroke="#000000" stroke-width="1" /><line x1="90" y1="61" x2="650" y2="61" stroke="#000000" stroke-width="1" /><line x1="650" y1="31" x2="650" y2="61" stroke="#000000" stroke-width="1" /><line x1="90" y1="31" x2="90" y2="61" stroke="#000000" stroke-width="1" /><text font-size="18" font-family="Arial" x="370" y="47" text-anchor="middle" dominant-baseline="middle" >Length</text><text font-size="18" font-family="Arial" x="15" y="76" text-anchor="end" > </text><line x1="20" y1="61" x2="90" y2="61" stroke="#000000" stroke-width="1" /><line x1="20" y1="91" x2="90" y2="91" stroke="#000000" stroke-width="1" /><line x1="90" y1="61" x2="90" y2="91" stroke="#000000" stroke-width="1" /><line x1="20" y1="61" x2="20" y2="91" stroke="#000000" stroke-width="1" /><text font-size="18" font-family="Arial" x="24" y="77" text-anchor="start" dominant-baseline="middle" >Byte 2</text><line x1="90" y1="61" x2="650" y2="61" stroke="#000000" stroke-width="1" /><line x1="90" y1="91" x2="650" y2="91" stroke="#000000" stroke-width="1" /><line x1="650" y1="61" x2="650" y2="91" stroke="#000000" stroke-width="1" /><line x1="90" y1="61" x2="90" y2="91" stroke="#000000" stroke-width="1" /><text font-size="18" font-family="Arial" x="370" y="77" text-anchor="middle" dominant-baseline="middle" >Packet Type</text><text font-size="18" font-family="Arial" x="15" y="106" text-anchor="end" > </text><line x1="20" y1="91" x2="90" y2="91" stroke="#000000" stroke-width="1" /><line x1="20" y1="121" x2="90" y2="121" stroke="#000000" stroke-width="1" /><line x1="90" y1="91" x2="90" y2="121" stroke="#000000" stroke-width="1" /><line x1="20" y1="91" x2="20" y2="121" stroke="#000000" stroke-width="1" /><text font-size="18" font-family="Arial" x="24" y="107" text-anchor="start" dominant-baseline="middle" >Byte 3</text><line x1="90" y1="91" x2="650" y2="91" stroke="#000000" stroke-width="1" /><line x1="90" y1="121" x2="650" y2="121" stroke="#000000" stroke-width="1" /><line x1="650" y1="91" x2="650" y2="121" stroke="#000000" stroke-width="1" /><line x1="90" y1="91" x2="90" y2="121" stroke="#000000" stroke-width="1" /><text font-size="18" font-family="Arial" x="370" y="107" text-anchor="middle" dominant-baseline="middle" >GwId</text><text font-size="18" font-family="Arial" x="15" y="136" text-anchor="end" > </text><line x1="20" y1="121" x2="90" y2="121" stroke="#000000" stroke-width="1" /><line x1="20" y1="151" x2="90" y2="151" stroke="#000000" stroke-width="1" /><line x1="90" y1="121" x2="90" y2="151" stroke="#000000" stroke-width="1" /><line x1="20" y1="121" x2="20" y2="151" stroke="#000000" stroke-width="1" /><text font-size="18" font-family="Arial" x="24" y="137" text-anchor="start" dominant-baseline="middle" >Byte 4</text><line x1="90" y1="121" x2="650" y2="121" stroke="#000000" stroke-width="1" /><line x1="90" y1="151" x2="650" y2="151" stroke="#000000" stroke-width="1" /><line x1="650" y1="121" x2="650" y2="151" stroke="#000000" stroke-width="1" /><line x1="90" y1="121" x2="90" y2="151" stroke="#000000" stroke-width="1" /><text font-size="18" font-family="Arial" x="370" y="137" text-anchor="middle" dominant-baseline="middle" >Duration MSB</text><text font-size="18" font-family="Arial" x="15" y="166" text-anchor="end" > </text><line x1="20" y1="151" x2="90" y2="151" stroke="#000000" stroke-width="1" /><line x1="20" y1="181" x2="90" y2="181" stroke="#000000" stroke-width="1" /><line x1="90" y1="151" x2="90" y2="181" stroke="#000000" stroke-width="1" /><line x1="20" y1="151" x2="20" y2="181" stroke="#000000" stroke-width="1" /><text font-size="18" font-family="Arial" x="24" y="167" text-anchor="start" dominant-baseline="middle" >Byte 5</text><line x1="90" y1="151" x2="650" y2="151" stroke="#000000" stroke-width="1" /><line x1="90" y1="181" x2="650" y2="181" stroke="#000000" stroke-width="1" /><line x1="650" y1="151" x2="650" y2="181" stroke="#000000" stroke-width="1" /><line x1="90" y1="151" x2="90" y2="181" stroke="#000000" stroke-width="1" /><text font-size="18" font-family="Arial" x="370" y="167" text-anchor="middle" dominant-baseline="middle" >Duration LSB</text><line x1="20" y1="151" x2="650" y2="151" stroke="#000000" stroke-width="1" /></svg>