<?xml version="1.0" encoding="UTF-8"?><svg xmlns:svg="http://www.w3.org/2000/svg" xmlns="http://www.w3.org/2000/svg" xmlns:xlink="http://www.w3.org/1999/xlink" version="1.0" width="1326" height="602" viewBox="0 0 1326 602" ><rect x="20" y="1" height="30" width="145" fill="#cfe2f3" /><line x1="20" y1="1" x2="165" y2="1" stroke="#000000" stroke-width="1" /><line x1="20" y1="31" x2="165" y2="31" stroke="#000000" stroke-width="1" /><line x1="165" y1="1" x2="165" y2="31" stroke="#000000" stroke-width="1" /><line x1="20" y1="1" x2="20" y2="31" stroke="#000000" stroke-width="1" /><text font-size="18" font-family="Arial" x="92.5" y="17" text-anchor="middle" dominant-baseline="middle" >Bit</text><rect x="165" y="1" height="30" width="145" fill="#cfe2f3" /><line x1="165" y1="1" x2="310" y2="1" stroke="#000000" stroke-width="1" /><line x1="165" y1="31" x2="310" y2="31" stroke="#000000" stroke-width="1" /><line x1="310" y1="1" x2="310" y2="31" stroke="#000000" stroke-width="1" /><line x1="165" y1="1" x2="165" y2="31" stroke="#000000" stroke-width="1" /><text font-size="18" font-family="Arial" x="237.5" y="17" text-anchor="middle" dominant-baseline="middle" >7</text><rect x="310" y="1" height="30" width="145" fill="#cfe2f3" /><line x1="310" y1="1" x2="455" y2="1" stroke="#000000" stroke-width="1" /><line x1="310" y1="31" x2="455" y2="31" stroke="#000000" stroke-width="1" /><line x1="455" y1="1" x2="455" y2="31" stroke="#000000" stroke-width="1" /><line x1="310" y1="1" x2="310" y2="31" stroke="#000000" stroke-width="1" /><text font-size="18" font-family="Arial" x="382.5" y="17" text-anchor="middle" dominant-baseline="middle" >6</text><rect x="455" y="1" height="30" width="145" fill="#cfe2f3" /><line x1="455" y1="1" x2="600" y2="1" stroke="#000000" stroke-width="1" /><line x1="455" y1="31" x2="600" y2="31" stroke="#000000" stroke-width="1" /><line x1="600" y1="1" x2="600" y2="31" stroke="#000000" stroke-width="1" /><line x1="455" y1="1" x2="455" y2="31" stroke="#000000" stroke-width="1" /><text font-size="18" font-family="Arial" x="527.5" y="17" text-anchor="middle" dominant-baseline="middle" >5</text><rect x="600" y="1" height="30" width="145" fill="#cfe2f3" /><line x1="600" y1="1" x2="745" y2="1" stroke="#000000" stroke-width="1" /><line x1="600" y1="31" x2="745" y2="31" stroke="#000000" stroke-width="1" /><line x1="745" y1="1" x2="745" y2="31" stroke="#000000" stroke-width="1" /><line x1="600" y1="1" x2="600" y2="31" stroke="#000000" stroke-width="1" /><text font-size="18" font-family="Arial" x="672.5" y="17" text-anchor="middle" dominant-baseline="middle" >4</text><rect x="745" y="1" height="30" width="145" fill="#cfe2f3" /><line x1="745" y1="1" x2="890" y2="1" stroke="#000000" stroke-width="1" /><line x1="745" y1="31" x2="890" y2="31" stroke="#000000" stroke-width="1" /><line x1="890" y1="1" x2="890" y2="31" stroke="#000000" stroke-width="1" /><line x1="745" y1="1" x2="745" y2="31" stroke="#000000" stroke-width="1" /><text font-size="18" font-family="Arial" x="817.5" y="17" text-anchor="middle" dominant-baseline="middle" >3</text><rect x="890" y="1" height="30" width="145" fill="#cfe2f3" /><line x1="890" y1="1" x2="1035" y2="1" stroke="#000000" stroke-width="1" /><line x1="890" y1="31" x2="1035" y2="31" stroke="#000000" stroke-width="1" /><line x1="1035" y1="1" x2="1035" y2="31" stroke="#000000" stroke-width="1" /><line x1="890" y1="1" x2="890" y2="31" stroke="#000000" stroke-width="1" /><text font-size="18" font-family="Arial" x="962.5" y="17" text-anchor="middle" dominant-baseline="middle" >2</text><rect x="1035" y="1" height="30" width="145" fill="#cfe2f3" /><line x1="1035" y1="1" x2="1180" y2="1" stroke="#000000" stroke-width="1" /><line x1="1035" y1="31" x2="1180" y2="31" stroke="#000000" stroke-width="1" /><line x1="1180" y1="1" x2="1180" y2="31" stroke="#000000" stroke-width="1" /><line x1="1035" y1="1" x2="1035" y2="31" stroke="#000000" stroke-width="1" /><text font-size="18" font-family="Arial" x="1107.5" y="17" text-anchor="middle" dominant-baseline="middle" >1</text><rect x="1180" y="1" height="30" width="145" fill="#cfe2f3" /><line x1="1180" y1="1" x2="1325" y2="1" stroke="#000000" stroke-width="1" /><line x1="1180" y1="31" x2="1325" y2="31" stroke="#000000" stroke-width="1" /><line x1="1325" y1="1" x2="1325" y2="31" stroke="#000000" stroke-width="1" /><line x1="1180" y1="1" x2="1180" y2="31" stroke="#000000" stroke-width="1" /><text font-size="18" font-family="Arial" x="1252.5" y="17" text-anchor="middle" dominant-baseline="middle" >0</text><text font-size="18" font-family="Arial" x="15" y="16" text-anchor="end" > </text><text font-size="18" font-family="Arial" x="15" y="46" text-anchor="end" > </text><line x1="20" y1="31" x2="165" y2="31" stroke="#000000" stroke-width="1" /><line x1="20" y1="61" x2="165" y2="61" stroke="#000000" stroke-width="1" /><line x1="165" y1="31" x2="165" y2="61" stroke="#000000" stroke-width="1" /><line x1="20" y1="31" x2="20" y2="61" stroke="#000000" stroke-width="1" /><text font-size="18" font-family="Arial" x="24" y="47" text-anchor="start" dominant-baseline="middle" >Byte 1</text><line x1="165" y1="31" x2="1325" y2="31" stroke="#000000" stroke-width="1" /><line x1="165" y1="61" x2="1325" y2="61" stroke="#000000" stroke-width="1" /><line x1="1325" y1="31" x2="1325" y2="61" stroke="#000000" stroke-width="1" /><line x1="165" y1="31" x2="165" y2="61" stroke="#000000" stroke-width="1" /><text font-size="18" font-family="Arial" x="745" y="47" text-anchor="middle" dominant-baseline="middle" >Length</text><text font-size="18" font-family="Arial" x="15" y="76" text-anchor="end" > </text><line x1="20" y1="61" x2="165" y2="61" stroke="#000000" stroke-width="1" /><line x1="20" y1="91" x2="165" y2="91" stroke="#000000" stroke-width="1" /><line x1="165" y1="61" x2="165" y2="91" stroke="#000000" stroke-width="1" /><line x1="20" y1="61" x2="20" y2="91" stroke="#000000" stroke-width="1" /><text font-size="18" font-family="Arial" x="24" y="77" text-anchor="start" dominant-baseline="middle" >Byte 2</text><line x1="165" y1="61" x2="1325" y2="61" stroke="#000000" stroke-width="1" /><line x1="165" y1="91" x2="1325" y2="91" stroke="#000000" stroke-width="1" /><line x1="1325" y1="61" x2="1325" y2="91" stroke="#000000" stroke-width="1" /><line x1="165" y1="61" x2="165" y2="91" stroke="#000000" stroke-width="1" /><text font-size="18" font-family="Arial" x="745" y="77" text-anchor="middle" dominant-baseline="middle" >Packet Type</text><text font-size="18" font-family="Arial" x="15" y="106" text-anchor="end" > </text><line x1="20" y1="91" x2="165" y2="91" stroke="#000000" stroke-width="1" /><line x1="20" y1="121" x2="165" y2="121" stroke="#000000" stroke-width="1" /><line x1="165" y1="91" x2="165" y2="121" stroke="#000000" stroke-width="1" /><line x1="20" y1="91" x2="20" y2="121" stroke="#000000" stroke-width="1" /><text font-size="18" font-family="Arial" x="24" y="107" text-anchor="start" dominant-baseline="middle" ></text><rect x="165" y="91" height="30" width="1160" fill="#dddddd" /><line x1="165" y1="91" x2="1325" y2="91" stroke="#000000" stroke-width="1" /><line x1="165" y1="121" x2="1325" y2="121" stroke="#000000" stroke-width="1" /><line x1="1325" y1="91" x2="1325" y2="121" stroke="#000000" stroke-width="1" /><line x1="165" y1="91" x2="165" y2="121" stroke="#000000" stroke-width="1" /><text font-size="18" font-family="Arial" x="745" y="107" text-anchor="middle" dominant-baseline="middle" >CONNACK FLAGS</text><text font-size="18" font-family="Arial" x="15" y="136" text-anchor="end" > </text><line x1="20" y1="121" x2="165" y2="121" stroke="#000000" stroke-width="1" /><line x1="20" y1="151" x2="165" y2="151" stroke="#000000" stroke-width="1" /><line x1="165" y1="121" x2="165" y2="151" stroke="#000000" stroke-width="1" /><line x1="20" y1="121" x2="20" y2="151" stroke="#000000" stroke-width="1" /><text font-size="18" font-family="Arial" x="24" y="137" text-anchor="start" dominant-baseline="middle" ></text><rect x="165" y="121" height="30" width="870" fill="#eeeeee" /><line x1="165" y1="121" x2="1035" y2="121" stroke="#000000" stroke-width="1" /><line x1="165" y1="151" x2="1035" y2="151" stroke="#000000" stroke-width="1" /><line x1="1035" y1="121" x2="1035" y2="151" stroke="#000000" stroke-width="1" /><line x1="165" y1="121" x2="165" y2="151" stroke="#000000" stroke-width="1" /><text font-size="18" font-family="Arial" x="600" y="137" text-anchor="middle" dominant-baseline="middle" >Reserved</text><rect x="1035" y="121" height="30" width="145" fill="#eeeeee" /><line x1="1035" y1="121" x2="1180" y2="121" stroke="#000000" stroke-width="1" /><line x1="1035" y1="151" x2="1180" y2="151" stroke="#000000" stroke-width="1" /><line x1="1180" y1="121" x2="1180" y2="151" stroke="#000000" stroke-width="1" /><line x1="1035" y1="121" x2="1035" y2="151" stroke="#000000" stroke-width="1" /><text font-size="18" font-family="Arial" x="1107.5" y="137" text-anchor="middle" dominant-baseline="middle" >Auth</text><rect x="1180" y="121" height="30" width="145" fill="#eeeeee" /><line x1="1180" y1="121" x2="1325" y2="121" stroke="#000000" stroke-width="1" /><line x1="1180" y1="151" x2="1325" y2="151" stroke="#000000" stroke-width="1" /><line x1="1325" y1="121" x2="1325" y2="151" stroke="#000000" stroke-width="1" /><line x1="1180" y1="121" x2="1180" y2="151" stroke="#000000" stroke-width="1" /><text font-size="18" font-family="Arial" x="1252.5" y="137" text-anchor="middle" dominant-baseline="middle" >Session Present</text><text font-size="18" font-family="Arial" x="15" y="166" text-anchor="end" > </text><line x1="20" y1="151" x2="165" y2="151" stroke="#000000" stroke-width="1" /><line x1="20" y1="181" x2="165" y2="181" stroke="#000000" stroke-width="1" /><line x1="165" y1="151" x2="165" y2="181" stroke="#000000" stroke-width="1" /><line x1="20" y1="151" x2="20" y2="181" stroke="#000000" stroke-width="1" /><text font-size="18" font-family="Arial" x="24" y="167" text-anchor="start" dominant-baseline="middle" >Byte 3</text><line x1="165" y1="151" x2="310" y2="151" stroke="#000000" stroke-width="1" /><line x1="165" y1="181" x2="310" y2="181" stroke="#000000" stroke-width="1" /><line x1="310" y1="151" x2="310" y2="181" stroke="#000000" stroke-width="1" /><line x1="165" y1="151" x2="165" y2="181" stroke="#000000" stroke-width="1" /><text font-size="18" font-family="Arial" x="237.5" y="167" text-anchor="middle" dominant-baseline="middle" >0</text><line x1="310" y1="151" x2="455" y2="151" stroke="#000000" stroke-width="1" /><line x1="310" y1="181" x2="455" y2="181" stroke="#000000" stroke-width="1" /><line x1="455" y1="151" x2="455" y2="181" stroke="#000000" stroke-width="1" /><line x1="310" y1="151" x2="310" y2="181" stroke="#000000" stroke-width="1" /><text font-size="18" font-family="Arial" x="382.5" y="167" text-anchor="middle" dominant-baseline="middle" >0</text><line x1="455" y1="151" x2="600" y2="151" stroke="#000000" stroke-width="1" /><line x1="455" y1="181" x2="600" y2="181" stroke="#000000" stroke-width="1" /><line x1="600" y1="151" x2="600" y2="181" stroke="#000000" stroke-width="1" /><line x1="455" y1="151" x2="455" y2="181" stroke="#000000" stroke-width="1" /><text font-size="18" font-family="Arial" x="527.5" y="167" text-anchor="middle" dominant-baseline="middle" >0</text><line x1="600" y1="151" x2="745" y2="151" stroke="#000000" stroke-width="1" /><line x1="600" y1="181" x2="745" y2="181" stroke="#000000" stroke-width="1" /><line x1="745" y1="151" x2="745" y2="181" stroke="#000000" stroke-width="1" /><line x1="600" y1="151" x2="600" y2="181" stroke="#000000" stroke-width="1" /><text font-size="18" font-family="Arial" x="672.5" y="167" text-anchor="middle" dominant-baseline="middle" >0</text><line x1="745" y1="151" x2="890" y2="151" stroke="#000000" stroke-width="1" /><line x1="745" y1="181" x2="890" y2="181" stroke="#000000" stroke-width="1" /><line x1="890" y1="151" x2="890" y2="181" stroke="#000000" stroke-width="1" /><line x1="745" y1="151" x2="745" y2="181" stroke="#000000" stroke-width="1" /><text font-size="18" font-family="Arial" x="817.5" y="167" text-anchor="middle" dominant-baseline="middle" >0</text><line x1="890" y1="151" x2="1035" y2="151" stroke="#000000" stroke-width="1" /><line x1="890" y1="181" x2="1035" y2="181" stroke="#000000" stroke-width="1" /><line x1="1035" y1="151" x2="1035" y2="181" stroke="#000000" stroke-width="1" /><line x1="890" y1="151" x2="890" y2="181" stroke="#000000" stroke-width="1" /><text font-size="18" font-family="Arial" x="962.5" y="167" text-anchor="middle" dominant-baseline="middle" >0</text><line x1="1035" y1="151" x2="1180" y2="151" stroke="#000000" stroke-width="1" /><line x1="1035" y1="181" x2="1180" y2="181" stroke="#000000" stroke-width="1" /><line x1="1180" y1="151" x2="1180" y2="181" stroke="#000000" stroke-width="1" /><line x1="1035" y1="151" x2="1035" y2="181" stroke="#000000" stroke-width="1" /><text font-size="18" font-family="Arial" x="1107.5" y="167" text-anchor="middle" dominant-baseline="middle" >X</text><line x1="1180" y1="151" x2="1325" y2="151" stroke="#000000" stroke-width="1" /><line x1="1180" y1="181" x2="1325" y2="181" stroke="#000000" stroke-width="1" /><line x1="1325" y1="151" x2="1325" y2="181" stroke="#000000" stroke-width="1" /><line x1="1180" y1="151" x2="1180" y2="181" stroke="#000000" stroke-width="1" /><text font-size="18" font-family="Arial" x="1252.5" y="167" text-anchor="middle" dominant-baseline="middle" >X</text><text font-size="18" font-family="Arial" x="15" y="196" text-anchor="end" > </text><line x1="20" y1="181" x2="165" y2="181" stroke="#000000" stroke-width="1" /><line x1="20" y1="211" x2="165" y2="211" stroke="#000000" stroke-width="1" /><line x1="165" y1="181" x2="165" y2="211" stroke="#000000" stroke-width="1" /><line x1="20" y1="181" x2="20" y2="211" stroke="#000000" stroke-width="1" /><text font-size="18" font-family="Arial" x="24" y="197" text-anchor="start" dominant-baseline="middle" >Byte 4</text><line x1="165" y1="181" x2="1325" y2="181" stroke="#000000" stroke-width="1" /><line x1="165" y1="211" x2="1325" y2="211" stroke="#000000" stroke-width="1" /><line x1="1325" y1="181" x2="1325" y2="211" stroke="#000000" stroke-width="1" /><line x1="165" y1="181" x2="165" y2="211" stroke="#000000" stroke-width="1" /><text font-size="18" font-family="Arial" x="745" y="197" text-anchor="middle" dominant-baseline="middle" >Packet Identifier MSB</text><text font-size="18" font-family="Arial" x="15" y="226" text-anchor="end" > </text><line x1="20" y1="211" x2="165" y2="211" stroke="#000000" stroke-width="1" /><line x1="20" y1="241" x2="165" y2="241" stroke="#000000" stroke-width="1" /><line x1="165" y1="211" x2="165" y2="241" stroke="#000000" stroke-width="1" /><line x1="20" y1="211" x2="20" y2="241" stroke="#000000" stroke-width="1" /><text font-size="18" font-family="Arial" x="24" y="227" text-anchor="start" dominant-baseline="middle" >Byte 5</text><line x1="165" y1="211" x2="1325" y2="211" stroke="#000000" stroke-width="1" /><line x1="165" y1="241" x2="1325" y2="241" stroke="#000000" stroke-width="1" /><line x1="1325" y1="211" x2="1325" y2="241" stroke="#000000" stroke-width="1" /><line x1="165" y1="211" x2="165" y2="241" stroke="#000000" stroke-width="1" /><text font-size="18" font-family="Arial" x="745" y="227" text-anchor="middle" dominant-baseline="middle" >Packet Identifier LSB</text><text font-size="18" font-family="Arial" x="15" y="256" text-anchor="end" > </text><line x1="20" y1="241" x2="165" y2="241" stroke="#000000" stroke-width="1" /><line x1="20" y1="271" x2="165" y2="271" stroke="#000000" stroke-width="1" /><line x1="165" y1="241" x2="165" y2="271" stroke="#000000" stroke-width="1" /><line x1="20" y1="241" x2="20" y2="271" stroke="#000000" stroke-width="1" /><text font-size="18" font-family="Arial" x="24" y="257" text-anchor="start" dominant-baseline="middle" >Byte 6</text><line x1="165" y1="241" x2="1325" y2="241" stroke="#000000" stroke-width="1" /><line x1="165" y1="271" x2="1325" y2="271" stroke="#000000" stroke-width="1" /><line x1="1325" y1="241" x2="1325" y2="271" stroke="#000000" stroke-width="1" /><line x1="165" y1="241" x2="165" y2="271" stroke="#000000" stroke-width="1" /><text font-size="18" font-family="Arial" x="745" y="257" text-anchor="middle" dominant-baseline="middle" >Reason Code</text><text font-size="18" font-family="Arial" x="15" y="286" text-anchor="end" > </text><line x1="20" y1="271" x2="165" y2="271" stroke="#000000" stroke-width="1" /><line x1="20" y1="301" x2="165" y2="301" stroke="#000000" stroke-width="1" /><line x1="165" y1="271" x2="165" y2="301" stroke="#000000" stroke-width="1" /><line x1="20" y1="271" x2="20" y2="301" stroke="#000000" stroke-width="1" /><text font-size="18" font-family="Arial" x="24" y="287" text-anchor="start" dominant-baseline="middle" >Byte 7</text><line x1="165" y1="271" x2="1325" y2="271" stroke="#000000" stroke-width="1" /><line x1="165" y1="301" x2="1325" y2="301" stroke="#000000" stroke-width="1" /><line x1="1325" y1="271" x2="1325" y2="301" stroke="#000000" stroke-width="1" /><line x1="165" y1="271" x2="165" y2="301" stroke="#000000" stroke-width="1" /><text font-size="18" font-family="Arial" x="745" y="287" text-anchor="middle" dominant-baseline="middle" >Session Expiry Interval MSB</text><text font-size="18" font-family="Arial" x="15" y="316" text-anchor="end" > </text><line x1="20" y1="301" x2="165" y2="301" stroke="#000000" stroke-width="1" /><line x1="20" y1="331" x2="165" y2="331" stroke="#000000" stroke-width="1" /><line x1="165" y1="301" x2="165" y2="331" stroke="#000000" stroke-width="1" /><line x1="20" y1="301" x2="20" y2="331" stroke="#000000" stroke-width="1" /><text font-size="18" font-family="Arial" x="24" y="317" text-anchor="start" dominant-baseline="middle" >Byte 8</text><line x1="165" y1="301" x2="1325" y2="301" stroke="#000000" stroke-width="1" /><line x1="165" y1="331" x2="1325" y2="331" stroke="#000000" stroke-width="1" /><line x1="1325" y1="301" x2="1325" y2="331" stroke="#000000" stroke-width="1" /><line x1="165" y1="301" x2="165" y2="331" stroke="#000000" stroke-width="1" /><text font-size="18" font-family="Arial" x="745" y="317" text-anchor="middle" dominant-baseline="middle" >Session Expiry Interval</text><text font-size="18" font-family="Arial" x="15" y="346" text-anchor="end" > </text><line x1="20" y1="331" x2="165" y2="331" stroke="#000000" stroke-width="1" /><line x1="20" y1="361" x2="165" y2="361" stroke="#000000" stroke-width="1" /><line x1="165" y1="331" x2="165" y2="361" stroke="#000000" stroke-width="1" /><line x1="20" y1="331" x2="20" y2="361" stroke="#000000" stroke-width="1" /><text font-size="18" font-family="Arial" x="24" y="347" text-anchor="start" dominant-baseline="middle" >Byte 9</text><line x1="165" y1="331" x2="1325" y2="331" stroke="#000000" stroke-width="1" /><line x1="165" y1="361" x2="1325" y2="361" stroke="#000000" stroke-width="1" /><line x1="1325" y1="331" x2="1325" y2="361" stroke="#000000" stroke-width="1" /><line x1="165" y1="331" x2="165" y2="361" stroke="#000000" stroke-width="1" /><text font-size="18" font-family="Arial" x="745" y="347" text-anchor="middle" dominant-baseline="middle" >Session Expiry Interval</text><text font-size="18" font-family="Arial" x="15" y="376" text-anchor="end" > </text><line x1="20" y1="361" x2="165" y2="361" stroke="#000000" stroke-width="1" /><line x1="20" y1="391" x2="165" y2="391" stroke="#000000" stroke-width="1" /><line x1="165" y1="361" x2="165" y2="391" stroke="#000000" stroke-width="1" /><line x1="20" y1="361" x2="20" y2="391" stroke="#000000" stroke-width="1" /><text font-size="18" font-family="Arial" x="24" y="377" text-anchor="start" dominant-baseline="middle" >Byte 10</text><line x1="165" y1="361" x2="1325" y2="361" stroke="#000000" stroke-width="1" /><line x1="165" y1="391" x2="1325" y2="391" stroke="#000000" stroke-width="1" /><line x1="1325" y1="361" x2="1325" y2="391" stroke="#000000" stroke-width="1" /><line x1="165" y1="361" x2="165" y2="391" stroke="#000000" stroke-width="1" /><text font-size="18" font-family="Arial" x="745" y="377" text-anchor="middle" dominant-baseline="middle" >Session Expiry Interval LSB</text><text font-size="18" font-family="Arial" x="15" y="406" text-anchor="end" > </text><line x1="20" y1="391" x2="165" y2="391" stroke="#000000" stroke-width="1" /><line x1="20" y1="421" x2="165" y2="421" stroke="#000000" stroke-width="1" /><line x1="165" y1="391" x2="165" y2="421" stroke="#000000" stroke-width="1" /><line x1="20" y1="391" x2="20" y2="421" stroke="#000000" stroke-width="1" /><text font-size="18" font-family="Arial" x="24" y="407" text-anchor="start" dominant-baseline="middle" ></text><rect x="165" y="391" height="30" width="1160" fill="#dddddd" /><line x1="165" y1="391" x2="1325" y2="391" stroke="#000000" stroke-width="1" /><line x1="165" y1="421" x2="1325" y2="421" stroke="#000000" stroke-width="1" /><line x1="1325" y1="391" x2="1325" y2="421" stroke="#000000" stroke-width="1" /><line x1="165" y1="391" x2="165" y2="421" stroke="#000000" stroke-width="1" /><text font-size="18" font-family="Arial" x="745" y="407" text-anchor="middle" dominant-baseline="middle" >AUTH DATA<tspan font-style="italic" font-size="18" font-family="Arial" dominant-baseline="middle" >? (ONLY WHEN AUTH FLAG SET)</tspan></text><text font-size="18" font-family="Arial" x="15" y="436" text-anchor="end" > </text><rect x="20" y="421" height="30" width="145" fill="#eeeeee" /><line x1="20" y1="421" x2="165" y2="421" stroke="#000000" stroke-width="1" /><line x1="20" y1="451" x2="165" y2="451" stroke="#000000" stroke-width="1" /><line x1="165" y1="421" x2="165" y2="451" stroke="#000000" stroke-width="1" /><line x1="20" y1="421" x2="20" y2="451" stroke="#000000" stroke-width="1" /><text font-size="18" font-family="Arial" x="24" y="437" text-anchor="start" dominant-baseline="middle" >Byte (10 + 1)</text><rect x="165" y="421" height="30" width="1160" fill="#eeeeee" /><line x1="165" y1="421" x2="1325" y2="421" stroke="#000000" stroke-width="1" /><line x1="165" y1="451" x2="1325" y2="451" stroke="#000000" stroke-width="1" /><line x1="1325" y1="421" x2="1325" y2="451" stroke="#000000" stroke-width="1" /><line x1="165" y1="421" x2="165" y2="451" stroke="#000000" stroke-width="1" /><text font-size="18" font-family="Arial" x="745" y="437" text-anchor="middle" dominant-baseline="middle" >Auth Method Length</text><text font-size="18" font-family="Arial" x="15" y="466" text-anchor="end" > </text><rect x="20" y="451" height="30" width="145" fill="#eeeeee" /><line x1="20" y1="451" x2="165" y2="451" stroke="#000000" stroke-width="1" /><line x1="20" y1="481" x2="165" y2="481" stroke="#000000" stroke-width="1" /><line x1="165" y1="451" x2="165" y2="481" stroke="#000000" stroke-width="1" /><line x1="20" y1="451" x2="20" y2="481" stroke="#000000" stroke-width="1" /><text font-size="18" font-family="Arial" x="24" y="467" text-anchor="start" dominant-baseline="middle" >Byte (10 + 2)</text><rect x="165" y="451" height="30" width="1160" fill="#eeeeee" /><line x1="165" y1="451" x2="1325" y2="451" stroke="#000000" stroke-width="1" /><line x1="165" y1="481" x2="1325" y2="481" stroke="#000000" stroke-width="1" /><line x1="1325" y1="451" x2="1325" y2="481" stroke="#000000" stroke-width="1" /><line x1="165" y1="451" x2="165" y2="481" stroke="#000000" stroke-width="1" /><text font-size="18" font-family="Arial" x="745" y="467" text-anchor="middle" dominant-baseline="middle" >Auth Method</text><text font-size="18" font-family="Arial" x="15" y="496" text-anchor="end" > </text><rect x="20" y="481" height="30" width="145" fill="#eeeeee" /><line x1="20" y1="481" x2="165" y2="481" stroke="#000000" stroke-width="1" /><line x1="20" y1="511" x2="165" y2="511" stroke="#000000" stroke-width="1" /><line x1="165" y1="481" x2="165" y2="511" stroke="#000000" stroke-width="1" /><line x1="20" y1="481" x2="20" y2="511" stroke="#000000" stroke-width="1" /><text font-size="18" font-family="Arial" x="24" y="497" text-anchor="start" dominant-baseline="middle" >Byte (10 + 3)</text><rect x="165" y="481" height="30" width="1160" fill="#eeeeee" /><line x1="165" y1="481" x2="1325" y2="481" stroke="#000000" stroke-width="1" /><line x1="165" y1="511" x2="1325" y2="511" stroke="#000000" stroke-width="1" /><line x1="1325" y1="481" x2="1325" y2="511" stroke="#000000" stroke-width="1" /><line x1="165" y1="481" x2="165" y2="511" stroke="#000000" stroke-width="1" /><text font-size="18" font-family="Arial" x="745" y="497" text-anchor="middle" dominant-baseline="middle" >Auth Data Length MSB</text><text font-size="18" font-family="Arial" x="15" y="526" text-anchor="end" > </text><rect x="20" y="511" height="30" width="145" fill="#eeeeee" /><line x1="20" y1="511" x2="165" y2="511" stroke="#000000" stroke-width="1" /><line x1="20" y1="541" x2="165" y2="541" stroke="#000000" stroke-width="1" /><line x1="165" y1="511" x2="165" y2="541" stroke="#000000" stroke-width="1" /><line x1="20" y1="511" x2="20" y2="541" stroke="#000000" stroke-width="1" /><text font-size="18" font-family="Arial" x="24" y="527" text-anchor="start" dominant-baseline="middle" >Byte (10 + 4)</text><rect x="165" y="511" height="30" width="1160" fill="#eeeeee" /><line x1="165" y1="511" x2="1325" y2="511" stroke="#000000" stroke-width="1" /><line x1="165" y1="541" x2="1325" y2="541" stroke="#000000" stroke-width="1" /><line x1="1325" y1="511" x2="1325" y2="541" stroke="#000000" stroke-width="1" /><line x1="165" y1="511" x2="165" y2="541" stroke="#000000" stroke-width="1" /><text font-size="18" font-family="Arial" x="745" y="527" text-anchor="middle" dominant-baseline="middle" >Auth Data Length LSB</text><text font-size="18" font-family="Arial" x="15" y="556" text-anchor="end" > </text><rect x="20" y="541" height="30" width="145" fill="#eeeeee" /><line x1="20" y1="541" x2="165" y2="541" stroke="#000000" stroke-width="1" /><line x1="20" y1="571" x2="165" y2="571" stroke="#000000" stroke-width="1" /><line x1="165" y1="541" x2="165" y2="571" stroke="#000000" stroke-width="1" /><line x1="20" y1="541" x2="20" y2="571" stroke="#000000" stroke-width="1" /><text font-size="18" font-family="Arial" x="24" y="557" text-anchor="start" dominant-baseline="middle" >Byte (10 + 5)</text><rect x="165" y="541" height="30" width="1160" fill="#eeeeee" /><line x1="165" y1="541" x2="1325" y2="541" stroke="#000000" stroke-width="1" /><line x1="165" y1="571" x2="1325" y2="571" stroke="#000000" stroke-width="1" /><line x1="1325" y1="541" x2="1325" y2="571" stroke="#000000" stroke-width="1" /><line x1="165" y1="541" x2="165" y2="571" stroke="#000000" stroke-width="1" /><text font-size="18" font-family="Arial" x="745" y="557" text-anchor="middle" dominant-baseline="middle" >Auth Data</text><text font-size="18" font-family="Arial" x="15" y="586" text-anchor="end" > </text><line x1="20" y1="571" x2="165" y2="571" stroke="#000000" stroke-width="1" /><line x1="20" y1="601" x2="165" y2="601" stroke="#000000" stroke-width="1" /><line x1="165" y1="571" x2="165" y2="601" stroke="#000000" stroke-width="1" /><line x1="20" y1="571" x2="20" y2="601" stroke="#000000" stroke-width="1" /><text font-size="18" font-family="Arial" x="24" y="587" text-anchor="start" dominant-baseline="middle" >Byte 11 ... N</text><line x1="165" y1="571" x2="1325" y2="571" stroke="#000000" stroke-width="1" /><line x1="165" y1="601" x2="1325" y2="601" stroke="#000000" stroke-width="1" /><line x1="1325" y1="571" x2="1325" y2="601" stroke="#000000" stroke-width="1" /><line x1="165" y1="571" x2="165" y2="601" stroke="#000000" stroke-width="1" /><text font-size="18" font-family="Arial" x="745" y="587" text-anchor="middle" dominant-baseline="middle" >Assigned Client Identifier (optional)</text><line x1="20" y1="571" x2="1325" y2="571" stroke="#000000" stroke-width="1" /></svg>