<?xml version="1.0" encoding="UTF-8"?><svg xmlns:svg="http://www.w3.org/2000/svg" xmlns="http://www.w3.org/2000/svg" xmlns:xlink="http://www.w3.org/1999/xlink" version="1.0" width="921" height="312" viewBox="0 0 921 312" ><rect x="20" y="1" height="30" width="100" fill="#cfe2f3" /><line x1="20" y1="1" x2="120" y2="1" stroke="#000000" stroke-width="1" /><line x1="20" y1="31" x2="120" y2="31" stroke="#000000" stroke-width="1" /><line x1="120" y1="1" x2="120" y2="31" stroke="#000000" stroke-width="1" /><line x1="20" y1="1" x2="20" y2="31" stroke="#000000" stroke-width="1" /><text font-size="18" font-family="Arial" x="70" y="17" text-anchor="middle" dominant-baseline="middle" >Bit</text><rect x="120" y="1" height="30" width="100" fill="#cfe2f3" /><line x1="120" y1="1" x2="220" y2="1" stroke="#000000" stroke-width="1" /><line x1="120" y1="31" x2="220" y2="31" stroke="#000000" stroke-width="1" /><line x1="220" y1="1" x2="220" y2="31" stroke="#000000" stroke-width="1" /><line x1="120" y1="1" x2="120" y2="31" stroke="#000000" stroke-width="1" /><text font-size="18" font-family="Arial" x="170" y="17" text-anchor="middle" dominant-baseline="middle" >7</text><rect x="220" y="1" height="30" width="100" fill="#cfe2f3" /><line x1="220" y1="1" x2="320" y2="1" stroke="#000000" stroke-width="1" /><line x1="220" y1="31" x2="320" y2="31" stroke="#000000" stroke-width="1" /><line x1="320" y1="1" x2="320" y2="31" stroke="#000000" stroke-width="1" /><line x1="220" y1="1" x2="220" y2="31" stroke="#000000" stroke-width="1" /><text font-size="18" font-family="Arial" x="270" y="17" text-anchor="middle" dominant-baseline="middle" >6</text><rect x="320" y="1" height="30" width="100" fill="#cfe2f3" /><line x1="320" y1="1" x2="420" y2="1" stroke="#000000" stroke-width="1" /><line x1="320" y1="31" x2="420" y2="31" stroke="#000000" stroke-width="1" /><line x1="420" y1="1" x2="420" y2="31" stroke="#000000" stroke-width="1" /><line x1="320" y1="1" x2="320" y2="31" stroke="#000000" stroke-width="1" /><text font-size="18" font-family="Arial" x="370" y="17" text-anchor="middle" dominant-baseline="middle" >5</text><rect x="420" y="1" height="30" width="100" fill="#cfe2f3" /><line x1="420" y1="1" x2="520" y2="1" stroke="#000000" stroke-width="1" /><line x1="420" y1="31" x2="520" y2="31" stroke="#000000" stroke-width="1" /><line x1="520" y1="1" x2="520" y2="31" stroke="#000000" stroke-width="1" /><line x1="420" y1="1" x2="420" y2="31" stroke="#000000" stroke-width="1" /><text font-size="18" font-family="Arial" x="470" y="17" text-anchor="middle" dominant-baseline="middle" >4</text><rect x="520" y="1" height="30" width="100" fill="#cfe2f3" /><line x1="520" y1="1" x2="620" y2="1" stroke="#000000" stroke-width="1" /><line x1="520" y1="31" x2="620" y2="31" stroke="#000000" stroke-width="1" /><line x1="620" y1="1" x2="620" y2="31" stroke="#000000" stroke-width="1" /><line x1="520" y1="1" x2="520" y2="31" stroke="#000000" stroke-width="1" /><text font-size="18" font-family="Arial" x="570" y="17" text-anchor="middle" dominant-baseline="middle" >3</text><rect x="620" y="1" height="30" width="100" fill="#cfe2f3" /><line x1="620" y1="1" x2="720" y2="1" stroke="#000000" stroke-width="1" /><line x1="620" y1="31" x2="720" y2="31" stroke="#000000" stroke-width="1" /><line x1="720" y1="1" x2="720" y2="31" stroke="#000000" stroke-width="1" /><line x1="620" y1="1" x2="620" y2="31" stroke="#000000" stroke-width="1" /><text font-size="18" font-family="Arial" x="670" y="17" text-anchor="middle" dominant-baseline="middle" >2</text><rect x="720" y="1" height="30" width="100" fill="#cfe2f3" /><line x1="720" y1="1" x2="820" y2="1" stroke="#000000" stroke-width="1" /><line x1="720" y1="31" x2="820" y2="31" stroke="#000000" stroke-width="1" /><line x1="820" y1="1" x2="820" y2="31" stroke="#000000" stroke-width="1" /><line x1="720" y1="1" x2="720" y2="31" stroke="#000000" stroke-width="1" /><text font-size="18" font-family="Arial" x="770" y="17" text-anchor="middle" dominant-baseline="middle" >1</text><rect x="820" y="1" height="30" width="100" fill="#cfe2f3" /><line x1="820" y1="1" x2="920" y2="1" stroke="#000000" stroke-width="1" /><line x1="820" y1="31" x2="920" y2="31" stroke="#000000" stroke-width="1" /><line x1="920" y1="1" x2="920" y2="31" stroke="#000000" stroke-width="1" /><line x1="820" y1="1" x2="820" y2="31" stroke="#000000" stroke-width="1" /><text font-size="18" font-family="Arial" x="870" y="17" text-anchor="middle" dominant-baseline="middle" >0</text><text font-size="18" font-family="Arial" x="15" y="16" text-anchor="end" > </text><text font-size="18" font-family="Arial" x="15" y="46" text-anchor="end" > </text><line x1="20" y1="31" x2="120" y2="31" stroke="#000000" stroke-width="1" /><line x1="20" y1="61" x2="120" y2="61" stroke="#000000" stroke-width="1" /><line x1="120" y1="31" x2="120" y2="61" stroke="#000000" stroke-width="1" /><line x1="20" y1="31" x2="20" y2="61" stroke="#000000" stroke-width="1" /><text font-size="18" font-family="Arial" x="24" y="47" text-anchor="start" dominant-baseline="middle" >Byte 1</text><line x1="120" y1="31" x2="920" y2="31" stroke="#000000" stroke-width="1" /><line x1="120" y1="61" x2="920" y2="61" stroke="#000000" stroke-width="1" /><line x1="920" y1="31" x2="920" y2="61" stroke="#000000" stroke-width="1" /><line x1="120" y1="31" x2="120" y2="61" stroke="#000000" stroke-width="1" /><text font-size="18" font-family="Arial" x="520" y="47" text-anchor="middle" dominant-baseline="middle" >Length</text><text font-size="18" font-family="Arial" x="15" y="76" text-anchor="end" > </text><line x1="20" y1="61" x2="120" y2="61" stroke="#000000" stroke-width="1" /><line x1="20" y1="91" x2="120" y2="91" stroke="#000000" stroke-width="1" /><line x1="120" y1="61" x2="120" y2="91" stroke="#000000" stroke-width="1" /><line x1="20" y1="61" x2="20" y2="91" stroke="#000000" stroke-width="1" /><text font-size="18" font-family="Arial" x="24" y="77" text-anchor="start" dominant-baseline="middle" >Byte 2</text><line x1="120" y1="61" x2="920" y2="61" stroke="#000000" stroke-width="1" /><line x1="120" y1="91" x2="920" y2="91" stroke="#000000" stroke-width="1" /><line x1="920" y1="61" x2="920" y2="91" stroke="#000000" stroke-width="1" /><line x1="120" y1="61" x2="120" y2="91" stroke="#000000" stroke-width="1" /><text font-size="18" font-family="Arial" x="520" y="77" text-anchor="middle" dominant-baseline="middle" >Packet Type</text><text font-size="18" font-family="Arial" x="15" y="106" text-anchor="end" > </text><line x1="20" y1="91" x2="120" y2="91" stroke="#000000" stroke-width="1" /><line x1="20" y1="121" x2="120" y2="121" stroke="#000000" stroke-width="1" /><line x1="120" y1="91" x2="120" y2="121" stroke="#000000" stroke-width="1" /><line x1="20" y1="91" x2="20" y2="121" stroke="#000000" stroke-width="1" /><text font-size="18" font-family="Arial" x="24" y="107" text-anchor="start" dominant-baseline="middle" >Byte 3</text><line x1="120" y1="91" x2="920" y2="91" stroke="#000000" stroke-width="1" /><line x1="120" y1="121" x2="920" y2="121" stroke="#000000" stroke-width="1" /><line x1="920" y1="91" x2="920" y2="121" stroke="#000000" stroke-width="1" /><line x1="120" y1="91" x2="120" y2="121" stroke="#000000" stroke-width="1" /><text font-size="18" font-family="Arial" x="520" y="107" text-anchor="middle" dominant-baseline="middle" >Packet Identifier MSB</text><text font-size="18" font-family="Arial" x="15" y="136" text-anchor="end" > </text><line x1="20" y1="121" x2="120" y2="121" stroke="#000000" stroke-width="1" /><line x1="20" y1="151" x2="120" y2="151" stroke="#000000" stroke-width="1" /><line x1="120" y1="121" x2="120" y2="151" stroke="#000000" stroke-width="1" /><line x1="20" y1="121" x2="20" y2="151" stroke="#000000" stroke-width="1" /><text font-size="18" font-family="Arial" x="24" y="137" text-anchor="start" dominant-baseline="middle" >Byte 4</text><line x1="120" y1="121" x2="920" y2="121" stroke="#000000" stroke-width="1" /><line x1="120" y1="151" x2="920" y2="151" stroke="#000000" stroke-width="1" /><line x1="920" y1="121" x2="920" y2="151" stroke="#000000" stroke-width="1" /><line x1="120" y1="121" x2="120" y2="151" stroke="#000000" stroke-width="1" /><text font-size="18" font-family="Arial" x="520" y="137" text-anchor="middle" dominant-baseline="middle" >Packet Identifier LSB</text><text font-size="18" font-family="Arial" x="15" y="166" text-anchor="end" > </text><line x1="20" y1="151" x2="120" y2="151" stroke="#000000" stroke-width="1" /><line x1="20" y1="181" x2="120" y2="181" stroke="#000000" stroke-width="1" /><line x1="120" y1="151" x2="120" y2="181" stroke="#000000" stroke-width="1" /><line x1="20" y1="151" x2="20" y2="181" stroke="#000000" stroke-width="1" /><text font-size="18" font-family="Arial" x="24" y="167" text-anchor="start" dominant-baseline="middle" >Byte 5</text><line x1="120" y1="151" x2="920" y2="151" stroke="#000000" stroke-width="1" /><line x1="120" y1="181" x2="920" y2="181" stroke="#000000" stroke-width="1" /><line x1="920" y1="151" x2="920" y2="181" stroke="#000000" stroke-width="1" /><line x1="120" y1="151" x2="120" y2="181" stroke="#000000" stroke-width="1" /><text font-size="18" font-family="Arial" x="520" y="167" text-anchor="middle" dominant-baseline="middle" >Packet Alias MSB</text><text font-size="18" font-family="Arial" x="15" y="196" text-anchor="end" > </text><line x1="20" y1="181" x2="120" y2="181" stroke="#000000" stroke-width="1" /><line x1="20" y1="211" x2="120" y2="211" stroke="#000000" stroke-width="1" /><line x1="120" y1="181" x2="120" y2="211" stroke="#000000" stroke-width="1" /><line x1="20" y1="181" x2="20" y2="211" stroke="#000000" stroke-width="1" /><text font-size="18" font-family="Arial" x="24" y="197" text-anchor="start" dominant-baseline="middle" >Byte 6</text><line x1="120" y1="181" x2="920" y2="181" stroke="#000000" stroke-width="1" /><line x1="120" y1="211" x2="920" y2="211" stroke="#000000" stroke-width="1" /><line x1="920" y1="181" x2="920" y2="211" stroke="#000000" stroke-width="1" /><line x1="120" y1="181" x2="120" y2="211" stroke="#000000" stroke-width="1" /><text font-size="18" font-family="Arial" x="520" y="197" text-anchor="middle" dominant-baseline="middle" >Packet Alias LSB</text><text font-size="18" font-family="Arial" x="15" y="226" text-anchor="end" > </text><line x1="20" y1="211" x2="120" y2="211" stroke="#000000" stroke-width="1" /><line x1="20" y1="241" x2="120" y2="241" stroke="#000000" stroke-width="1" /><line x1="120" y1="211" x2="120" y2="241" stroke="#000000" stroke-width="1" /><line x1="20" y1="211" x2="20" y2="241" stroke="#000000" stroke-width="1" /><text font-size="18" font-family="Arial" x="24" y="227" text-anchor="start" dominant-baseline="middle" >Byte 7 ... N</text><line x1="120" y1="211" x2="920" y2="211" stroke="#000000" stroke-width="1" /><line x1="920" y1="211" x2="920" y2="241" stroke="#000000" stroke-width="1" /><line x1="120" y1="211" x2="120" y2="241" stroke="#000000" stroke-width="1" /><text font-size="18" font-family="Arial" x="520" y="227" text-anchor="middle" dominant-baseline="middle" >Topic Name</text><text font-size="18" font-family="Arial" x="15" y="256" text-anchor="end" > </text><line x1="20" y1="241" x2="20" y2="256" stroke="#000000" stroke-width="1" /><line x1="920" y1="241" x2="920" y2="256" stroke="#000000" stroke-width="1" /><line stroke-dasharray="1,1" x1="20" y1="256" x2="920" y2="286" stroke="#000000" stroke-width="1" /><line x1="920" y1="241" x2="920" y2="286" stroke="#000000" stroke-width="1" /><line stroke-dasharray="1,1" x1="20" y1="266" x2="920" y2="296" stroke="#000000" stroke-width="1" /><line x1="20" y1="266" x2="20" y2="296" stroke="#000000" stroke-width="1" /><line x1="20" y1="296" x2="20" y2="311" stroke="#000000" stroke-width="1" /><line x1="920" y1="296" x2="920" y2="311" stroke="#000000" stroke-width="1" /><text font-size="18" font-family="Arial" x="15" y="326" text-anchor="end" > </text><line x1="20" y1="311" x2="920" y2="311" stroke="#000000" stroke-width="1" /></svg>