<?xml version="1.0" encoding="UTF-8"?><svg xmlns:svg="http://www.w3.org/2000/svg" xmlns="http://www.w3.org/2000/svg" xmlns:xlink="http://www.w3.org/1999/xlink" version="1.0" width="1416" height="302" viewBox="0 0 1416 302" ><rect x="20" y="1" height="30" width="155" fill="#cfe2f3" /><line x1="20" y1="1" x2="175" y2="1" stroke="#000000" stroke-width="1" /><line x1="20" y1="31" x2="175" y2="31" stroke="#000000" stroke-width="1" /><line x1="175" y1="1" x2="175" y2="31" stroke="#000000" stroke-width="1" /><line x1="20" y1="1" x2="20" y2="31" stroke="#000000" stroke-width="1" /><text font-size="18" font-family="Arial" x="97.5" y="17" text-anchor="middle" dominant-baseline="middle" >Byte \ Bit</text><rect x="175" y="1" height="30" width="155" fill="#cfe2f3" /><line x1="175" y1="1" x2="330" y2="1" stroke="#000000" stroke-width="1" /><line x1="175" y1="31" x2="330" y2="31" stroke="#000000" stroke-width="1" /><line x1="330" y1="1" x2="330" y2="31" stroke="#000000" stroke-width="1" /><line x1="175" y1="1" x2="175" y2="31" stroke="#000000" stroke-width="1" /><text font-size="18" font-family="Arial" x="252.5" y="17" text-anchor="middle" dominant-baseline="middle" >7</text><rect x="330" y="1" height="30" width="155" fill="#cfe2f3" /><line x1="330" y1="1" x2="485" y2="1" stroke="#000000" stroke-width="1" /><line x1="330" y1="31" x2="485" y2="31" stroke="#000000" stroke-width="1" /><line x1="485" y1="1" x2="485" y2="31" stroke="#000000" stroke-width="1" /><line x1="330" y1="1" x2="330" y2="31" stroke="#000000" stroke-width="1" /><text font-size="18" font-family="Arial" x="407.5" y="17" text-anchor="middle" dominant-baseline="middle" >6</text><rect x="485" y="1" height="30" width="155" fill="#cfe2f3" /><line x1="485" y1="1" x2="640" y2="1" stroke="#000000" stroke-width="1" /><line x1="485" y1="31" x2="640" y2="31" stroke="#000000" stroke-width="1" /><line x1="640" y1="1" x2="640" y2="31" stroke="#000000" stroke-width="1" /><line x1="485" y1="1" x2="485" y2="31" stroke="#000000" stroke-width="1" /><text font-size="18" font-family="Arial" x="562.5" y="17" text-anchor="middle" dominant-baseline="middle" >5</text><rect x="640" y="1" height="30" width="155" fill="#cfe2f3" /><line x1="640" y1="1" x2="795" y2="1" stroke="#000000" stroke-width="1" /><line x1="640" y1="31" x2="795" y2="31" stroke="#000000" stroke-width="1" /><line x1="795" y1="1" x2="795" y2="31" stroke="#000000" stroke-width="1" /><line x1="640" y1="1" x2="640" y2="31" stroke="#000000" stroke-width="1" /><text font-size="18" font-family="Arial" x="717.5" y="17" text-anchor="middle" dominant-baseline="middle" >4</text><rect x="795" y="1" height="30" width="155" fill="#cfe2f3" /><line x1="795" y1="1" x2="950" y2="1" stroke="#000000" stroke-width="1" /><line x1="795" y1="31" x2="950" y2="31" stroke="#000000" stroke-width="1" /><line x1="950" y1="1" x2="950" y2="31" stroke="#000000" stroke-width="1" /><line x1="795" y1="1" x2="795" y2="31" stroke="#000000" stroke-width="1" /><text font-size="18" font-family="Arial" x="872.5" y="17" text-anchor="middle" dominant-baseline="middle" >3</text><rect x="950" y="1" height="30" width="155" fill="#cfe2f3" /><line x1="950" y1="1" x2="1105" y2="1" stroke="#000000" stroke-width="1" /><line x1="950" y1="31" x2="1105" y2="31" stroke="#000000" stroke-width="1" /><line x1="1105" y1="1" x2="1105" y2="31" stroke="#000000" stroke-width="1" /><line x1="950" y1="1" x2="950" y2="31" stroke="#000000" stroke-width="1" /><text font-size="18" font-family="Arial" x="1027.5" y="17" text-anchor="middle" dominant-baseline="middle" >2</text><rect x="1105" y="1" height="30" width="155" fill="#cfe2f3" /><line x1="1105" y1="1" x2="1260" y2="1" stroke="#000000" stroke-width="1" /><line x1="1105" y1="31" x2="1260" y2="31" stroke="#000000" stroke-width="1" /><line x1="1260" y1="1" x2="1260" y2="31" stroke="#000000" stroke-width="1" /><line x1="1105" y1="1" x2="1105" y2="31" stroke="#000000" stroke-width="1" /><text font-size="18" font-family="Arial" x="1182.5" y="17" text-anchor="middle" dominant-baseline="middle" >1</text><rect x="1260" y="1" height="30" width="155" fill="#cfe2f3" /><line x1="1260" y1="1" x2="1415" y2="1" stroke="#000000" stroke-width="1" /><line x1="1260" y1="31" x2="1415" y2="31" stroke="#000000" stroke-width="1" /><line x1="1415" y1="1" x2="1415" y2="31" stroke="#000000" stroke-width="1" /><line x1="1260" y1="1" x2="1260" y2="31" stroke="#000000" stroke-width="1" /><text font-size="18" font-family="Arial" x="1337.5" y="17" text-anchor="middle" dominant-baseline="middle" >0</text><text font-size="18" font-family="Arial" x="15" y="16" text-anchor="end" > </text><text font-size="18" font-family="Arial" x="15" y="46" text-anchor="end" > </text><line x1="20" y1="31" x2="175" y2="31" stroke="#000000" stroke-width="1" /><line x1="20" y1="61" x2="175" y2="61" stroke="#000000" stroke-width="1" /><line x1="175" y1="31" x2="175" y2="61" stroke="#000000" stroke-width="1" /><line x1="20" y1="31" x2="20" y2="61" stroke="#000000" stroke-width="1" /><text font-size="18" font-family="Arial" x="97.5" y="47" text-anchor="middle" dominant-baseline="middle" >1</text><line x1="175" y1="31" x2="1415" y2="31" stroke="#000000" stroke-width="1" /><line x1="175" y1="61" x2="1415" y2="61" stroke="#000000" stroke-width="1" /><line x1="1415" y1="31" x2="1415" y2="61" stroke="#000000" stroke-width="1" /><line x1="175" y1="31" x2="175" y2="61" stroke="#000000" stroke-width="1" /><text font-size="18" font-family="Arial" x="795" y="47" text-anchor="middle" dominant-baseline="middle" >Length</text><text font-size="18" font-family="Arial" x="15" y="76" text-anchor="end" > </text><line x1="20" y1="61" x2="175" y2="61" stroke="#000000" stroke-width="1" /><line x1="20" y1="91" x2="175" y2="91" stroke="#000000" stroke-width="1" /><line x1="175" y1="61" x2="175" y2="91" stroke="#000000" stroke-width="1" /><line x1="20" y1="61" x2="20" y2="91" stroke="#000000" stroke-width="1" /><text font-size="18" font-family="Arial" x="97.5" y="77" text-anchor="middle" dominant-baseline="middle" >2</text><line x1="175" y1="61" x2="1415" y2="61" stroke="#000000" stroke-width="1" /><line x1="175" y1="91" x2="1415" y2="91" stroke="#000000" stroke-width="1" /><line x1="1415" y1="61" x2="1415" y2="91" stroke="#000000" stroke-width="1" /><line x1="175" y1="61" x2="175" y2="91" stroke="#000000" stroke-width="1" /><text font-size="18" font-family="Arial" x="795" y="77" text-anchor="middle" dominant-baseline="middle" >Packet Type</text><text font-size="18" font-family="Arial" x="15" y="106" text-anchor="end" > </text><line x1="20" y1="91" x2="175" y2="91" stroke="#000000" stroke-width="1" /><line x1="20" y1="121" x2="175" y2="121" stroke="#000000" stroke-width="1" /><line x1="175" y1="91" x2="175" y2="121" stroke="#000000" stroke-width="1" /><line x1="20" y1="91" x2="20" y2="121" stroke="#000000" stroke-width="1" /><text font-size="18" font-family="Arial" x="97.5" y="107" text-anchor="middle" dominant-baseline="middle" ></text><rect x="175" y="91" height="30" width="1240" fill="#dddddd" /><line x1="175" y1="91" x2="1415" y2="91" stroke="#000000" stroke-width="1" /><line x1="175" y1="121" x2="1415" y2="121" stroke="#000000" stroke-width="1" /><line x1="1415" y1="91" x2="1415" y2="121" stroke="#000000" stroke-width="1" /><line x1="175" y1="91" x2="175" y2="121" stroke="#000000" stroke-width="1" /><text font-size="18" font-family="Arial" x="795" y="107" text-anchor="middle" dominant-baseline="middle" >UNSUBSCRIBE FLAGS</text><text font-size="18" font-family="Arial" x="15" y="136" text-anchor="end" > </text><line x1="20" y1="121" x2="175" y2="121" stroke="#000000" stroke-width="1" /><line x1="20" y1="151" x2="175" y2="151" stroke="#000000" stroke-width="1" /><line x1="175" y1="121" x2="175" y2="151" stroke="#000000" stroke-width="1" /><line x1="20" y1="121" x2="20" y2="151" stroke="#000000" stroke-width="1" /><text font-size="18" font-family="Arial" x="97.5" y="137" text-anchor="middle" dominant-baseline="middle" ></text><rect x="175" y="121" height="30" width="930" fill="#eeeeee" /><line x1="175" y1="121" x2="1105" y2="121" stroke="#000000" stroke-width="1" /><line x1="175" y1="151" x2="1105" y2="151" stroke="#000000" stroke-width="1" /><line x1="1105" y1="121" x2="1105" y2="151" stroke="#000000" stroke-width="1" /><line x1="175" y1="121" x2="175" y2="151" stroke="#000000" stroke-width="1" /><text font-size="18" font-family="Arial" x="640" y="137" text-anchor="middle" dominant-baseline="middle" >Reserved</text><rect x="1105" y="121" height="30" width="310" fill="#eeeeee" /><line x1="1105" y1="121" x2="1415" y2="121" stroke="#000000" stroke-width="1" /><line x1="1105" y1="151" x2="1415" y2="151" stroke="#000000" stroke-width="1" /><line x1="1415" y1="121" x2="1415" y2="151" stroke="#000000" stroke-width="1" /><line x1="1105" y1="121" x2="1105" y2="151" stroke="#000000" stroke-width="1" /><text font-size="18" font-family="Arial" x="1260" y="137" text-anchor="middle" dominant-baseline="middle" >Topic Type</text><text font-size="18" font-family="Arial" x="15" y="166" text-anchor="end" > </text><line x1="20" y1="151" x2="175" y2="151" stroke="#000000" stroke-width="1" /><line x1="20" y1="181" x2="175" y2="181" stroke="#000000" stroke-width="1" /><line x1="175" y1="151" x2="175" y2="181" stroke="#000000" stroke-width="1" /><line x1="20" y1="151" x2="20" y2="181" stroke="#000000" stroke-width="1" /><text font-size="18" font-family="Arial" x="97.5" y="167" text-anchor="middle" dominant-baseline="middle" >3</text><line x1="175" y1="151" x2="330" y2="151" stroke="#000000" stroke-width="1" /><line x1="175" y1="181" x2="330" y2="181" stroke="#000000" stroke-width="1" /><line x1="330" y1="151" x2="330" y2="181" stroke="#000000" stroke-width="1" /><line x1="175" y1="151" x2="175" y2="181" stroke="#000000" stroke-width="1" /><text font-size="18" font-family="Arial" x="252.5" y="167" text-anchor="middle" dominant-baseline="middle" >0</text><line x1="330" y1="151" x2="485" y2="151" stroke="#000000" stroke-width="1" /><line x1="330" y1="181" x2="485" y2="181" stroke="#000000" stroke-width="1" /><line x1="485" y1="151" x2="485" y2="181" stroke="#000000" stroke-width="1" /><line x1="330" y1="151" x2="330" y2="181" stroke="#000000" stroke-width="1" /><text font-size="18" font-family="Arial" x="407.5" y="167" text-anchor="middle" dominant-baseline="middle" >0</text><line x1="485" y1="151" x2="640" y2="151" stroke="#000000" stroke-width="1" /><line x1="485" y1="181" x2="640" y2="181" stroke="#000000" stroke-width="1" /><line x1="640" y1="151" x2="640" y2="181" stroke="#000000" stroke-width="1" /><line x1="485" y1="151" x2="485" y2="181" stroke="#000000" stroke-width="1" /><text font-size="18" font-family="Arial" x="562.5" y="167" text-anchor="middle" dominant-baseline="middle" >0</text><line x1="640" y1="151" x2="795" y2="151" stroke="#000000" stroke-width="1" /><line x1="640" y1="181" x2="795" y2="181" stroke="#000000" stroke-width="1" /><line x1="795" y1="151" x2="795" y2="181" stroke="#000000" stroke-width="1" /><line x1="640" y1="151" x2="640" y2="181" stroke="#000000" stroke-width="1" /><text font-size="18" font-family="Arial" x="717.5" y="167" text-anchor="middle" dominant-baseline="middle" >0</text><line x1="795" y1="151" x2="950" y2="151" stroke="#000000" stroke-width="1" /><line x1="795" y1="181" x2="950" y2="181" stroke="#000000" stroke-width="1" /><line x1="950" y1="151" x2="950" y2="181" stroke="#000000" stroke-width="1" /><line x1="795" y1="151" x2="795" y2="181" stroke="#000000" stroke-width="1" /><text font-size="18" font-family="Arial" x="872.5" y="167" text-anchor="middle" dominant-baseline="middle" >0</text><line x1="950" y1="151" x2="1105" y2="151" stroke="#000000" stroke-width="1" /><line x1="950" y1="181" x2="1105" y2="181" stroke="#000000" stroke-width="1" /><line x1="1105" y1="151" x2="1105" y2="181" stroke="#000000" stroke-width="1" /><line x1="950" y1="151" x2="950" y2="181" stroke="#000000" stroke-width="1" /><text font-size="18" font-family="Arial" x="1027.5" y="167" text-anchor="middle" dominant-baseline="middle" >0</text><line x1="1105" y1="151" x2="1260" y2="151" stroke="#000000" stroke-width="1" /><line x1="1105" y1="181" x2="1260" y2="181" stroke="#000000" stroke-width="1" /><line x1="1260" y1="151" x2="1260" y2="181" stroke="#000000" stroke-width="1" /><line x1="1105" y1="151" x2="1105" y2="181" stroke="#000000" stroke-width="1" /><text font-size="18" font-family="Arial" x="1182.5" y="167" text-anchor="middle" dominant-baseline="middle" >X</text><line x1="1260" y1="151" x2="1415" y2="151" stroke="#000000" stroke-width="1" /><line x1="1260" y1="181" x2="1415" y2="181" stroke="#000000" stroke-width="1" /><line x1="1415" y1="151" x2="1415" y2="181" stroke="#000000" stroke-width="1" /><line x1="1260" y1="151" x2="1260" y2="181" stroke="#000000" stroke-width="1" /><text font-size="18" font-family="Arial" x="1337.5" y="167" text-anchor="middle" dominant-baseline="middle" >X</text><text font-size="18" font-family="Arial" x="15" y="196" text-anchor="end" > </text><line x1="20" y1="181" x2="175" y2="181" stroke="#000000" stroke-width="1" /><line x1="20" y1="211" x2="175" y2="211" stroke="#000000" stroke-width="1" /><line x1="175" y1="181" x2="175" y2="211" stroke="#000000" stroke-width="1" /><line x1="20" y1="181" x2="20" y2="211" stroke="#000000" stroke-width="1" /><text font-size="18" font-family="Arial" x="97.5" y="197" text-anchor="middle" dominant-baseline="middle" >4</text><line x1="175" y1="181" x2="1415" y2="181" stroke="#000000" stroke-width="1" /><line x1="175" y1="211" x2="1415" y2="211" stroke="#000000" stroke-width="1" /><line x1="1415" y1="181" x2="1415" y2="211" stroke="#000000" stroke-width="1" /><line x1="175" y1="181" x2="175" y2="211" stroke="#000000" stroke-width="1" /><text font-size="18" font-family="Arial" x="795" y="197" text-anchor="middle" dominant-baseline="middle" >Packet Identifier MSB</text><text font-size="18" font-family="Arial" x="15" y="226" text-anchor="end" > </text><line x1="20" y1="211" x2="175" y2="211" stroke="#000000" stroke-width="1" /><line x1="20" y1="241" x2="175" y2="241" stroke="#000000" stroke-width="1" /><line x1="175" y1="211" x2="175" y2="241" stroke="#000000" stroke-width="1" /><line x1="20" y1="211" x2="20" y2="241" stroke="#000000" stroke-width="1" /><text font-size="18" font-family="Arial" x="97.5" y="227" text-anchor="middle" dominant-baseline="middle" >5</text><line x1="175" y1="211" x2="1415" y2="211" stroke="#000000" stroke-width="1" /><line x1="175" y1="241" x2="1415" y2="241" stroke="#000000" stroke-width="1" /><line x1="1415" y1="211" x2="1415" y2="241" stroke="#000000" stroke-width="1" /><line x1="175" y1="211" x2="175" y2="241" stroke="#000000" stroke-width="1" /><text font-size="18" font-family="Arial" x="795" y="227" text-anchor="middle" dominant-baseline="middle" >Packet Identifier LSB</text><text font-size="18" font-family="Arial" x="15" y="256" text-anchor="end" > </text><line x1="20" y1="241" x2="175" y2="241" stroke="#000000" stroke-width="1" /><line x1="20" y1="271" x2="175" y2="271" stroke="#000000" stroke-width="1" /><line x1="175" y1="241" x2="175" y2="271" stroke="#000000" stroke-width="1" /><line x1="20" y1="241" x2="20" y2="271" stroke="#000000" stroke-width="1" /><text font-size="18" font-family="Arial" x="97.5" y="257" text-anchor="middle" dominant-baseline="middle" >6</text><line x1="175" y1="241" x2="1415" y2="241" stroke="#000000" stroke-width="1" /><line x1="175" y1="271" x2="1415" y2="271" stroke="#000000" stroke-width="1" /><line x1="1415" y1="241" x2="1415" y2="271" stroke="#000000" stroke-width="1" /><line x1="175" y1="241" x2="175" y2="271" stroke="#000000" stroke-width="1" /><text font-size="18" font-family="Arial" x="795" y="257" text-anchor="middle" dominant-baseline="middle" >Topic Data MSB</text><text font-size="18" font-family="Arial" x="15" y="286" text-anchor="end" > </text><line x1="20" y1="271" x2="175" y2="271" stroke="#000000" stroke-width="1" /><line x1="20" y1="301" x2="175" y2="301" stroke="#000000" stroke-width="1" /><line x1="175" y1="271" x2="175" y2="301" stroke="#000000" stroke-width="1" /><line x1="20" y1="271" x2="20" y2="301" stroke="#000000" stroke-width="1" /><text font-size="18" font-family="Arial" x="97.5" y="287" text-anchor="middle" dominant-baseline="middle" >7</text><line x1="175" y1="271" x2="1415" y2="271" stroke="#000000" stroke-width="1" /><line x1="175" y1="301" x2="1415" y2="301" stroke="#000000" stroke-width="1" /><line x1="1415" y1="271" x2="1415" y2="301" stroke="#000000" stroke-width="1" /><line x1="175" y1="271" x2="175" y2="301" stroke="#000000" stroke-width="1" /><text font-size="18" font-family="Arial" x="795" y="287" text-anchor="middle" dominant-baseline="middle" >Topic Data LSB</text><line x1="20" y1="271" x2="1415" y2="271" stroke="#000000" stroke-width="1" /></svg>