<?xml version="1.0" encoding="UTF-8"?><svg xmlns:svg="http://www.w3.org/2000/svg" xmlns="http://www.w3.org/2000/svg" xmlns:xlink="http://www.w3.org/1999/xlink" version="1.0" width="581" height="166" viewBox="0 0 581 166" ><text x="55" y="8" font-family="Courier New, monospace" font-size="11" dominant-baseline="middle" text-anchor="middle" >7</text><text x="125" y="8" font-family="Courier New, monospace" font-size="11" dominant-baseline="middle" text-anchor="middle" >6</text><text x="195" y="8" font-family="Courier New, monospace" font-size="11" dominant-baseline="middle" text-anchor="middle" >5</text><text x="265" y="8" font-family="Courier New, monospace" font-size="11" dominant-baseline="middle" text-anchor="middle" >4</text><text x="335" y="8" font-family="Courier New, monospace" font-size="11" dominant-baseline="middle" text-anchor="middle" >3</text><text x="405" y="8" font-family="Courier New, monospace" font-size="11" dominant-baseline="middle" text-anchor="middle" >2</text><text x="475" y="8" font-family="Courier New, monospace" font-size="11" dominant-baseline="middle" text-anchor="middle" >1</text><text x="545" y="8" font-family="Courier New, monospace" font-size="11" dominant-baseline="middle" text-anchor="middle" >0</text><line x1="20" y1="15" x2="580" y2="15" stroke="#000000" stroke-width="1" /><line x1="20" y1="45" x2="580" y2="45" stroke="#000000" stroke-width="1" /><line x1="580" y1="15" x2="580" y2="45" stroke="#000000" stroke-width="1" /><line x1="20" y1="15" x2="20" y2="45" stroke="#000000" stroke-width="1" /><text font-size="18" font-family="Palatino, Georgia, Times New Roman, serif" x="300" y="31" text-anchor="middle" dominant-baseline="middle" >Length</text><text font-size="11" font-family="Courier New, monospace" font-style="normal" dominant-baseline="middle" x="15" y="30" text-anchor="end" >00</text><text font-size="11" font-family="Courier New, monospace" font-style="normal" dominant-baseline="middle" x="15" y="60" text-anchor="end" >08</text><line x1="20" y1="45" x2="580" y2="45" stroke="#000000" stroke-width="1" /><line x1="20" y1="75" x2="580" y2="75" stroke="#000000" stroke-width="1" /><line x1="580" y1="45" x2="580" y2="75" stroke="#000000" stroke-width="1" /><line x1="20" y1="45" x2="20" y2="75" stroke="#000000" stroke-width="1" /><text font-size="18" font-family="Palatino, Georgia, Times New Roman, serif" x="300" y="61" text-anchor="middle" dominant-baseline="middle" >Packet Type</text><text font-size="11" font-family="Courier New, monospace" font-style="normal" dominant-baseline="middle" x="15" y="90" text-anchor="end" >10</text><line x1="20" y1="75" x2="580" y2="75" stroke="#000000" stroke-width="1" /><line x1="20" y1="105" x2="580" y2="105" stroke="#000000" stroke-width="1" /><line x1="580" y1="75" x2="580" y2="105" stroke="#000000" stroke-width="1" /><line x1="20" y1="75" x2="20" y2="105" stroke="#000000" stroke-width="1" /><text font-size="18" font-family="Palatino, Georgia, Times New Roman, serif" x="300" y="91" text-anchor="middle" dominant-baseline="middle" >GwId</text><text font-size="11" font-family="Courier New, monospace" font-style="normal" dominant-baseline="middle" x="15" y="120" text-anchor="end" >18</text><line x1="20" y1="105" x2="580" y2="105" stroke="#000000" stroke-width="1" /><line x1="20" y1="135" x2="580" y2="135" stroke="#000000" stroke-width="1" /><line x1="580" y1="105" x2="580" y2="135" stroke="#000000" stroke-width="1" /><line x1="20" y1="105" x2="20" y2="135" stroke="#000000" stroke-width="1" /><text font-size="18" font-family="Palatino, Georgia, Times New Roman, serif" x="300" y="121" text-anchor="middle" dominant-baseline="middle" >Duration MSB</text><text font-size="11" font-family="Courier New, monospace" font-style="normal" dominant-baseline="middle" x="15" y="150" text-anchor="end" >20</text><line x1="20" y1="135" x2="580" y2="135" stroke="#000000" stroke-width="1" /><line x1="20" y1="165" x2="580" y2="165" stroke="#000000" stroke-width="1" /><line x1="580" y1="135" x2="580" y2="165" stroke="#000000" stroke-width="1" /><line x1="20" y1="135" x2="20" y2="165" stroke="#000000" stroke-width="1" /><text font-size="18" font-family="Palatino, Georgia, Times New Roman, serif" x="300" y="151" text-anchor="middle" dominant-baseline="middle" >Duration LSB</text><line x1="20" y1="135" x2="580" y2="135" stroke="#000000" stroke-width="1" /></svg>