<?xml version="1.0" encoding="UTF-8"?><svg xmlns:svg="http://www.w3.org/2000/svg" xmlns="http://www.w3.org/2000/svg" xmlns:xlink="http://www.w3.org/1999/xlink" version="1.0" width="831" height="932" viewBox="0 0 831 932" ><rect x="20" y="1" height="30" width="90" fill="#cfe2f3" /><line x1="20" y1="1" x2="110" y2="1" stroke="#000000" stroke-width="1" /><line x1="20" y1="31" x2="110" y2="31" stroke="#000000" stroke-width="1" /><line x1="110" y1="1" x2="110" y2="31" stroke="#000000" stroke-width="1" /><line x1="20" y1="1" x2="20" y2="31" stroke="#000000" stroke-width="1" /><text font-size="18" font-family="Arial" x="65" y="17" text-anchor="middle" dominant-baseline="middle" >Byte \ Bit</text><rect x="110" y="1" height="30" width="90" fill="#cfe2f3" /><line x1="110" y1="1" x2="200" y2="1" stroke="#000000" stroke-width="1" /><line x1="110" y1="31" x2="200" y2="31" stroke="#000000" stroke-width="1" /><line x1="200" y1="1" x2="200" y2="31" stroke="#000000" stroke-width="1" /><line x1="110" y1="1" x2="110" y2="31" stroke="#000000" stroke-width="1" /><text font-size="18" font-family="Arial" x="155" y="17" text-anchor="middle" dominant-baseline="middle" >7</text><rect x="200" y="1" height="30" width="90" fill="#cfe2f3" /><line x1="200" y1="1" x2="290" y2="1" stroke="#000000" stroke-width="1" /><line x1="200" y1="31" x2="290" y2="31" stroke="#000000" stroke-width="1" /><line x1="290" y1="1" x2="290" y2="31" stroke="#000000" stroke-width="1" /><line x1="200" y1="1" x2="200" y2="31" stroke="#000000" stroke-width="1" /><text font-size="18" font-family="Arial" x="245" y="17" text-anchor="middle" dominant-baseline="middle" >6</text><rect x="290" y="1" height="30" width="90" fill="#cfe2f3" /><line x1="290" y1="1" x2="380" y2="1" stroke="#000000" stroke-width="1" /><line x1="290" y1="31" x2="380" y2="31" stroke="#000000" stroke-width="1" /><line x1="380" y1="1" x2="380" y2="31" stroke="#000000" stroke-width="1" /><line x1="290" y1="1" x2="290" y2="31" stroke="#000000" stroke-width="1" /><text font-size="18" font-family="Arial" x="335" y="17" text-anchor="middle" dominant-baseline="middle" >5</text><rect x="380" y="1" height="30" width="90" fill="#cfe2f3" /><line x1="380" y1="1" x2="470" y2="1" stroke="#000000" stroke-width="1" /><line x1="380" y1="31" x2="470" y2="31" stroke="#000000" stroke-width="1" /><line x1="470" y1="1" x2="470" y2="31" stroke="#000000" stroke-width="1" /><line x1="380" y1="1" x2="380" y2="31" stroke="#000000" stroke-width="1" /><text font-size="18" font-family="Arial" x="425" y="17" text-anchor="middle" dominant-baseline="middle" >4</text><rect x="470" y="1" height="30" width="90" fill="#cfe2f3" /><line x1="470" y1="1" x2="560" y2="1" stroke="#000000" stroke-width="1" /><line x1="470" y1="31" x2="560" y2="31" stroke="#000000" stroke-width="1" /><line x1="560" y1="1" x2="560" y2="31" stroke="#000000" stroke-width="1" /><line x1="470" y1="1" x2="470" y2="31" stroke="#000000" stroke-width="1" /><text font-size="18" font-family="Arial" x="515" y="17" text-anchor="middle" dominant-baseline="middle" >3</text><rect x="560" y="1" height="30" width="90" fill="#cfe2f3" /><line x1="560" y1="1" x2="650" y2="1" stroke="#000000" stroke-width="1" /><line x1="560" y1="31" x2="650" y2="31" stroke="#000000" stroke-width="1" /><line x1="650" y1="1" x2="650" y2="31" stroke="#000000" stroke-width="1" /><line x1="560" y1="1" x2="560" y2="31" stroke="#000000" stroke-width="1" /><text font-size="18" font-family="Arial" x="605" y="17" text-anchor="middle" dominant-baseline="middle" >2</text><rect x="650" y="1" height="30" width="90" fill="#cfe2f3" /><line x1="650" y1="1" x2="740" y2="1" stroke="#000000" stroke-width="1" /><line x1="650" y1="31" x2="740" y2="31" stroke="#000000" stroke-width="1" /><line x1="740" y1="1" x2="740" y2="31" stroke="#000000" stroke-width="1" /><line x1="650" y1="1" x2="650" y2="31" stroke="#000000" stroke-width="1" /><text font-size="18" font-family="Arial" x="695" y="17" text-anchor="middle" dominant-baseline="middle" >1</text><rect x="740" y="1" height="30" width="90" fill="#cfe2f3" /><line x1="740" y1="1" x2="830" y2="1" stroke="#000000" stroke-width="1" /><line x1="740" y1="31" x2="830" y2="31" stroke="#000000" stroke-width="1" /><line x1="830" y1="1" x2="830" y2="31" stroke="#000000" stroke-width="1" /><line x1="740" y1="1" x2="740" y2="31" stroke="#000000" stroke-width="1" /><text font-size="18" font-family="Arial" x="785" y="17" text-anchor="middle" dominant-baseline="middle" >0</text><text font-size="18" font-family="Arial" x="15" y="16" text-anchor="end" > </text><text font-size="18" font-family="Arial" x="15" y="46" text-anchor="end" > </text><line x1="20" y1="31" x2="110" y2="31" stroke="#000000" stroke-width="1" /><line x1="20" y1="61" x2="110" y2="61" stroke="#000000" stroke-width="1" /><line x1="110" y1="31" x2="110" y2="61" stroke="#000000" stroke-width="1" /><line x1="20" y1="31" x2="20" y2="61" stroke="#000000" stroke-width="1" /><text font-size="18" font-family="Arial" x="65" y="47" text-anchor="middle" dominant-baseline="middle" >1</text><line x1="110" y1="31" x2="830" y2="31" stroke="#000000" stroke-width="1" /><line x1="110" y1="61" x2="830" y2="61" stroke="#000000" stroke-width="1" /><line x1="830" y1="31" x2="830" y2="61" stroke="#000000" stroke-width="1" /><line x1="110" y1="31" x2="110" y2="61" stroke="#000000" stroke-width="1" /><text font-size="18" font-family="Arial" x="114" y="47" text-anchor="start" dominant-baseline="middle" >Length</text><text font-size="18" font-family="Arial" x="15" y="76" text-anchor="end" > </text><line x1="20" y1="61" x2="110" y2="61" stroke="#000000" stroke-width="1" /><line x1="20" y1="91" x2="110" y2="91" stroke="#000000" stroke-width="1" /><line x1="110" y1="61" x2="110" y2="91" stroke="#000000" stroke-width="1" /><line x1="20" y1="61" x2="20" y2="91" stroke="#000000" stroke-width="1" /><text font-size="18" font-family="Arial" x="65" y="77" text-anchor="middle" dominant-baseline="middle" >2</text><line x1="110" y1="61" x2="830" y2="61" stroke="#000000" stroke-width="1" /><line x1="110" y1="91" x2="830" y2="91" stroke="#000000" stroke-width="1" /><line x1="830" y1="61" x2="830" y2="91" stroke="#000000" stroke-width="1" /><line x1="110" y1="61" x2="110" y2="91" stroke="#000000" stroke-width="1" /><text font-size="18" font-family="Arial" x="114" y="77" text-anchor="start" dominant-baseline="middle" >Packet Type</text><text font-size="18" font-family="Arial" x="15" y="106" text-anchor="end" > </text><rect x="20" y="91" height="30" width="810" fill="#dddddd" /><line x1="20" y1="91" x2="830" y2="91" stroke="#000000" stroke-width="1" /><line x1="20" y1="121" x2="830" y2="121" stroke="#000000" stroke-width="1" /><line x1="830" y1="91" x2="830" y2="121" stroke="#000000" stroke-width="1" /><line x1="20" y1="91" x2="20" y2="121" stroke="#000000" stroke-width="1" /><text font-size="18" font-family="Arial" x="24" y="107" text-anchor="start" dominant-baseline="middle" >Connack Flags</text><text font-size="18" font-family="Arial" x="15" y="136" text-anchor="end" > </text><line x1="20" y1="121" x2="110" y2="121" stroke="#000000" stroke-width="1" /><line x1="20" y1="151" x2="110" y2="151" stroke="#000000" stroke-width="1" /><line x1="110" y1="121" x2="110" y2="151" stroke="#000000" stroke-width="1" /><line x1="20" y1="121" x2="20" y2="151" stroke="#000000" stroke-width="1" /><text font-size="18" font-family="Arial" x="65" y="137" text-anchor="middle" dominant-baseline="middle" ></text><rect x="110" y="121" height="30" width="360" fill="#eeeeee" /><line x1="110" y1="121" x2="470" y2="121" stroke="#000000" stroke-width="1" /><line x1="110" y1="151" x2="470" y2="151" stroke="#000000" stroke-width="1" /><line x1="470" y1="121" x2="470" y2="151" stroke="#000000" stroke-width="1" /><line x1="110" y1="121" x2="110" y2="151" stroke="#000000" stroke-width="1" /><text font-size="18" font-family="Arial" x="290" y="137" text-anchor="middle" dominant-baseline="middle" >Reserved</text><rect x="470" y="121" height="30" width="90" fill="#eeeeee" /><line x1="470" y1="121" x2="560" y2="121" stroke="#000000" stroke-width="1" /><line x1="470" y1="151" x2="560" y2="151" stroke="#000000" stroke-width="1" /><line x1="560" y1="121" x2="560" y2="151" stroke="#000000" stroke-width="1" /><line x1="470" y1="121" x2="470" y2="151" stroke="#000000" stroke-width="1" /><text font-size="18" font-family="Arial" x="515" y="137" text-anchor="middle" dominant-baseline="middle" >Auth</text><rect x="560" y="121" height="30" width="90" fill="#eeeeee" /><line x1="560" y1="121" x2="650" y2="121" stroke="#000000" stroke-width="1" /><line x1="560" y1="151" x2="650" y2="151" stroke="#000000" stroke-width="1" /><line x1="650" y1="121" x2="650" y2="151" stroke="#000000" stroke-width="1" /><line x1="560" y1="121" x2="560" y2="151" stroke="#000000" stroke-width="1" /><text font-size="18" font-family="Arial" x="605" y="137" text-anchor="middle" dominant-baseline="middle" >Server KA</text><rect x="650" y="121" height="30" width="90" fill="#eeeeee" /><line x1="650" y1="121" x2="740" y2="121" stroke="#000000" stroke-width="1" /><line x1="650" y1="151" x2="740" y2="151" stroke="#000000" stroke-width="1" /><line x1="740" y1="121" x2="740" y2="151" stroke="#000000" stroke-width="1" /><line x1="650" y1="121" x2="650" y2="151" stroke="#000000" stroke-width="1" /><text font-size="18" font-family="Arial" x="695" y="137" text-anchor="middle" dominant-baseline="middle" >Sess Exp</text><rect x="740" y="121" height="30" width="90" fill="#eeeeee" /><line x1="740" y1="121" x2="830" y2="121" stroke="#000000" stroke-width="1" /><line x1="740" y1="151" x2="830" y2="151" stroke="#000000" stroke-width="1" /><line x1="830" y1="121" x2="830" y2="151" stroke="#000000" stroke-width="1" /><line x1="740" y1="121" x2="740" y2="151" stroke="#000000" stroke-width="1" /><text font-size="18" font-family="Arial" x="785" y="137" text-anchor="middle" dominant-baseline="middle" >Sess Pres</text><text font-size="18" font-family="Arial" x="15" y="166" text-anchor="end" > </text><line x1="20" y1="151" x2="110" y2="151" stroke="#000000" stroke-width="1" /><line x1="20" y1="181" x2="110" y2="181" stroke="#000000" stroke-width="1" /><line x1="110" y1="151" x2="110" y2="181" stroke="#000000" stroke-width="1" /><line x1="20" y1="151" x2="20" y2="181" stroke="#000000" stroke-width="1" /><text font-size="18" font-family="Arial" x="65" y="167" text-anchor="middle" dominant-baseline="middle" >3</text><line x1="110" y1="151" x2="200" y2="151" stroke="#000000" stroke-width="1" /><line x1="110" y1="181" x2="200" y2="181" stroke="#000000" stroke-width="1" /><line x1="200" y1="151" x2="200" y2="181" stroke="#000000" stroke-width="1" /><line x1="110" y1="151" x2="110" y2="181" stroke="#000000" stroke-width="1" /><text font-size="18" font-family="Arial" x="155" y="167" text-anchor="middle" dominant-baseline="middle" >0</text><line x1="200" y1="151" x2="290" y2="151" stroke="#000000" stroke-width="1" /><line x1="200" y1="181" x2="290" y2="181" stroke="#000000" stroke-width="1" /><line x1="290" y1="151" x2="290" y2="181" stroke="#000000" stroke-width="1" /><line x1="200" y1="151" x2="200" y2="181" stroke="#000000" stroke-width="1" /><text font-size="18" font-family="Arial" x="245" y="167" text-anchor="middle" dominant-baseline="middle" >0</text><line x1="290" y1="151" x2="380" y2="151" stroke="#000000" stroke-width="1" /><line x1="290" y1="181" x2="380" y2="181" stroke="#000000" stroke-width="1" /><line x1="380" y1="151" x2="380" y2="181" stroke="#000000" stroke-width="1" /><line x1="290" y1="151" x2="290" y2="181" stroke="#000000" stroke-width="1" /><text font-size="18" font-family="Arial" x="335" y="167" text-anchor="middle" dominant-baseline="middle" >0</text><line x1="380" y1="151" x2="470" y2="151" stroke="#000000" stroke-width="1" /><line x1="380" y1="181" x2="470" y2="181" stroke="#000000" stroke-width="1" /><line x1="470" y1="151" x2="470" y2="181" stroke="#000000" stroke-width="1" /><line x1="380" y1="151" x2="380" y2="181" stroke="#000000" stroke-width="1" /><text font-size="18" font-family="Arial" x="425" y="167" text-anchor="middle" dominant-baseline="middle" >0</text><line x1="470" y1="151" x2="560" y2="151" stroke="#000000" stroke-width="1" /><line x1="470" y1="181" x2="560" y2="181" stroke="#000000" stroke-width="1" /><line x1="560" y1="151" x2="560" y2="181" stroke="#000000" stroke-width="1" /><line x1="470" y1="151" x2="470" y2="181" stroke="#000000" stroke-width="1" /><text font-size="18" font-family="Arial" x="515" y="167" text-anchor="middle" dominant-baseline="middle" >X</text><line x1="560" y1="151" x2="650" y2="151" stroke="#000000" stroke-width="1" /><line x1="560" y1="181" x2="650" y2="181" stroke="#000000" stroke-width="1" /><line x1="650" y1="151" x2="650" y2="181" stroke="#000000" stroke-width="1" /><line x1="560" y1="151" x2="560" y2="181" stroke="#000000" stroke-width="1" /><text font-size="18" font-family="Arial" x="605" y="167" text-anchor="middle" dominant-baseline="middle" >X</text><line x1="650" y1="151" x2="740" y2="151" stroke="#000000" stroke-width="1" /><line x1="650" y1="181" x2="740" y2="181" stroke="#000000" stroke-width="1" /><line x1="740" y1="151" x2="740" y2="181" stroke="#000000" stroke-width="1" /><line x1="650" y1="151" x2="650" y2="181" stroke="#000000" stroke-width="1" /><text font-size="18" font-family="Arial" x="695" y="167" text-anchor="middle" dominant-baseline="middle" >X</text><line x1="740" y1="151" x2="830" y2="151" stroke="#000000" stroke-width="1" /><line x1="740" y1="181" x2="830" y2="181" stroke="#000000" stroke-width="1" /><line x1="830" y1="151" x2="830" y2="181" stroke="#000000" stroke-width="1" /><line x1="740" y1="151" x2="740" y2="181" stroke="#000000" stroke-width="1" /><text font-size="18" font-family="Arial" x="785" y="167" text-anchor="middle" dominant-baseline="middle" >X</text><text font-size="18" font-family="Arial" x="15" y="196" text-anchor="end" > </text><line x1="20" y1="181" x2="110" y2="181" stroke="#000000" stroke-width="1" /><line x1="20" y1="211" x2="110" y2="211" stroke="#000000" stroke-width="1" /><line x1="110" y1="181" x2="110" y2="211" stroke="#000000" stroke-width="1" /><line x1="20" y1="181" x2="20" y2="211" stroke="#000000" stroke-width="1" /><text font-size="18" font-family="Arial" x="65" y="197" text-anchor="middle" dominant-baseline="middle" >4</text><line x1="110" y1="181" x2="830" y2="181" stroke="#000000" stroke-width="1" /><line x1="110" y1="211" x2="830" y2="211" stroke="#000000" stroke-width="1" /><line x1="830" y1="181" x2="830" y2="211" stroke="#000000" stroke-width="1" /><line x1="110" y1="181" x2="110" y2="211" stroke="#000000" stroke-width="1" /><text font-size="18" font-family="Arial" x="114" y="197" text-anchor="start" dominant-baseline="middle" >Packet Identifier MSB</text><text font-size="18" font-family="Arial" x="15" y="226" text-anchor="end" > </text><line x1="20" y1="211" x2="110" y2="211" stroke="#000000" stroke-width="1" /><line x1="20" y1="241" x2="110" y2="241" stroke="#000000" stroke-width="1" /><line x1="110" y1="211" x2="110" y2="241" stroke="#000000" stroke-width="1" /><line x1="20" y1="211" x2="20" y2="241" stroke="#000000" stroke-width="1" /><text font-size="18" font-family="Arial" x="65" y="227" text-anchor="middle" dominant-baseline="middle" >5</text><line x1="110" y1="211" x2="830" y2="211" stroke="#000000" stroke-width="1" /><line x1="110" y1="241" x2="830" y2="241" stroke="#000000" stroke-width="1" /><line x1="830" y1="211" x2="830" y2="241" stroke="#000000" stroke-width="1" /><line x1="110" y1="211" x2="110" y2="241" stroke="#000000" stroke-width="1" /><text font-size="18" font-family="Arial" x="114" y="227" text-anchor="start" dominant-baseline="middle" >Packet Identifier LSB</text><text font-size="18" font-family="Arial" x="15" y="256" text-anchor="end" > </text><line x1="20" y1="241" x2="110" y2="241" stroke="#000000" stroke-width="1" /><line x1="20" y1="271" x2="110" y2="271" stroke="#000000" stroke-width="1" /><line x1="110" y1="241" x2="110" y2="271" stroke="#000000" stroke-width="1" /><line x1="20" y1="241" x2="20" y2="271" stroke="#000000" stroke-width="1" /><text font-size="18" font-family="Arial" x="65" y="257" text-anchor="middle" dominant-baseline="middle" >6</text><line x1="110" y1="241" x2="830" y2="241" stroke="#000000" stroke-width="1" /><line x1="110" y1="271" x2="830" y2="271" stroke="#000000" stroke-width="1" /><line x1="830" y1="241" x2="830" y2="271" stroke="#000000" stroke-width="1" /><line x1="110" y1="241" x2="110" y2="271" stroke="#000000" stroke-width="1" /><text font-size="18" font-family="Arial" x="114" y="257" text-anchor="start" dominant-baseline="middle" >Reason Code</text><text font-size="18" font-family="Arial" x="15" y="286" text-anchor="end" > </text><rect x="20" y="271" height="30" width="810" fill="#dddddd" /><line x1="20" y1="271" x2="830" y2="271" stroke="#000000" stroke-width="1" /><line x1="20" y1="301" x2="830" y2="301" stroke="#000000" stroke-width="1" /><line x1="830" y1="271" x2="830" y2="301" stroke="#000000" stroke-width="1" /><line x1="20" y1="271" x2="20" y2="301" stroke="#000000" stroke-width="1" /><text font-size="18" font-family="Arial" x="24" y="287" text-anchor="start" dominant-baseline="middle" >Session Expiry Interval<tspan font-style="italic" font-size="18" font-family="Arial" dominant-baseline="middle" > (S=4 or 0) - only present when Sess Exp flag is set</tspan></text><text font-size="18" font-family="Arial" x="15" y="316" text-anchor="end" > </text><rect x="20" y="301" height="30" width="90" fill="#eeeeee" /><line x1="20" y1="301" x2="110" y2="301" stroke="#000000" stroke-width="1" /><line x1="20" y1="331" x2="110" y2="331" stroke="#000000" stroke-width="1" /><line x1="110" y1="301" x2="110" y2="331" stroke="#000000" stroke-width="1" /><line x1="20" y1="301" x2="20" y2="331" stroke="#000000" stroke-width="1" /><text font-size="18" font-family="Arial" x="65" y="317" text-anchor="middle" dominant-baseline="middle" >7</text><rect x="110" y="301" height="30" width="720" fill="#eeeeee" /><line x1="110" y1="301" x2="830" y2="301" stroke="#000000" stroke-width="1" /><line x1="110" y1="331" x2="830" y2="331" stroke="#000000" stroke-width="1" /><line x1="830" y1="301" x2="830" y2="331" stroke="#000000" stroke-width="1" /><line x1="110" y1="301" x2="110" y2="331" stroke="#000000" stroke-width="1" /><text font-size="18" font-family="Arial" x="114" y="317" text-anchor="start" dominant-baseline="middle" >Session Expiry Interval MSB</text><text font-size="18" font-family="Arial" x="15" y="346" text-anchor="end" > </text><rect x="20" y="331" height="30" width="90" fill="#eeeeee" /><line x1="20" y1="331" x2="110" y2="331" stroke="#000000" stroke-width="1" /><line x1="20" y1="361" x2="110" y2="361" stroke="#000000" stroke-width="1" /><line x1="110" y1="331" x2="110" y2="361" stroke="#000000" stroke-width="1" /><line x1="20" y1="331" x2="20" y2="361" stroke="#000000" stroke-width="1" /><text font-size="18" font-family="Arial" x="65" y="347" text-anchor="middle" dominant-baseline="middle" >8</text><rect x="110" y="331" height="30" width="720" fill="#eeeeee" /><line x1="110" y1="331" x2="830" y2="331" stroke="#000000" stroke-width="1" /><line x1="110" y1="361" x2="830" y2="361" stroke="#000000" stroke-width="1" /><line x1="830" y1="331" x2="830" y2="361" stroke="#000000" stroke-width="1" /><line x1="110" y1="331" x2="110" y2="361" stroke="#000000" stroke-width="1" /><text font-size="18" font-family="Arial" x="114" y="347" text-anchor="start" dominant-baseline="middle" >Session Expiry Interval</text><text font-size="18" font-family="Arial" x="15" y="376" text-anchor="end" > </text><rect x="20" y="361" height="30" width="90" fill="#eeeeee" /><line x1="20" y1="361" x2="110" y2="361" stroke="#000000" stroke-width="1" /><line x1="20" y1="391" x2="110" y2="391" stroke="#000000" stroke-width="1" /><line x1="110" y1="361" x2="110" y2="391" stroke="#000000" stroke-width="1" /><line x1="20" y1="361" x2="20" y2="391" stroke="#000000" stroke-width="1" /><text font-size="18" font-family="Arial" x="65" y="377" text-anchor="middle" dominant-baseline="middle" >9</text><rect x="110" y="361" height="30" width="720" fill="#eeeeee" /><line x1="110" y1="361" x2="830" y2="361" stroke="#000000" stroke-width="1" /><line x1="110" y1="391" x2="830" y2="391" stroke="#000000" stroke-width="1" /><line x1="830" y1="361" x2="830" y2="391" stroke="#000000" stroke-width="1" /><line x1="110" y1="361" x2="110" y2="391" stroke="#000000" stroke-width="1" /><text font-size="18" font-family="Arial" x="114" y="377" text-anchor="start" dominant-baseline="middle" >Session Expiry Interval</text><text font-size="18" font-family="Arial" x="15" y="406" text-anchor="end" > </text><rect x="20" y="391" height="30" width="90" fill="#eeeeee" /><line x1="20" y1="391" x2="110" y2="391" stroke="#000000" stroke-width="1" /><line x1="20" y1="421" x2="110" y2="421" stroke="#000000" stroke-width="1" /><line x1="110" y1="391" x2="110" y2="421" stroke="#000000" stroke-width="1" /><line x1="20" y1="391" x2="20" y2="421" stroke="#000000" stroke-width="1" /><text font-size="18" font-family="Arial" x="65" y="407" text-anchor="middle" dominant-baseline="middle" >10</text><rect x="110" y="391" height="30" width="720" fill="#eeeeee" /><line x1="110" y1="391" x2="830" y2="391" stroke="#000000" stroke-width="1" /><line x1="110" y1="421" x2="830" y2="421" stroke="#000000" stroke-width="1" /><line x1="830" y1="391" x2="830" y2="421" stroke="#000000" stroke-width="1" /><line x1="110" y1="391" x2="110" y2="421" stroke="#000000" stroke-width="1" /><text font-size="18" font-family="Arial" x="114" y="407" text-anchor="start" dominant-baseline="middle" >Session Expiry Interval LSB</text><text font-size="18" font-family="Arial" x="15" y="436" text-anchor="end" > </text><rect x="20" y="421" height="30" width="810" fill="#dddddd" /><line x1="20" y1="421" x2="830" y2="421" stroke="#000000" stroke-width="1" /><line x1="20" y1="451" x2="830" y2="451" stroke="#000000" stroke-width="1" /><line x1="830" y1="421" x2="830" y2="451" stroke="#000000" stroke-width="1" /><line x1="20" y1="421" x2="20" y2="451" stroke="#000000" stroke-width="1" /><text font-size="18" font-family="Arial" x="24" y="437" text-anchor="start" dominant-baseline="middle" >Server Keep Alive<tspan font-style="italic" font-size="18" font-family="Arial" dominant-baseline="middle" > (K=2+S or S) - only present when Server KA flag is set</tspan></text><text font-size="18" font-family="Arial" x="15" y="466" text-anchor="end" > </text><rect x="20" y="451" height="30" width="90" fill="#eeeeee" /><line x1="20" y1="451" x2="110" y2="451" stroke="#000000" stroke-width="1" /><line x1="20" y1="481" x2="110" y2="481" stroke="#000000" stroke-width="1" /><line x1="110" y1="451" x2="110" y2="481" stroke="#000000" stroke-width="1" /><line x1="20" y1="451" x2="20" y2="481" stroke="#000000" stroke-width="1" /><text font-size="18" font-family="Arial" x="65" y="467" text-anchor="middle" dominant-baseline="middle" >7+S</text><rect x="110" y="451" height="30" width="720" fill="#eeeeee" /><line x1="110" y1="451" x2="830" y2="451" stroke="#000000" stroke-width="1" /><line x1="110" y1="481" x2="830" y2="481" stroke="#000000" stroke-width="1" /><line x1="830" y1="451" x2="830" y2="481" stroke="#000000" stroke-width="1" /><line x1="110" y1="451" x2="110" y2="481" stroke="#000000" stroke-width="1" /><text font-size="18" font-family="Arial" x="114" y="467" text-anchor="start" dominant-baseline="middle" >Server Keep Alive MSB</text><text font-size="18" font-family="Arial" x="15" y="496" text-anchor="end" > </text><rect x="20" y="481" height="30" width="90" fill="#eeeeee" /><line x1="20" y1="481" x2="110" y2="481" stroke="#000000" stroke-width="1" /><line x1="20" y1="511" x2="110" y2="511" stroke="#000000" stroke-width="1" /><line x1="110" y1="481" x2="110" y2="511" stroke="#000000" stroke-width="1" /><line x1="20" y1="481" x2="20" y2="511" stroke="#000000" stroke-width="1" /><text font-size="18" font-family="Arial" x="65" y="497" text-anchor="middle" dominant-baseline="middle" >8+S</text><rect x="110" y="481" height="30" width="720" fill="#eeeeee" /><line x1="110" y1="481" x2="830" y2="481" stroke="#000000" stroke-width="1" /><line x1="110" y1="511" x2="830" y2="511" stroke="#000000" stroke-width="1" /><line x1="830" y1="481" x2="830" y2="511" stroke="#000000" stroke-width="1" /><line x1="110" y1="481" x2="110" y2="511" stroke="#000000" stroke-width="1" /><text font-size="18" font-family="Arial" x="114" y="497" text-anchor="start" dominant-baseline="middle" >Server Keep Alive LSB</text><text font-size="18" font-family="Arial" x="15" y="526" text-anchor="end" > </text><rect x="20" y="511" height="30" width="810" fill="#dddddd" /><line x1="20" y1="511" x2="830" y2="511" stroke="#000000" stroke-width="1" /><line x1="20" y1="541" x2="830" y2="541" stroke="#000000" stroke-width="1" /><line x1="830" y1="511" x2="830" y2="541" stroke="#000000" stroke-width="1" /><line x1="20" y1="511" x2="20" y2="541" stroke="#000000" stroke-width="1" /><text font-size="18" font-family="Arial" x="24" y="527" text-anchor="start" dominant-baseline="middle" >Authentication Data<tspan font-style="italic" font-size="18" font-family="Arial" dominant-baseline="middle" > (A=3+M+D+K or K) - only present when Auth flag is set</tspan></text><text font-size="18" font-family="Arial" x="15" y="556" text-anchor="end" > </text><rect x="20" y="541" height="30" width="90" fill="#eeeeee" /><line x1="20" y1="541" x2="110" y2="541" stroke="#000000" stroke-width="1" /><line x1="20" y1="571" x2="110" y2="571" stroke="#000000" stroke-width="1" /><line x1="110" y1="541" x2="110" y2="571" stroke="#000000" stroke-width="1" /><line x1="20" y1="541" x2="20" y2="571" stroke="#000000" stroke-width="1" /><text font-size="18" font-family="Arial" x="65" y="557" text-anchor="middle" dominant-baseline="middle" >7+K</text><rect x="110" y="541" height="30" width="720" fill="#eeeeee" /><line x1="110" y1="541" x2="830" y2="541" stroke="#000000" stroke-width="1" /><line x1="110" y1="571" x2="830" y2="571" stroke="#000000" stroke-width="1" /><line x1="830" y1="541" x2="830" y2="571" stroke="#000000" stroke-width="1" /><line x1="110" y1="541" x2="110" y2="571" stroke="#000000" stroke-width="1" /><text font-size="18" font-family="Arial" x="114" y="557" text-anchor="start" dominant-baseline="middle" >Authentication Method Length</text><text font-size="18" font-family="Arial" x="15" y="586" text-anchor="end" > </text><rect x="20" y="571" height="30" width="90" fill="#eeeeee" /><line x1="20" y1="571" x2="110" y2="571" stroke="#000000" stroke-width="1" /><line x1="20" y1="601" x2="110" y2="601" stroke="#000000" stroke-width="1" /><line x1="110" y1="571" x2="110" y2="601" stroke="#000000" stroke-width="1" /><line x1="20" y1="571" x2="20" y2="601" stroke="#000000" stroke-width="1" /><text font-size="18" font-family="Arial" x="65" y="587" text-anchor="middle" dominant-baseline="middle" >8+K</text><rect x="110" y="571" height="30" width="720" fill="#eeeeee" /><line x1="110" y1="571" x2="830" y2="571" stroke="#000000" stroke-width="1" /><line x1="830" y1="571" x2="830" y2="601" stroke="#000000" stroke-width="1" /><line x1="110" y1="571" x2="110" y2="601" stroke="#000000" stroke-width="1" /><text font-size="18" font-family="Arial" x="470" y="587" text-anchor="middle" dominant-baseline="middle" >Authentication Method (M)</text><text font-size="18" font-family="Arial" x="15" y="616" text-anchor="end" > </text><polygon points=" 20,601 830,601 830,646 20,616" fill="#eeeeee" /><line x1="20" y1="601" x2="20" y2="616" stroke="#000000" stroke-width="1" /><line x1="830" y1="601" x2="830" y2="646" stroke="#000000" stroke-width="1" /><line stroke-dasharray="1,1" x1="20" y1="616" x2="830" y2="646" stroke="#000000" stroke-width="1" /><polygon points=" 20,626 830,656 830,671 20,671" fill="#eeeeee" /><line x1="20" y1="626" x2="20" y2="671" stroke="#000000" stroke-width="1" /><line x1="830" y1="656" x2="830" y2="671" stroke="#000000" stroke-width="1" /><line stroke-dasharray="1,1" x1="20" y1="626" x2="830" y2="656" stroke="#000000" stroke-width="1" /><text font-size="18" font-family="Arial" x="15" y="686" text-anchor="end" > </text><rect x="20" y="671" height="30" width="90" fill="#eeeeee" /><line x1="20" y1="671" x2="110" y2="671" stroke="#000000" stroke-width="1" /><line x1="20" y1="701" x2="110" y2="701" stroke="#000000" stroke-width="1" /><line x1="110" y1="671" x2="110" y2="701" stroke="#000000" stroke-width="1" /><line x1="20" y1="671" x2="20" y2="701" stroke="#000000" stroke-width="1" /><text font-size="18" font-family="Arial" x="65" y="687" text-anchor="middle" dominant-baseline="middle" >8+K+M</text><rect x="110" y="671" height="30" width="720" fill="#eeeeee" /><line x1="110" y1="671" x2="830" y2="671" stroke="#000000" stroke-width="1" /><line x1="110" y1="701" x2="830" y2="701" stroke="#000000" stroke-width="1" /><line x1="830" y1="671" x2="830" y2="701" stroke="#000000" stroke-width="1" /><line x1="110" y1="671" x2="110" y2="701" stroke="#000000" stroke-width="1" /><text font-size="18" font-family="Arial" x="114" y="687" text-anchor="start" dominant-baseline="middle" >Authentication Data Length MSB</text><text font-size="18" font-family="Arial" x="15" y="686" text-anchor="end" > </text><text font-size="18" font-family="Arial" x="15" y="716" text-anchor="end" > </text><rect x="20" y="701" height="30" width="90" fill="#eeeeee" /><line x1="20" y1="701" x2="110" y2="701" stroke="#000000" stroke-width="1" /><line x1="20" y1="731" x2="110" y2="731" stroke="#000000" stroke-width="1" /><line x1="110" y1="701" x2="110" y2="731" stroke="#000000" stroke-width="1" /><line x1="20" y1="701" x2="20" y2="731" stroke="#000000" stroke-width="1" /><text font-size="18" font-family="Arial" x="65" y="717" text-anchor="middle" dominant-baseline="middle" >9+K+M</text><rect x="110" y="701" height="30" width="720" fill="#eeeeee" /><line x1="110" y1="701" x2="830" y2="701" stroke="#000000" stroke-width="1" /><line x1="110" y1="731" x2="830" y2="731" stroke="#000000" stroke-width="1" /><line x1="830" y1="701" x2="830" y2="731" stroke="#000000" stroke-width="1" /><line x1="110" y1="701" x2="110" y2="731" stroke="#000000" stroke-width="1" /><text font-size="18" font-family="Arial" x="114" y="717" text-anchor="start" dominant-baseline="middle" >Authentication Data Length LSB</text><text font-size="18" font-family="Arial" x="15" y="746" text-anchor="end" > </text><rect x="20" y="731" height="30" width="90" fill="#eeeeee" /><line x1="20" y1="731" x2="110" y2="731" stroke="#000000" stroke-width="1" /><line x1="20" y1="761" x2="110" y2="761" stroke="#000000" stroke-width="1" /><line x1="110" y1="731" x2="110" y2="761" stroke="#000000" stroke-width="1" /><line x1="20" y1="731" x2="20" y2="761" stroke="#000000" stroke-width="1" /><text font-size="18" font-family="Arial" x="65" y="747" text-anchor="middle" dominant-baseline="middle" >10+K+M</text><rect x="110" y="731" height="30" width="720" fill="#eeeeee" /><line x1="110" y1="731" x2="830" y2="731" stroke="#000000" stroke-width="1" /><line x1="830" y1="731" x2="830" y2="761" stroke="#000000" stroke-width="1" /><line x1="110" y1="731" x2="110" y2="761" stroke="#000000" stroke-width="1" /><text font-size="18" font-family="Arial" x="470" y="747" text-anchor="middle" dominant-baseline="middle" >Authentication Data (D)</text><text font-size="18" font-family="Arial" x="15" y="776" text-anchor="end" > </text><polygon points=" 20,761 830,761 830,806 20,776" fill="#eeeeee" /><line x1="20" y1="761" x2="20" y2="776" stroke="#000000" stroke-width="1" /><line x1="830" y1="761" x2="830" y2="806" stroke="#000000" stroke-width="1" /><line stroke-dasharray="1,1" x1="20" y1="776" x2="830" y2="806" stroke="#000000" stroke-width="1" /><polygon points=" 20,786 830,816 830,831 20,831" fill="#eeeeee" /><line x1="20" y1="786" x2="20" y2="831" stroke="#000000" stroke-width="1" /><line x1="830" y1="816" x2="830" y2="831" stroke="#000000" stroke-width="1" /><line stroke-dasharray="1,1" x1="20" y1="786" x2="830" y2="816" stroke="#000000" stroke-width="1" /><text font-size="18" font-family="Arial" x="15" y="846" text-anchor="end" > </text><rect x="20" y="831" height="30" width="90" fill="#eeeeee" /><line x1="20" y1="831" x2="110" y2="831" stroke="#000000" stroke-width="1" /><line x1="20" y1="861" x2="110" y2="861" stroke="#000000" stroke-width="1" /><line x1="110" y1="831" x2="110" y2="861" stroke="#000000" stroke-width="1" /><line x1="20" y1="831" x2="20" y2="861" stroke="#000000" stroke-width="1" /><text font-size="18" font-family="Arial" x="65" y="847" text-anchor="middle" dominant-baseline="middle" >7+A</text><rect x="110" y="831" height="30" width="720" fill="#eeeeee" /><line x1="110" y1="831" x2="830" y2="831" stroke="#000000" stroke-width="1" /><line x1="830" y1="831" x2="830" y2="861" stroke="#000000" stroke-width="1" /><line x1="110" y1="831" x2="110" y2="861" stroke="#000000" stroke-width="1" /><text font-size="18" font-family="Arial" x="470" y="847" text-anchor="middle" dominant-baseline="middle" >Assigned Client Identifier (I) - optional</text><text font-size="18" font-family="Arial" x="15" y="846" text-anchor="end" > </text><text font-size="18" font-family="Arial" x="15" y="876" text-anchor="end" > </text><polygon points=" 20,861 830,861 830,906 20,876" fill="#eeeeee" /><line x1="20" y1="861" x2="20" y2="876" stroke="#000000" stroke-width="1" /><line x1="830" y1="861" x2="830" y2="906" stroke="#000000" stroke-width="1" /><line stroke-dasharray="1,1" x1="20" y1="876" x2="830" y2="906" stroke="#000000" stroke-width="1" /><polygon points=" 20,886 830,916 830,931 20,931" fill="#eeeeee" /><line x1="20" y1="886" x2="20" y2="931" stroke="#000000" stroke-width="1" /><line x1="830" y1="916" x2="830" y2="931" stroke="#000000" stroke-width="1" /><line stroke-dasharray="1,1" x1="20" y1="886" x2="830" y2="916" stroke="#000000" stroke-width="1" /><text font-size="18" font-family="Arial" x="15" y="946" text-anchor="end" > </text><line x1="20" y1="931" x2="830" y2="931" stroke="#000000" stroke-width="1" /></svg>