<?xml version="1.0" encoding="UTF-8"?><svg xmlns:svg="http://www.w3.org/2000/svg" xmlns="http://www.w3.org/2000/svg" xmlns:xlink="http://www.w3.org/1999/xlink" version="1.0" width="921" height="1202" viewBox="0 0 921 1202" ><rect x="20" y="1" height="30" width="100" fill="#cfe2f3" /><line x1="20" y1="1" x2="120" y2="1" stroke="#000000" stroke-width="1" /><line x1="20" y1="31" x2="120" y2="31" stroke="#000000" stroke-width="1" /><line x1="120" y1="1" x2="120" y2="31" stroke="#000000" stroke-width="1" /><line x1="20" y1="1" x2="20" y2="31" stroke="#000000" stroke-width="1" /><text font-size="18" font-family="Arial" x="70" y="17" text-anchor="middle" dominant-baseline="middle" >Byte \ Bit</text><rect x="120" y="1" height="30" width="100" fill="#cfe2f3" /><line x1="120" y1="1" x2="220" y2="1" stroke="#000000" stroke-width="1" /><line x1="120" y1="31" x2="220" y2="31" stroke="#000000" stroke-width="1" /><line x1="220" y1="1" x2="220" y2="31" stroke="#000000" stroke-width="1" /><line x1="120" y1="1" x2="120" y2="31" stroke="#000000" stroke-width="1" /><text font-size="18" font-family="Arial" x="170" y="17" text-anchor="middle" dominant-baseline="middle" >7</text><rect x="220" y="1" height="30" width="100" fill="#cfe2f3" /><line x1="220" y1="1" x2="320" y2="1" stroke="#000000" stroke-width="1" /><line x1="220" y1="31" x2="320" y2="31" stroke="#000000" stroke-width="1" /><line x1="320" y1="1" x2="320" y2="31" stroke="#000000" stroke-width="1" /><line x1="220" y1="1" x2="220" y2="31" stroke="#000000" stroke-width="1" /><text font-size="18" font-family="Arial" x="270" y="17" text-anchor="middle" dominant-baseline="middle" >6</text><rect x="320" y="1" height="30" width="100" fill="#cfe2f3" /><line x1="320" y1="1" x2="420" y2="1" stroke="#000000" stroke-width="1" /><line x1="320" y1="31" x2="420" y2="31" stroke="#000000" stroke-width="1" /><line x1="420" y1="1" x2="420" y2="31" stroke="#000000" stroke-width="1" /><line x1="320" y1="1" x2="320" y2="31" stroke="#000000" stroke-width="1" /><text font-size="18" font-family="Arial" x="370" y="17" text-anchor="middle" dominant-baseline="middle" >5</text><rect x="420" y="1" height="30" width="100" fill="#cfe2f3" /><line x1="420" y1="1" x2="520" y2="1" stroke="#000000" stroke-width="1" /><line x1="420" y1="31" x2="520" y2="31" stroke="#000000" stroke-width="1" /><line x1="520" y1="1" x2="520" y2="31" stroke="#000000" stroke-width="1" /><line x1="420" y1="1" x2="420" y2="31" stroke="#000000" stroke-width="1" /><text font-size="18" font-family="Arial" x="470" y="17" text-anchor="middle" dominant-baseline="middle" >4</text><rect x="520" y="1" height="30" width="100" fill="#cfe2f3" /><line x1="520" y1="1" x2="620" y2="1" stroke="#000000" stroke-width="1" /><line x1="520" y1="31" x2="620" y2="31" stroke="#000000" stroke-width="1" /><line x1="620" y1="1" x2="620" y2="31" stroke="#000000" stroke-width="1" /><line x1="520" y1="1" x2="520" y2="31" stroke="#000000" stroke-width="1" /><text font-size="18" font-family="Arial" x="570" y="17" text-anchor="middle" dominant-baseline="middle" >3</text><rect x="620" y="1" height="30" width="100" fill="#cfe2f3" /><line x1="620" y1="1" x2="720" y2="1" stroke="#000000" stroke-width="1" /><line x1="620" y1="31" x2="720" y2="31" stroke="#000000" stroke-width="1" /><line x1="720" y1="1" x2="720" y2="31" stroke="#000000" stroke-width="1" /><line x1="620" y1="1" x2="620" y2="31" stroke="#000000" stroke-width="1" /><text font-size="18" font-family="Arial" x="670" y="17" text-anchor="middle" dominant-baseline="middle" >2</text><rect x="720" y="1" height="30" width="100" fill="#cfe2f3" /><line x1="720" y1="1" x2="820" y2="1" stroke="#000000" stroke-width="1" /><line x1="720" y1="31" x2="820" y2="31" stroke="#000000" stroke-width="1" /><line x1="820" y1="1" x2="820" y2="31" stroke="#000000" stroke-width="1" /><line x1="720" y1="1" x2="720" y2="31" stroke="#000000" stroke-width="1" /><text font-size="18" font-family="Arial" x="770" y="17" text-anchor="middle" dominant-baseline="middle" >1</text><rect x="820" y="1" height="30" width="100" fill="#cfe2f3" /><line x1="820" y1="1" x2="920" y2="1" stroke="#000000" stroke-width="1" /><line x1="820" y1="31" x2="920" y2="31" stroke="#000000" stroke-width="1" /><line x1="920" y1="1" x2="920" y2="31" stroke="#000000" stroke-width="1" /><line x1="820" y1="1" x2="820" y2="31" stroke="#000000" stroke-width="1" /><text font-size="18" font-family="Arial" x="870" y="17" text-anchor="middle" dominant-baseline="middle" >0</text><text font-size="18" font-family="Arial" x="15" y="16" text-anchor="end" > </text><text font-size="18" font-family="Arial" x="15" y="46" text-anchor="end" > </text><line x1="20" y1="31" x2="120" y2="31" stroke="#000000" stroke-width="1" /><line x1="20" y1="61" x2="120" y2="61" stroke="#000000" stroke-width="1" /><line x1="120" y1="31" x2="120" y2="61" stroke="#000000" stroke-width="1" /><line x1="20" y1="31" x2="20" y2="61" stroke="#000000" stroke-width="1" /><text font-size="18" font-family="Arial" x="70" y="47" text-anchor="middle" dominant-baseline="middle" >1</text><line x1="120" y1="31" x2="920" y2="31" stroke="#000000" stroke-width="1" /><line x1="120" y1="61" x2="920" y2="61" stroke="#000000" stroke-width="1" /><line x1="920" y1="31" x2="920" y2="61" stroke="#000000" stroke-width="1" /><line x1="120" y1="31" x2="120" y2="61" stroke="#000000" stroke-width="1" /><text font-size="18" font-family="Arial" x="520" y="47" text-anchor="middle" dominant-baseline="middle" >Length</text><text font-size="18" font-family="Arial" x="15" y="76" text-anchor="end" > </text><line x1="20" y1="61" x2="120" y2="61" stroke="#000000" stroke-width="1" /><line x1="20" y1="91" x2="120" y2="91" stroke="#000000" stroke-width="1" /><line x1="120" y1="61" x2="120" y2="91" stroke="#000000" stroke-width="1" /><line x1="20" y1="61" x2="20" y2="91" stroke="#000000" stroke-width="1" /><text font-size="18" font-family="Arial" x="70" y="77" text-anchor="middle" dominant-baseline="middle" >2</text><line x1="120" y1="61" x2="920" y2="61" stroke="#000000" stroke-width="1" /><line x1="120" y1="91" x2="920" y2="91" stroke="#000000" stroke-width="1" /><line x1="920" y1="61" x2="920" y2="91" stroke="#000000" stroke-width="1" /><line x1="120" y1="61" x2="120" y2="91" stroke="#000000" stroke-width="1" /><text font-size="18" font-family="Arial" x="520" y="77" text-anchor="middle" dominant-baseline="middle" >Packet Type</text><text font-size="18" font-family="Arial" x="15" y="106" text-anchor="end" > </text><line x1="20" y1="91" x2="120" y2="91" stroke="#000000" stroke-width="1" /><line x1="20" y1="121" x2="120" y2="121" stroke="#000000" stroke-width="1" /><line x1="120" y1="91" x2="120" y2="121" stroke="#000000" stroke-width="1" /><line x1="20" y1="91" x2="20" y2="121" stroke="#000000" stroke-width="1" /><text font-size="18" font-family="Arial" x="70" y="107" text-anchor="middle" dominant-baseline="middle" ></text><rect x="120" y="91" height="30" width="800" fill="#dddddd" /><line x1="120" y1="91" x2="920" y2="91" stroke="#000000" stroke-width="1" /><line x1="120" y1="121" x2="920" y2="121" stroke="#000000" stroke-width="1" /><line x1="920" y1="91" x2="920" y2="121" stroke="#000000" stroke-width="1" /><line x1="120" y1="91" x2="120" y2="121" stroke="#000000" stroke-width="1" /><text font-size="18" font-family="Arial" x="520" y="107" text-anchor="middle" dominant-baseline="middle" >CONNECT FLAGS</text><text font-size="18" font-family="Arial" x="15" y="136" text-anchor="end" > </text><line x1="20" y1="121" x2="120" y2="121" stroke="#000000" stroke-width="1" /><line x1="20" y1="151" x2="120" y2="151" stroke="#000000" stroke-width="1" /><line x1="120" y1="121" x2="120" y2="151" stroke="#000000" stroke-width="1" /><line x1="20" y1="121" x2="20" y2="151" stroke="#000000" stroke-width="1" /><text font-size="18" font-family="Arial" x="70" y="137" text-anchor="middle" dominant-baseline="middle" ></text><rect x="120" y="121" height="30" width="100" fill="#eeeeee" /><line x1="120" y1="121" x2="220" y2="121" stroke="#000000" stroke-width="1" /><line x1="120" y1="151" x2="220" y2="151" stroke="#000000" stroke-width="1" /><line x1="220" y1="121" x2="220" y2="151" stroke="#000000" stroke-width="1" /><line x1="120" y1="121" x2="120" y2="151" stroke="#000000" stroke-width="1" /><text font-size="18" font-family="Arial" x="170" y="137" text-anchor="middle" dominant-baseline="middle" >Reserved</text><rect x="220" y="121" height="30" width="400" fill="#eeeeee" /><line x1="220" y1="121" x2="620" y2="121" stroke="#000000" stroke-width="1" /><line x1="220" y1="151" x2="620" y2="151" stroke="#000000" stroke-width="1" /><line x1="620" y1="121" x2="620" y2="151" stroke="#000000" stroke-width="1" /><line x1="220" y1="121" x2="220" y2="151" stroke="#000000" stroke-width="1" /><text font-size="18" font-family="Arial" x="420" y="137" text-anchor="middle" dominant-baseline="middle" >Default Awake Messages</text><rect x="620" y="121" height="30" width="100" fill="#eeeeee" /><line x1="620" y1="121" x2="720" y2="121" stroke="#000000" stroke-width="1" /><line x1="620" y1="151" x2="720" y2="151" stroke="#000000" stroke-width="1" /><line x1="720" y1="121" x2="720" y2="151" stroke="#000000" stroke-width="1" /><line x1="620" y1="121" x2="620" y2="151" stroke="#000000" stroke-width="1" /><text font-size="18" font-family="Arial" x="670" y="137" text-anchor="middle" dominant-baseline="middle" >Auth</text><rect x="720" y="121" height="30" width="100" fill="#eeeeee" /><line x1="720" y1="121" x2="820" y2="121" stroke="#000000" stroke-width="1" /><line x1="720" y1="151" x2="820" y2="151" stroke="#000000" stroke-width="1" /><line x1="820" y1="121" x2="820" y2="151" stroke="#000000" stroke-width="1" /><line x1="720" y1="121" x2="720" y2="151" stroke="#000000" stroke-width="1" /><text font-size="18" font-family="Arial" x="770" y="137" text-anchor="middle" dominant-baseline="middle" >Will</text><rect x="820" y="121" height="30" width="100" fill="#eeeeee" /><line x1="820" y1="121" x2="920" y2="121" stroke="#000000" stroke-width="1" /><line x1="820" y1="151" x2="920" y2="151" stroke="#000000" stroke-width="1" /><line x1="920" y1="121" x2="920" y2="151" stroke="#000000" stroke-width="1" /><line x1="820" y1="121" x2="820" y2="151" stroke="#000000" stroke-width="1" /><text font-size="18" font-family="Arial" x="870" y="137" text-anchor="middle" dominant-baseline="middle" >Clean Start</text><text font-size="18" font-family="Arial" x="15" y="166" text-anchor="end" > </text><line x1="20" y1="151" x2="120" y2="151" stroke="#000000" stroke-width="1" /><line x1="20" y1="181" x2="120" y2="181" stroke="#000000" stroke-width="1" /><line x1="120" y1="151" x2="120" y2="181" stroke="#000000" stroke-width="1" /><line x1="20" y1="151" x2="20" y2="181" stroke="#000000" stroke-width="1" /><text font-size="18" font-family="Arial" x="70" y="167" text-anchor="middle" dominant-baseline="middle" >3</text><line x1="120" y1="151" x2="220" y2="151" stroke="#000000" stroke-width="1" /><line x1="120" y1="181" x2="220" y2="181" stroke="#000000" stroke-width="1" /><line x1="220" y1="151" x2="220" y2="181" stroke="#000000" stroke-width="1" /><line x1="120" y1="151" x2="120" y2="181" stroke="#000000" stroke-width="1" /><text font-size="18" font-family="Arial" x="170" y="167" text-anchor="middle" dominant-baseline="middle" >0</text><line x1="220" y1="151" x2="320" y2="151" stroke="#000000" stroke-width="1" /><line x1="220" y1="181" x2="320" y2="181" stroke="#000000" stroke-width="1" /><line x1="320" y1="151" x2="320" y2="181" stroke="#000000" stroke-width="1" /><line x1="220" y1="151" x2="220" y2="181" stroke="#000000" stroke-width="1" /><text font-size="18" font-family="Arial" x="270" y="167" text-anchor="middle" dominant-baseline="middle" >X</text><line x1="320" y1="151" x2="420" y2="151" stroke="#000000" stroke-width="1" /><line x1="320" y1="181" x2="420" y2="181" stroke="#000000" stroke-width="1" /><line x1="420" y1="151" x2="420" y2="181" stroke="#000000" stroke-width="1" /><line x1="320" y1="151" x2="320" y2="181" stroke="#000000" stroke-width="1" /><text font-size="18" font-family="Arial" x="370" y="167" text-anchor="middle" dominant-baseline="middle" >X</text><line x1="420" y1="151" x2="520" y2="151" stroke="#000000" stroke-width="1" /><line x1="420" y1="181" x2="520" y2="181" stroke="#000000" stroke-width="1" /><line x1="520" y1="151" x2="520" y2="181" stroke="#000000" stroke-width="1" /><line x1="420" y1="151" x2="420" y2="181" stroke="#000000" stroke-width="1" /><text font-size="18" font-family="Arial" x="470" y="167" text-anchor="middle" dominant-baseline="middle" >X</text><line x1="520" y1="151" x2="620" y2="151" stroke="#000000" stroke-width="1" /><line x1="520" y1="181" x2="620" y2="181" stroke="#000000" stroke-width="1" /><line x1="620" y1="151" x2="620" y2="181" stroke="#000000" stroke-width="1" /><line x1="520" y1="151" x2="520" y2="181" stroke="#000000" stroke-width="1" /><text font-size="18" font-family="Arial" x="570" y="167" text-anchor="middle" dominant-baseline="middle" >X</text><line x1="620" y1="151" x2="720" y2="151" stroke="#000000" stroke-width="1" /><line x1="620" y1="181" x2="720" y2="181" stroke="#000000" stroke-width="1" /><line x1="720" y1="151" x2="720" y2="181" stroke="#000000" stroke-width="1" /><line x1="620" y1="151" x2="620" y2="181" stroke="#000000" stroke-width="1" /><text font-size="18" font-family="Arial" x="670" y="167" text-anchor="middle" dominant-baseline="middle" >X</text><line x1="720" y1="151" x2="820" y2="151" stroke="#000000" stroke-width="1" /><line x1="720" y1="181" x2="820" y2="181" stroke="#000000" stroke-width="1" /><line x1="820" y1="151" x2="820" y2="181" stroke="#000000" stroke-width="1" /><line x1="720" y1="151" x2="720" y2="181" stroke="#000000" stroke-width="1" /><text font-size="18" font-family="Arial" x="770" y="167" text-anchor="middle" dominant-baseline="middle" >X</text><line x1="820" y1="151" x2="920" y2="151" stroke="#000000" stroke-width="1" /><line x1="820" y1="181" x2="920" y2="181" stroke="#000000" stroke-width="1" /><line x1="920" y1="151" x2="920" y2="181" stroke="#000000" stroke-width="1" /><line x1="820" y1="151" x2="820" y2="181" stroke="#000000" stroke-width="1" /><text font-size="18" font-family="Arial" x="870" y="167" text-anchor="middle" dominant-baseline="middle" >X</text><text font-size="18" font-family="Arial" x="15" y="196" text-anchor="end" > </text><line x1="20" y1="181" x2="120" y2="181" stroke="#000000" stroke-width="1" /><line x1="20" y1="211" x2="120" y2="211" stroke="#000000" stroke-width="1" /><line x1="120" y1="181" x2="120" y2="211" stroke="#000000" stroke-width="1" /><line x1="20" y1="181" x2="20" y2="211" stroke="#000000" stroke-width="1" /><text font-size="18" font-family="Arial" x="70" y="197" text-anchor="middle" dominant-baseline="middle" ></text><rect x="120" y="181" height="30" width="800" fill="#dddddd" /><line x1="120" y1="181" x2="920" y2="181" stroke="#000000" stroke-width="1" /><line x1="120" y1="211" x2="920" y2="211" stroke="#000000" stroke-width="1" /><line x1="920" y1="181" x2="920" y2="211" stroke="#000000" stroke-width="1" /><line x1="120" y1="181" x2="120" y2="211" stroke="#000000" stroke-width="1" /><text font-size="18" font-family="Arial" x="520" y="197" text-anchor="middle" dominant-baseline="middle" >WILL FLAGS<tspan font-style="italic" font-size="18" font-family="Arial" dominant-baseline="middle" >[OPT] (ONLY WHEN WILL FLAG SET)</tspan></text><text font-size="18" font-family="Arial" x="15" y="226" text-anchor="end" > </text><line x1="20" y1="211" x2="120" y2="211" stroke="#000000" stroke-width="1" /><line x1="20" y1="241" x2="120" y2="241" stroke="#000000" stroke-width="1" /><line x1="120" y1="211" x2="120" y2="241" stroke="#000000" stroke-width="1" /><line x1="20" y1="211" x2="20" y2="241" stroke="#000000" stroke-width="1" /><text font-size="18" font-family="Arial" x="70" y="227" text-anchor="middle" dominant-baseline="middle" ></text><rect x="120" y="211" height="30" width="300" fill="#eeeeee" /><line x1="120" y1="211" x2="420" y2="211" stroke="#000000" stroke-width="1" /><line x1="120" y1="241" x2="420" y2="241" stroke="#000000" stroke-width="1" /><line x1="420" y1="211" x2="420" y2="241" stroke="#000000" stroke-width="1" /><line x1="120" y1="211" x2="120" y2="241" stroke="#000000" stroke-width="1" /><text font-size="18" font-family="Arial" x="270" y="227" text-anchor="middle" dominant-baseline="middle" >Reserved</text><rect x="420" y="211" height="30" width="100" fill="#eeeeee" /><line x1="420" y1="211" x2="520" y2="211" stroke="#000000" stroke-width="1" /><line x1="420" y1="241" x2="520" y2="241" stroke="#000000" stroke-width="1" /><line x1="520" y1="211" x2="520" y2="241" stroke="#000000" stroke-width="1" /><line x1="420" y1="211" x2="420" y2="241" stroke="#000000" stroke-width="1" /><text font-size="18" font-family="Arial" x="470" y="227" text-anchor="middle" dominant-baseline="middle" >Wil Retain</text><rect x="520" y="211" height="30" width="200" fill="#eeeeee" /><line x1="520" y1="211" x2="720" y2="211" stroke="#000000" stroke-width="1" /><line x1="520" y1="241" x2="720" y2="241" stroke="#000000" stroke-width="1" /><line x1="720" y1="211" x2="720" y2="241" stroke="#000000" stroke-width="1" /><line x1="520" y1="211" x2="520" y2="241" stroke="#000000" stroke-width="1" /><text font-size="18" font-family="Arial" x="620" y="227" text-anchor="middle" dominant-baseline="middle" >Will QoS</text><rect x="720" y="211" height="30" width="200" fill="#eeeeee" /><line x1="720" y1="211" x2="920" y2="211" stroke="#000000" stroke-width="1" /><line x1="720" y1="241" x2="920" y2="241" stroke="#000000" stroke-width="1" /><line x1="920" y1="211" x2="920" y2="241" stroke="#000000" stroke-width="1" /><line x1="720" y1="211" x2="720" y2="241" stroke="#000000" stroke-width="1" /><text font-size="18" font-family="Arial" x="820" y="227" text-anchor="middle" dominant-baseline="middle" >Will Topic Type</text><text font-size="18" font-family="Arial" x="15" y="256" text-anchor="end" > </text><rect x="20" y="241" height="30" width="100" fill="#eeeeee" /><line x1="20" y1="241" x2="120" y2="241" stroke="#000000" stroke-width="1" /><line x1="20" y1="271" x2="120" y2="271" stroke="#000000" stroke-width="1" /><line x1="120" y1="241" x2="120" y2="271" stroke="#000000" stroke-width="1" /><line x1="20" y1="241" x2="20" y2="271" stroke="#000000" stroke-width="1" /><text font-size="18" font-family="Arial" x="70" y="257" text-anchor="middle" dominant-baseline="middle" >3+1</text><rect x="120" y="241" height="30" width="100" fill="#eeeeee" /><line x1="120" y1="241" x2="220" y2="241" stroke="#000000" stroke-width="1" /><line x1="120" y1="271" x2="220" y2="271" stroke="#000000" stroke-width="1" /><line x1="220" y1="241" x2="220" y2="271" stroke="#000000" stroke-width="1" /><line x1="120" y1="241" x2="120" y2="271" stroke="#000000" stroke-width="1" /><text font-size="18" font-family="Arial" x="170" y="257" text-anchor="middle" dominant-baseline="middle" >0</text><rect x="220" y="241" height="30" width="100" fill="#eeeeee" /><line x1="220" y1="241" x2="320" y2="241" stroke="#000000" stroke-width="1" /><line x1="220" y1="271" x2="320" y2="271" stroke="#000000" stroke-width="1" /><line x1="320" y1="241" x2="320" y2="271" stroke="#000000" stroke-width="1" /><line x1="220" y1="241" x2="220" y2="271" stroke="#000000" stroke-width="1" /><text font-size="18" font-family="Arial" x="270" y="257" text-anchor="middle" dominant-baseline="middle" >0</text><rect x="320" y="241" height="30" width="100" fill="#eeeeee" /><line x1="320" y1="241" x2="420" y2="241" stroke="#000000" stroke-width="1" /><line x1="320" y1="271" x2="420" y2="271" stroke="#000000" stroke-width="1" /><line x1="420" y1="241" x2="420" y2="271" stroke="#000000" stroke-width="1" /><line x1="320" y1="241" x2="320" y2="271" stroke="#000000" stroke-width="1" /><text font-size="18" font-family="Arial" x="370" y="257" text-anchor="middle" dominant-baseline="middle" >0</text><rect x="420" y="241" height="30" width="100" fill="#eeeeee" /><line x1="420" y1="241" x2="520" y2="241" stroke="#000000" stroke-width="1" /><line x1="420" y1="271" x2="520" y2="271" stroke="#000000" stroke-width="1" /><line x1="520" y1="241" x2="520" y2="271" stroke="#000000" stroke-width="1" /><line x1="420" y1="241" x2="420" y2="271" stroke="#000000" stroke-width="1" /><text font-size="18" font-family="Arial" x="470" y="257" text-anchor="middle" dominant-baseline="middle" >X</text><rect x="520" y="241" height="30" width="100" fill="#eeeeee" /><line x1="520" y1="241" x2="620" y2="241" stroke="#000000" stroke-width="1" /><line x1="520" y1="271" x2="620" y2="271" stroke="#000000" stroke-width="1" /><line x1="620" y1="241" x2="620" y2="271" stroke="#000000" stroke-width="1" /><line x1="520" y1="241" x2="520" y2="271" stroke="#000000" stroke-width="1" /><text font-size="18" font-family="Arial" x="570" y="257" text-anchor="middle" dominant-baseline="middle" >X</text><rect x="620" y="241" height="30" width="100" fill="#eeeeee" /><line x1="620" y1="241" x2="720" y2="241" stroke="#000000" stroke-width="1" /><line x1="620" y1="271" x2="720" y2="271" stroke="#000000" stroke-width="1" /><line x1="720" y1="241" x2="720" y2="271" stroke="#000000" stroke-width="1" /><line x1="620" y1="241" x2="620" y2="271" stroke="#000000" stroke-width="1" /><text font-size="18" font-family="Arial" x="670" y="257" text-anchor="middle" dominant-baseline="middle" >X</text><rect x="720" y="241" height="30" width="100" fill="#eeeeee" /><line x1="720" y1="241" x2="820" y2="241" stroke="#000000" stroke-width="1" /><line x1="720" y1="271" x2="820" y2="271" stroke="#000000" stroke-width="1" /><line x1="820" y1="241" x2="820" y2="271" stroke="#000000" stroke-width="1" /><line x1="720" y1="241" x2="720" y2="271" stroke="#000000" stroke-width="1" /><text font-size="18" font-family="Arial" x="770" y="257" text-anchor="middle" dominant-baseline="middle" >X</text><rect x="820" y="241" height="30" width="100" fill="#eeeeee" /><line x1="820" y1="241" x2="920" y2="241" stroke="#000000" stroke-width="1" /><line x1="820" y1="271" x2="920" y2="271" stroke="#000000" stroke-width="1" /><line x1="920" y1="241" x2="920" y2="271" stroke="#000000" stroke-width="1" /><line x1="820" y1="241" x2="820" y2="271" stroke="#000000" stroke-width="1" /><text font-size="18" font-family="Arial" x="870" y="257" text-anchor="middle" dominant-baseline="middle" >X</text><text font-size="18" font-family="Arial" x="15" y="286" text-anchor="end" > </text><line x1="20" y1="271" x2="120" y2="271" stroke="#000000" stroke-width="1" /><line x1="20" y1="301" x2="120" y2="301" stroke="#000000" stroke-width="1" /><line x1="120" y1="271" x2="120" y2="301" stroke="#000000" stroke-width="1" /><line x1="20" y1="271" x2="20" y2="301" stroke="#000000" stroke-width="1" /><text font-size="18" font-family="Arial" x="70" y="287" text-anchor="middle" dominant-baseline="middle" >Z</text><line x1="120" y1="271" x2="920" y2="271" stroke="#000000" stroke-width="1" /><line x1="120" y1="301" x2="920" y2="301" stroke="#000000" stroke-width="1" /><line x1="920" y1="271" x2="920" y2="301" stroke="#000000" stroke-width="1" /><line x1="120" y1="271" x2="120" y2="301" stroke="#000000" stroke-width="1" /><text font-size="18" font-family="Arial" x="520" y="287" text-anchor="middle" dominant-baseline="middle" >Packet Identifier MSB (Z=5 if will flag else 4)</text><text font-size="18" font-family="Arial" x="15" y="316" text-anchor="end" > </text><line x1="20" y1="301" x2="120" y2="301" stroke="#000000" stroke-width="1" /><line x1="20" y1="331" x2="120" y2="331" stroke="#000000" stroke-width="1" /><line x1="120" y1="301" x2="120" y2="331" stroke="#000000" stroke-width="1" /><line x1="20" y1="301" x2="20" y2="331" stroke="#000000" stroke-width="1" /><text font-size="18" font-family="Arial" x="70" y="317" text-anchor="middle" dominant-baseline="middle" >Z+1</text><line x1="120" y1="301" x2="920" y2="301" stroke="#000000" stroke-width="1" /><line x1="120" y1="331" x2="920" y2="331" stroke="#000000" stroke-width="1" /><line x1="920" y1="301" x2="920" y2="331" stroke="#000000" stroke-width="1" /><line x1="120" y1="301" x2="120" y2="331" stroke="#000000" stroke-width="1" /><text font-size="18" font-family="Arial" x="520" y="317" text-anchor="middle" dominant-baseline="middle" >Packet Identifier LSB</text><text font-size="18" font-family="Arial" x="15" y="346" text-anchor="end" > </text><line x1="20" y1="331" x2="120" y2="331" stroke="#000000" stroke-width="1" /><line x1="20" y1="361" x2="120" y2="361" stroke="#000000" stroke-width="1" /><line x1="120" y1="331" x2="120" y2="361" stroke="#000000" stroke-width="1" /><line x1="20" y1="331" x2="20" y2="361" stroke="#000000" stroke-width="1" /><text font-size="18" font-family="Arial" x="70" y="347" text-anchor="middle" dominant-baseline="middle" >Z+2</text><line x1="120" y1="331" x2="920" y2="331" stroke="#000000" stroke-width="1" /><line x1="120" y1="361" x2="920" y2="361" stroke="#000000" stroke-width="1" /><line x1="920" y1="331" x2="920" y2="361" stroke="#000000" stroke-width="1" /><line x1="120" y1="331" x2="120" y2="361" stroke="#000000" stroke-width="1" /><text font-size="18" font-family="Arial" x="520" y="347" text-anchor="middle" dominant-baseline="middle" >Protocol Version</text><text font-size="18" font-family="Arial" x="15" y="376" text-anchor="end" > </text><line x1="20" y1="361" x2="120" y2="361" stroke="#000000" stroke-width="1" /><line x1="20" y1="391" x2="120" y2="391" stroke="#000000" stroke-width="1" /><line x1="120" y1="361" x2="120" y2="391" stroke="#000000" stroke-width="1" /><line x1="20" y1="361" x2="20" y2="391" stroke="#000000" stroke-width="1" /><text font-size="18" font-family="Arial" x="70" y="377" text-anchor="middle" dominant-baseline="middle" >Z+3</text><line x1="120" y1="361" x2="920" y2="361" stroke="#000000" stroke-width="1" /><line x1="120" y1="391" x2="920" y2="391" stroke="#000000" stroke-width="1" /><line x1="920" y1="361" x2="920" y2="391" stroke="#000000" stroke-width="1" /><line x1="120" y1="361" x2="120" y2="391" stroke="#000000" stroke-width="1" /><text font-size="18" font-family="Arial" x="520" y="377" text-anchor="middle" dominant-baseline="middle" >Keep Alive MSB</text><text font-size="18" font-family="Arial" x="15" y="406" text-anchor="end" > </text><line x1="20" y1="391" x2="120" y2="391" stroke="#000000" stroke-width="1" /><line x1="20" y1="421" x2="120" y2="421" stroke="#000000" stroke-width="1" /><line x1="120" y1="391" x2="120" y2="421" stroke="#000000" stroke-width="1" /><line x1="20" y1="391" x2="20" y2="421" stroke="#000000" stroke-width="1" /><text font-size="18" font-family="Arial" x="70" y="407" text-anchor="middle" dominant-baseline="middle" >Z+4</text><line x1="120" y1="391" x2="920" y2="391" stroke="#000000" stroke-width="1" /><line x1="120" y1="421" x2="920" y2="421" stroke="#000000" stroke-width="1" /><line x1="920" y1="391" x2="920" y2="421" stroke="#000000" stroke-width="1" /><line x1="120" y1="391" x2="120" y2="421" stroke="#000000" stroke-width="1" /><text font-size="18" font-family="Arial" x="520" y="407" text-anchor="middle" dominant-baseline="middle" >Keep Alive LSB</text><text font-size="18" font-family="Arial" x="15" y="436" text-anchor="end" > </text><line x1="20" y1="421" x2="120" y2="421" stroke="#000000" stroke-width="1" /><line x1="20" y1="451" x2="120" y2="451" stroke="#000000" stroke-width="1" /><line x1="120" y1="421" x2="120" y2="451" stroke="#000000" stroke-width="1" /><line x1="20" y1="421" x2="20" y2="451" stroke="#000000" stroke-width="1" /><text font-size="18" font-family="Arial" x="70" y="437" text-anchor="middle" dominant-baseline="middle" >Z+5</text><line x1="120" y1="421" x2="920" y2="421" stroke="#000000" stroke-width="1" /><line x1="120" y1="451" x2="920" y2="451" stroke="#000000" stroke-width="1" /><line x1="920" y1="421" x2="920" y2="451" stroke="#000000" stroke-width="1" /><line x1="120" y1="421" x2="120" y2="451" stroke="#000000" stroke-width="1" /><text font-size="18" font-family="Arial" x="520" y="437" text-anchor="middle" dominant-baseline="middle" >Session Expiry Interval MSB</text><text font-size="18" font-family="Arial" x="15" y="466" text-anchor="end" > </text><line x1="20" y1="451" x2="120" y2="451" stroke="#000000" stroke-width="1" /><line x1="20" y1="481" x2="120" y2="481" stroke="#000000" stroke-width="1" /><line x1="120" y1="451" x2="120" y2="481" stroke="#000000" stroke-width="1" /><line x1="20" y1="451" x2="20" y2="481" stroke="#000000" stroke-width="1" /><text font-size="18" font-family="Arial" x="70" y="467" text-anchor="middle" dominant-baseline="middle" >Z+6</text><line x1="120" y1="451" x2="920" y2="451" stroke="#000000" stroke-width="1" /><line x1="120" y1="481" x2="920" y2="481" stroke="#000000" stroke-width="1" /><line x1="920" y1="451" x2="920" y2="481" stroke="#000000" stroke-width="1" /><line x1="120" y1="451" x2="120" y2="481" stroke="#000000" stroke-width="1" /><text font-size="18" font-family="Arial" x="520" y="467" text-anchor="middle" dominant-baseline="middle" >Session Expiry Interval</text><text font-size="18" font-family="Arial" x="15" y="496" text-anchor="end" > </text><line x1="20" y1="481" x2="120" y2="481" stroke="#000000" stroke-width="1" /><line x1="20" y1="511" x2="120" y2="511" stroke="#000000" stroke-width="1" /><line x1="120" y1="481" x2="120" y2="511" stroke="#000000" stroke-width="1" /><line x1="20" y1="481" x2="20" y2="511" stroke="#000000" stroke-width="1" /><text font-size="18" font-family="Arial" x="70" y="497" text-anchor="middle" dominant-baseline="middle" >Z+7</text><line x1="120" y1="481" x2="920" y2="481" stroke="#000000" stroke-width="1" /><line x1="120" y1="511" x2="920" y2="511" stroke="#000000" stroke-width="1" /><line x1="920" y1="481" x2="920" y2="511" stroke="#000000" stroke-width="1" /><line x1="120" y1="481" x2="120" y2="511" stroke="#000000" stroke-width="1" /><text font-size="18" font-family="Arial" x="520" y="497" text-anchor="middle" dominant-baseline="middle" >Session Expiry Interval</text><text font-size="18" font-family="Arial" x="15" y="526" text-anchor="end" > </text><line x1="20" y1="511" x2="120" y2="511" stroke="#000000" stroke-width="1" /><line x1="20" y1="541" x2="120" y2="541" stroke="#000000" stroke-width="1" /><line x1="120" y1="511" x2="120" y2="541" stroke="#000000" stroke-width="1" /><line x1="20" y1="511" x2="20" y2="541" stroke="#000000" stroke-width="1" /><text font-size="18" font-family="Arial" x="70" y="527" text-anchor="middle" dominant-baseline="middle" >Z+8</text><line x1="120" y1="511" x2="920" y2="511" stroke="#000000" stroke-width="1" /><line x1="120" y1="541" x2="920" y2="541" stroke="#000000" stroke-width="1" /><line x1="920" y1="511" x2="920" y2="541" stroke="#000000" stroke-width="1" /><line x1="120" y1="511" x2="120" y2="541" stroke="#000000" stroke-width="1" /><text font-size="18" font-family="Arial" x="520" y="527" text-anchor="middle" dominant-baseline="middle" >Session Expiry Interval LSB</text><text font-size="18" font-family="Arial" x="15" y="556" text-anchor="end" > </text><line x1="20" y1="541" x2="120" y2="541" stroke="#000000" stroke-width="1" /><line x1="20" y1="571" x2="120" y2="571" stroke="#000000" stroke-width="1" /><line x1="120" y1="541" x2="120" y2="571" stroke="#000000" stroke-width="1" /><line x1="20" y1="541" x2="20" y2="571" stroke="#000000" stroke-width="1" /><text font-size="18" font-family="Arial" x="70" y="557" text-anchor="middle" dominant-baseline="middle" >Z+9</text><line x1="120" y1="541" x2="920" y2="541" stroke="#000000" stroke-width="1" /><line x1="120" y1="571" x2="920" y2="571" stroke="#000000" stroke-width="1" /><line x1="920" y1="541" x2="920" y2="571" stroke="#000000" stroke-width="1" /><line x1="120" y1="541" x2="120" y2="571" stroke="#000000" stroke-width="1" /><text font-size="18" font-family="Arial" x="520" y="557" text-anchor="middle" dominant-baseline="middle" >Max Packet Size MSB</text><text font-size="18" font-family="Arial" x="15" y="586" text-anchor="end" > </text><line x1="20" y1="571" x2="120" y2="571" stroke="#000000" stroke-width="1" /><line x1="20" y1="601" x2="120" y2="601" stroke="#000000" stroke-width="1" /><line x1="120" y1="571" x2="120" y2="601" stroke="#000000" stroke-width="1" /><line x1="20" y1="571" x2="20" y2="601" stroke="#000000" stroke-width="1" /><text font-size="18" font-family="Arial" x="70" y="587" text-anchor="middle" dominant-baseline="middle" >Z+10</text><line x1="120" y1="571" x2="920" y2="571" stroke="#000000" stroke-width="1" /><line x1="120" y1="601" x2="920" y2="601" stroke="#000000" stroke-width="1" /><line x1="920" y1="571" x2="920" y2="601" stroke="#000000" stroke-width="1" /><line x1="120" y1="571" x2="120" y2="601" stroke="#000000" stroke-width="1" /><text font-size="18" font-family="Arial" x="520" y="587" text-anchor="middle" dominant-baseline="middle" >Max Packet Size LSB</text><text font-size="18" font-family="Arial" x="15" y="616" text-anchor="end" > </text><line x1="20" y1="601" x2="120" y2="601" stroke="#000000" stroke-width="1" /><line x1="20" y1="631" x2="120" y2="631" stroke="#000000" stroke-width="1" /><line x1="120" y1="601" x2="120" y2="631" stroke="#000000" stroke-width="1" /><line x1="20" y1="601" x2="20" y2="631" stroke="#000000" stroke-width="1" /><text font-size="18" font-family="Arial" x="70" y="617" text-anchor="middle" dominant-baseline="middle" ></text><rect x="120" y="601" height="30" width="800" fill="#dddddd" /><line x1="120" y1="601" x2="920" y2="601" stroke="#000000" stroke-width="1" /><line x1="120" y1="631" x2="920" y2="631" stroke="#000000" stroke-width="1" /><line x1="920" y1="601" x2="920" y2="631" stroke="#000000" stroke-width="1" /><line x1="120" y1="601" x2="120" y2="631" stroke="#000000" stroke-width="1" /><text font-size="18" font-family="Arial" x="520" y="617" text-anchor="middle" dominant-baseline="middle" >WILL DATA<tspan font-style="italic" font-size="18" font-family="Arial" dominant-baseline="middle" >[OPT] (ONLY WHEN WILL FLAG SET Q=Z+11)</tspan></text><text font-size="18" font-family="Arial" x="15" y="646" text-anchor="end" > </text><rect x="20" y="631" height="30" width="100" fill="#eeeeee" /><line x1="20" y1="631" x2="120" y2="631" stroke="#000000" stroke-width="1" /><line x1="20" y1="661" x2="120" y2="661" stroke="#000000" stroke-width="1" /><line x1="120" y1="631" x2="120" y2="661" stroke="#000000" stroke-width="1" /><line x1="20" y1="631" x2="20" y2="661" stroke="#000000" stroke-width="1" /><text font-size="18" font-family="Arial" x="70" y="647" text-anchor="middle" dominant-baseline="middle" >Q</text><rect x="120" y="631" height="30" width="800" fill="#eeeeee" /><line x1="120" y1="631" x2="920" y2="631" stroke="#000000" stroke-width="1" /><line x1="120" y1="661" x2="920" y2="661" stroke="#000000" stroke-width="1" /><line x1="920" y1="631" x2="920" y2="661" stroke="#000000" stroke-width="1" /><line x1="120" y1="631" x2="120" y2="661" stroke="#000000" stroke-width="1" /><text font-size="18" font-family="Arial" x="520" y="647" text-anchor="middle" dominant-baseline="middle" >Will Topic Data MSB</text><text font-size="18" font-family="Arial" x="15" y="676" text-anchor="end" > </text><rect x="20" y="661" height="30" width="100" fill="#eeeeee" /><line x1="20" y1="661" x2="120" y2="661" stroke="#000000" stroke-width="1" /><line x1="20" y1="691" x2="120" y2="691" stroke="#000000" stroke-width="1" /><line x1="120" y1="661" x2="120" y2="691" stroke="#000000" stroke-width="1" /><line x1="20" y1="661" x2="20" y2="691" stroke="#000000" stroke-width="1" /><text font-size="18" font-family="Arial" x="70" y="677" text-anchor="middle" dominant-baseline="middle" >Q+1</text><rect x="120" y="661" height="30" width="800" fill="#eeeeee" /><line x1="120" y1="661" x2="920" y2="661" stroke="#000000" stroke-width="1" /><line x1="120" y1="691" x2="920" y2="691" stroke="#000000" stroke-width="1" /><line x1="920" y1="661" x2="920" y2="691" stroke="#000000" stroke-width="1" /><line x1="120" y1="661" x2="120" y2="691" stroke="#000000" stroke-width="1" /><text font-size="18" font-family="Arial" x="520" y="677" text-anchor="middle" dominant-baseline="middle" >Will Topic Data LSB</text><text font-size="18" font-family="Arial" x="15" y="706" text-anchor="end" > </text><rect x="20" y="691" height="30" width="100" fill="#eeeeee" /><line x1="20" y1="691" x2="120" y2="691" stroke="#000000" stroke-width="1" /><line x1="20" y1="721" x2="120" y2="721" stroke="#000000" stroke-width="1" /><line x1="120" y1="691" x2="120" y2="721" stroke="#000000" stroke-width="1" /><line x1="20" y1="691" x2="20" y2="721" stroke="#000000" stroke-width="1" /><text font-size="18" font-family="Arial" x="70" y="707" text-anchor="middle" dominant-baseline="middle" >Q+2</text><rect x="120" y="691" height="30" width="800" fill="#eeeeee" /><line x1="120" y1="691" x2="920" y2="691" stroke="#000000" stroke-width="1" /><line x1="120" y1="721" x2="920" y2="721" stroke="#000000" stroke-width="1" /><line x1="920" y1="691" x2="920" y2="721" stroke="#000000" stroke-width="1" /><line x1="120" y1="691" x2="120" y2="721" stroke="#000000" stroke-width="1" /><text font-size="18" font-family="Arial" x="520" y="707" text-anchor="middle" dominant-baseline="middle" >Will Payload Length MSB</text><text font-size="18" font-family="Arial" x="15" y="736" text-anchor="end" > </text><rect x="20" y="721" height="30" width="100" fill="#eeeeee" /><line x1="20" y1="721" x2="120" y2="721" stroke="#000000" stroke-width="1" /><line x1="20" y1="751" x2="120" y2="751" stroke="#000000" stroke-width="1" /><line x1="120" y1="721" x2="120" y2="751" stroke="#000000" stroke-width="1" /><line x1="20" y1="721" x2="20" y2="751" stroke="#000000" stroke-width="1" /><text font-size="18" font-family="Arial" x="70" y="737" text-anchor="middle" dominant-baseline="middle" >Q+3</text><rect x="120" y="721" height="30" width="800" fill="#eeeeee" /><line x1="120" y1="721" x2="920" y2="721" stroke="#000000" stroke-width="1" /><line x1="120" y1="751" x2="920" y2="751" stroke="#000000" stroke-width="1" /><line x1="920" y1="721" x2="920" y2="751" stroke="#000000" stroke-width="1" /><line x1="120" y1="721" x2="120" y2="751" stroke="#000000" stroke-width="1" /><text font-size="18" font-family="Arial" x="520" y="737" text-anchor="middle" dominant-baseline="middle" >Will Payload Length LSB</text><text font-size="18" font-family="Arial" x="15" y="766" text-anchor="end" > </text><rect x="20" y="751" height="30" width="100" fill="#eeeeee" /><line x1="20" y1="751" x2="120" y2="751" stroke="#000000" stroke-width="1" /><line x1="20" y1="781" x2="120" y2="781" stroke="#000000" stroke-width="1" /><line x1="120" y1="751" x2="120" y2="781" stroke="#000000" stroke-width="1" /><line x1="20" y1="751" x2="20" y2="781" stroke="#000000" stroke-width="1" /><text font-size="18" font-family="Arial" x="70" y="767" text-anchor="middle" dominant-baseline="middle" >Q+4:P</text><line x1="120" y1="751" x2="920" y2="751" stroke="#000000" stroke-width="1" /><line x1="920" y1="751" x2="920" y2="781" stroke="#000000" stroke-width="1" /><line x1="120" y1="751" x2="120" y2="781" stroke="#000000" stroke-width="1" /><text font-size="18" font-family="Arial" x="520" y="767" text-anchor="middle" dominant-baseline="middle" >Will Payload Or (Will Topic Name + Will Payload) (P=Q+3+K, length K)</text><text font-size="18" font-family="Arial" x="15" y="796" text-anchor="end" > </text><line x1="20" y1="781" x2="20" y2="796" stroke="#000000" stroke-width="1" /><line x1="920" y1="781" x2="920" y2="796" stroke="#000000" stroke-width="1" /><line stroke-dasharray="1,1" x1="20" y1="796" x2="920" y2="826" stroke="#000000" stroke-width="1" /><line x1="920" y1="781" x2="920" y2="826" stroke="#000000" stroke-width="1" /><line stroke-dasharray="1,1" x1="20" y1="806" x2="920" y2="836" stroke="#000000" stroke-width="1" /><line x1="20" y1="806" x2="20" y2="836" stroke="#000000" stroke-width="1" /><line x1="20" y1="836" x2="20" y2="851" stroke="#000000" stroke-width="1" /><line x1="920" y1="836" x2="920" y2="851" stroke="#000000" stroke-width="1" /><text font-size="18" font-family="Arial" x="15" y="866" text-anchor="end" > </text><line x1="20" y1="851" x2="120" y2="851" stroke="#000000" stroke-width="1" /><line x1="20" y1="881" x2="120" y2="881" stroke="#000000" stroke-width="1" /><line x1="120" y1="851" x2="120" y2="881" stroke="#000000" stroke-width="1" /><line x1="20" y1="851" x2="20" y2="881" stroke="#000000" stroke-width="1" /><text font-size="18" font-family="Arial" x="70" y="867" text-anchor="middle" dominant-baseline="middle" ></text><rect x="120" y="851" height="30" width="800" fill="#dddddd" /><line x1="120" y1="851" x2="920" y2="851" stroke="#000000" stroke-width="1" /><line x1="120" y1="881" x2="920" y2="881" stroke="#000000" stroke-width="1" /><line x1="920" y1="851" x2="920" y2="881" stroke="#000000" stroke-width="1" /><line x1="120" y1="851" x2="120" y2="881" stroke="#000000" stroke-width="1" /><text font-size="18" font-family="Arial" x="520" y="867" text-anchor="middle" dominant-baseline="middle" >AUTH DATA<tspan font-style="italic" font-size="18" font-family="Arial" dominant-baseline="middle" >[OPT] (ONLY WHEN AUTH FLAG SET R=P+1)</tspan></text><text font-size="18" font-family="Arial" x="15" y="866" text-anchor="end" > </text><text font-size="18" font-family="Arial" x="15" y="896" text-anchor="end" > </text><rect x="20" y="881" height="30" width="100" fill="#eeeeee" /><line x1="20" y1="881" x2="120" y2="881" stroke="#000000" stroke-width="1" /><line x1="20" y1="911" x2="120" y2="911" stroke="#000000" stroke-width="1" /><line x1="120" y1="881" x2="120" y2="911" stroke="#000000" stroke-width="1" /><line x1="20" y1="881" x2="20" y2="911" stroke="#000000" stroke-width="1" /><text font-size="18" font-family="Arial" x="70" y="897" text-anchor="middle" dominant-baseline="middle" >R</text><rect x="120" y="881" height="30" width="800" fill="#eeeeee" /><line x1="120" y1="881" x2="920" y2="881" stroke="#000000" stroke-width="1" /><line x1="120" y1="911" x2="920" y2="911" stroke="#000000" stroke-width="1" /><line x1="920" y1="881" x2="920" y2="911" stroke="#000000" stroke-width="1" /><line x1="120" y1="881" x2="120" y2="911" stroke="#000000" stroke-width="1" /><text font-size="18" font-family="Arial" x="520" y="897" text-anchor="middle" dominant-baseline="middle" >Auth Method Length</text><text font-size="18" font-family="Arial" x="15" y="926" text-anchor="end" > </text><rect x="20" y="911" height="30" width="100" fill="#eeeeee" /><line x1="20" y1="911" x2="120" y2="911" stroke="#000000" stroke-width="1" /><line x1="20" y1="941" x2="120" y2="941" stroke="#000000" stroke-width="1" /><line x1="120" y1="911" x2="120" y2="941" stroke="#000000" stroke-width="1" /><line x1="20" y1="911" x2="20" y2="941" stroke="#000000" stroke-width="1" /><text font-size="18" font-family="Arial" x="70" y="927" text-anchor="middle" dominant-baseline="middle" >R+1</text><rect x="120" y="911" height="30" width="800" fill="#eeeeee" /><line x1="120" y1="911" x2="920" y2="911" stroke="#000000" stroke-width="1" /><line x1="120" y1="941" x2="920" y2="941" stroke="#000000" stroke-width="1" /><line x1="920" y1="911" x2="920" y2="941" stroke="#000000" stroke-width="1" /><line x1="120" y1="911" x2="120" y2="941" stroke="#000000" stroke-width="1" /><text font-size="18" font-family="Arial" x="520" y="927" text-anchor="middle" dominant-baseline="middle" >Auth Method</text><text font-size="18" font-family="Arial" x="15" y="956" text-anchor="end" > </text><rect x="20" y="941" height="30" width="100" fill="#eeeeee" /><line x1="20" y1="941" x2="120" y2="941" stroke="#000000" stroke-width="1" /><line x1="20" y1="971" x2="120" y2="971" stroke="#000000" stroke-width="1" /><line x1="120" y1="941" x2="120" y2="971" stroke="#000000" stroke-width="1" /><line x1="20" y1="941" x2="20" y2="971" stroke="#000000" stroke-width="1" /><text font-size="18" font-family="Arial" x="70" y="957" text-anchor="middle" dominant-baseline="middle" >R+2</text><rect x="120" y="941" height="30" width="800" fill="#eeeeee" /><line x1="120" y1="941" x2="920" y2="941" stroke="#000000" stroke-width="1" /><line x1="120" y1="971" x2="920" y2="971" stroke="#000000" stroke-width="1" /><line x1="920" y1="941" x2="920" y2="971" stroke="#000000" stroke-width="1" /><line x1="120" y1="941" x2="120" y2="971" stroke="#000000" stroke-width="1" /><text font-size="18" font-family="Arial" x="520" y="957" text-anchor="middle" dominant-baseline="middle" >Auth Data Length MSB</text><text font-size="18" font-family="Arial" x="15" y="986" text-anchor="end" > </text><rect x="20" y="971" height="30" width="100" fill="#eeeeee" /><line x1="20" y1="971" x2="120" y2="971" stroke="#000000" stroke-width="1" /><line x1="20" y1="1001" x2="120" y2="1001" stroke="#000000" stroke-width="1" /><line x1="120" y1="971" x2="120" y2="1001" stroke="#000000" stroke-width="1" /><line x1="20" y1="971" x2="20" y2="1001" stroke="#000000" stroke-width="1" /><text font-size="18" font-family="Arial" x="70" y="987" text-anchor="middle" dominant-baseline="middle" >R+3</text><rect x="120" y="971" height="30" width="800" fill="#eeeeee" /><line x1="120" y1="971" x2="920" y2="971" stroke="#000000" stroke-width="1" /><line x1="120" y1="1001" x2="920" y2="1001" stroke="#000000" stroke-width="1" /><line x1="920" y1="971" x2="920" y2="1001" stroke="#000000" stroke-width="1" /><line x1="120" y1="971" x2="120" y2="1001" stroke="#000000" stroke-width="1" /><text font-size="18" font-family="Arial" x="520" y="987" text-anchor="middle" dominant-baseline="middle" >Auth Data Length LSB</text><text font-size="18" font-family="Arial" x="15" y="1016" text-anchor="end" > </text><rect x="20" y="1001" height="30" width="100" fill="#eeeeee" /><line x1="20" y1="1001" x2="120" y2="1001" stroke="#000000" stroke-width="1" /><line x1="20" y1="1031" x2="120" y2="1031" stroke="#000000" stroke-width="1" /><line x1="120" y1="1001" x2="120" y2="1031" stroke="#000000" stroke-width="1" /><line x1="20" y1="1001" x2="20" y2="1031" stroke="#000000" stroke-width="1" /><text font-size="18" font-family="Arial" x="70" y="1017" text-anchor="middle" dominant-baseline="middle" >R+4:S</text><line x1="120" y1="1001" x2="920" y2="1001" stroke="#000000" stroke-width="1" /><line x1="920" y1="1001" x2="920" y2="1031" stroke="#000000" stroke-width="1" /><line x1="120" y1="1001" x2="120" y2="1031" stroke="#000000" stroke-width="1" /><text font-size="18" font-family="Arial" x="520" y="1017" text-anchor="middle" dominant-baseline="middle" >Auth Data (K=0, L) (S=P+3+L, length L)</text><text font-size="18" font-family="Arial" x="15" y="1046" text-anchor="end" > </text><line x1="20" y1="1031" x2="20" y2="1046" stroke="#000000" stroke-width="1" /><line x1="920" y1="1031" x2="920" y2="1046" stroke="#000000" stroke-width="1" /><line stroke-dasharray="1,1" x1="20" y1="1046" x2="920" y2="1076" stroke="#000000" stroke-width="1" /><line x1="920" y1="1031" x2="920" y2="1076" stroke="#000000" stroke-width="1" /><line stroke-dasharray="1,1" x1="20" y1="1056" x2="920" y2="1086" stroke="#000000" stroke-width="1" /><line x1="20" y1="1056" x2="20" y2="1086" stroke="#000000" stroke-width="1" /><line x1="20" y1="1086" x2="20" y2="1101" stroke="#000000" stroke-width="1" /><line x1="920" y1="1086" x2="920" y2="1101" stroke="#000000" stroke-width="1" /><text font-size="18" font-family="Arial" x="15" y="1116" text-anchor="end" > </text><line x1="20" y1="1101" x2="120" y2="1101" stroke="#000000" stroke-width="1" /><line x1="20" y1="1131" x2="120" y2="1131" stroke="#000000" stroke-width="1" /><line x1="120" y1="1101" x2="120" y2="1131" stroke="#000000" stroke-width="1" /><line x1="20" y1="1101" x2="20" y2="1131" stroke="#000000" stroke-width="1" /><text font-size="18" font-family="Arial" x="70" y="1117" text-anchor="middle" dominant-baseline="middle" >T:U</text><line x1="120" y1="1101" x2="920" y2="1101" stroke="#000000" stroke-width="1" /><line x1="920" y1="1101" x2="920" y2="1131" stroke="#000000" stroke-width="1" /><line x1="120" y1="1101" x2="120" y2="1131" stroke="#000000" stroke-width="1" /><text font-size="18" font-family="Arial" x="520" y="1117" text-anchor="middle" dominant-baseline="middle" >Client Identifier (T=S+1, U=T+N-1, length N)</text><text font-size="18" font-family="Arial" x="15" y="1116" text-anchor="end" > </text><text font-size="18" font-family="Arial" x="15" y="1146" text-anchor="end" > </text><line x1="20" y1="1131" x2="20" y2="1146" stroke="#000000" stroke-width="1" /><line x1="920" y1="1131" x2="920" y2="1146" stroke="#000000" stroke-width="1" /><line stroke-dasharray="1,1" x1="20" y1="1146" x2="920" y2="1176" stroke="#000000" stroke-width="1" /><line x1="920" y1="1131" x2="920" y2="1176" stroke="#000000" stroke-width="1" /><line stroke-dasharray="1,1" x1="20" y1="1156" x2="920" y2="1186" stroke="#000000" stroke-width="1" /><line x1="20" y1="1156" x2="20" y2="1186" stroke="#000000" stroke-width="1" /><line x1="20" y1="1186" x2="20" y2="1201" stroke="#000000" stroke-width="1" /><line x1="920" y1="1186" x2="920" y2="1201" stroke="#000000" stroke-width="1" /><text font-size="18" font-family="Arial" x="15" y="1216" text-anchor="end" > </text><line x1="20" y1="1201" x2="920" y2="1201" stroke="#000000" stroke-width="1" /></svg>