<?xml version="1.0" encoding="UTF-8"?><svg xmlns:svg="http://www.w3.org/2000/svg" xmlns="http://www.w3.org/2000/svg" xmlns:xlink="http://www.w3.org/1999/xlink" version="1.0" width="921" height="1062" viewBox="0 0 921 1062" ><rect x="20" y="1" height="30" width="100" fill="#cfe2f3" /><line x1="20" y1="1" x2="120" y2="1" stroke="#000000" stroke-width="1" /><line x1="20" y1="31" x2="120" y2="31" stroke="#000000" stroke-width="1" /><line x1="120" y1="1" x2="120" y2="31" stroke="#000000" stroke-width="1" /><line x1="20" y1="1" x2="20" y2="31" stroke="#000000" stroke-width="1" /><text font-size="18" font-family="Arial" x="70" y="17" text-anchor="middle" dominant-baseline="middle" >Byte \ Bit</text><rect x="120" y="1" height="30" width="100" fill="#cfe2f3" /><line x1="120" y1="1" x2="220" y2="1" stroke="#000000" stroke-width="1" /><line x1="120" y1="31" x2="220" y2="31" stroke="#000000" stroke-width="1" /><line x1="220" y1="1" x2="220" y2="31" stroke="#000000" stroke-width="1" /><line x1="120" y1="1" x2="120" y2="31" stroke="#000000" stroke-width="1" /><text font-size="18" font-family="Arial" x="170" y="17" text-anchor="middle" dominant-baseline="middle" >7</text><rect x="220" y="1" height="30" width="100" fill="#cfe2f3" /><line x1="220" y1="1" x2="320" y2="1" stroke="#000000" stroke-width="1" /><line x1="220" y1="31" x2="320" y2="31" stroke="#000000" stroke-width="1" /><line x1="320" y1="1" x2="320" y2="31" stroke="#000000" stroke-width="1" /><line x1="220" y1="1" x2="220" y2="31" stroke="#000000" stroke-width="1" /><text font-size="18" font-family="Arial" x="270" y="17" text-anchor="middle" dominant-baseline="middle" >6</text><rect x="320" y="1" height="30" width="100" fill="#cfe2f3" /><line x1="320" y1="1" x2="420" y2="1" stroke="#000000" stroke-width="1" /><line x1="320" y1="31" x2="420" y2="31" stroke="#000000" stroke-width="1" /><line x1="420" y1="1" x2="420" y2="31" stroke="#000000" stroke-width="1" /><line x1="320" y1="1" x2="320" y2="31" stroke="#000000" stroke-width="1" /><text font-size="18" font-family="Arial" x="370" y="17" text-anchor="middle" dominant-baseline="middle" >5</text><rect x="420" y="1" height="30" width="100" fill="#cfe2f3" /><line x1="420" y1="1" x2="520" y2="1" stroke="#000000" stroke-width="1" /><line x1="420" y1="31" x2="520" y2="31" stroke="#000000" stroke-width="1" /><line x1="520" y1="1" x2="520" y2="31" stroke="#000000" stroke-width="1" /><line x1="420" y1="1" x2="420" y2="31" stroke="#000000" stroke-width="1" /><text font-size="18" font-family="Arial" x="470" y="17" text-anchor="middle" dominant-baseline="middle" >4</text><rect x="520" y="1" height="30" width="100" fill="#cfe2f3" /><line x1="520" y1="1" x2="620" y2="1" stroke="#000000" stroke-width="1" /><line x1="520" y1="31" x2="620" y2="31" stroke="#000000" stroke-width="1" /><line x1="620" y1="1" x2="620" y2="31" stroke="#000000" stroke-width="1" /><line x1="520" y1="1" x2="520" y2="31" stroke="#000000" stroke-width="1" /><text font-size="18" font-family="Arial" x="570" y="17" text-anchor="middle" dominant-baseline="middle" >3</text><rect x="620" y="1" height="30" width="100" fill="#cfe2f3" /><line x1="620" y1="1" x2="720" y2="1" stroke="#000000" stroke-width="1" /><line x1="620" y1="31" x2="720" y2="31" stroke="#000000" stroke-width="1" /><line x1="720" y1="1" x2="720" y2="31" stroke="#000000" stroke-width="1" /><line x1="620" y1="1" x2="620" y2="31" stroke="#000000" stroke-width="1" /><text font-size="18" font-family="Arial" x="670" y="17" text-anchor="middle" dominant-baseline="middle" >2</text><rect x="720" y="1" height="30" width="100" fill="#cfe2f3" /><line x1="720" y1="1" x2="820" y2="1" stroke="#000000" stroke-width="1" /><line x1="720" y1="31" x2="820" y2="31" stroke="#000000" stroke-width="1" /><line x1="820" y1="1" x2="820" y2="31" stroke="#000000" stroke-width="1" /><line x1="720" y1="1" x2="720" y2="31" stroke="#000000" stroke-width="1" /><text font-size="18" font-family="Arial" x="770" y="17" text-anchor="middle" dominant-baseline="middle" >1</text><rect x="820" y="1" height="30" width="100" fill="#cfe2f3" /><line x1="820" y1="1" x2="920" y2="1" stroke="#000000" stroke-width="1" /><line x1="820" y1="31" x2="920" y2="31" stroke="#000000" stroke-width="1" /><line x1="920" y1="1" x2="920" y2="31" stroke="#000000" stroke-width="1" /><line x1="820" y1="1" x2="820" y2="31" stroke="#000000" stroke-width="1" /><text font-size="18" font-family="Arial" x="870" y="17" text-anchor="middle" dominant-baseline="middle" >0</text><text font-size="18" font-family="Arial" x="15" y="16" text-anchor="end" > </text><text font-size="18" font-family="Arial" x="15" y="46" text-anchor="end" > </text><line x1="20" y1="31" x2="120" y2="31" stroke="#000000" stroke-width="1" /><line x1="20" y1="61" x2="120" y2="61" stroke="#000000" stroke-width="1" /><line x1="120" y1="31" x2="120" y2="61" stroke="#000000" stroke-width="1" /><line x1="20" y1="31" x2="20" y2="61" stroke="#000000" stroke-width="1" /><text font-size="18" font-family="Arial" x="70" y="47" text-anchor="middle" dominant-baseline="middle" >1</text><line x1="120" y1="31" x2="920" y2="31" stroke="#000000" stroke-width="1" /><line x1="120" y1="61" x2="920" y2="61" stroke="#000000" stroke-width="1" /><line x1="920" y1="31" x2="920" y2="61" stroke="#000000" stroke-width="1" /><line x1="120" y1="31" x2="120" y2="61" stroke="#000000" stroke-width="1" /><text font-size="18" font-family="Arial" x="520" y="47" text-anchor="middle" dominant-baseline="middle" >Length</text><text font-size="18" font-family="Arial" x="15" y="76" text-anchor="end" > </text><line x1="20" y1="61" x2="120" y2="61" stroke="#000000" stroke-width="1" /><line x1="20" y1="91" x2="120" y2="91" stroke="#000000" stroke-width="1" /><line x1="120" y1="61" x2="120" y2="91" stroke="#000000" stroke-width="1" /><line x1="20" y1="61" x2="20" y2="91" stroke="#000000" stroke-width="1" /><text font-size="18" font-family="Arial" x="70" y="77" text-anchor="middle" dominant-baseline="middle" >´2</text><line x1="120" y1="61" x2="920" y2="61" stroke="#000000" stroke-width="1" /><line x1="120" y1="91" x2="920" y2="91" stroke="#000000" stroke-width="1" /><line x1="920" y1="61" x2="920" y2="91" stroke="#000000" stroke-width="1" /><line x1="120" y1="61" x2="120" y2="91" stroke="#000000" stroke-width="1" /><text font-size="18" font-family="Arial" x="520" y="77" text-anchor="middle" dominant-baseline="middle" >Packet Type</text><text font-size="18" font-family="Arial" x="15" y="106" text-anchor="end" > </text><line x1="20" y1="91" x2="120" y2="91" stroke="#000000" stroke-width="1" /><line x1="20" y1="121" x2="120" y2="121" stroke="#000000" stroke-width="1" /><line x1="120" y1="91" x2="120" y2="121" stroke="#000000" stroke-width="1" /><line x1="20" y1="91" x2="20" y2="121" stroke="#000000" stroke-width="1" /><text font-size="18" font-family="Arial" x="70" y="107" text-anchor="middle" dominant-baseline="middle" ></text><rect x="120" y="91" height="30" width="800" fill="#dddddd" /><line x1="120" y1="91" x2="920" y2="91" stroke="#000000" stroke-width="1" /><line x1="120" y1="121" x2="920" y2="121" stroke="#000000" stroke-width="1" /><line x1="920" y1="91" x2="920" y2="121" stroke="#000000" stroke-width="1" /><line x1="120" y1="91" x2="120" y2="121" stroke="#000000" stroke-width="1" /><text font-size="18" font-family="Arial" x="520" y="107" text-anchor="middle" dominant-baseline="middle" >CONNECT FLAGS</text><text font-size="18" font-family="Arial" x="15" y="136" text-anchor="end" > </text><line x1="20" y1="121" x2="120" y2="121" stroke="#000000" stroke-width="1" /><line x1="20" y1="151" x2="120" y2="151" stroke="#000000" stroke-width="1" /><line x1="120" y1="121" x2="120" y2="151" stroke="#000000" stroke-width="1" /><line x1="20" y1="121" x2="20" y2="151" stroke="#000000" stroke-width="1" /><text font-size="18" font-family="Arial" x="70" y="137" text-anchor="middle" dominant-baseline="middle" ></text><rect x="120" y="121" height="30" width="100" fill="#eeeeee" /><line x1="120" y1="121" x2="220" y2="121" stroke="#000000" stroke-width="1" /><line x1="120" y1="151" x2="220" y2="151" stroke="#000000" stroke-width="1" /><line x1="220" y1="121" x2="220" y2="151" stroke="#000000" stroke-width="1" /><line x1="120" y1="121" x2="120" y2="151" stroke="#000000" stroke-width="1" /><text font-size="18" font-family="Arial" x="170" y="137" text-anchor="middle" dominant-baseline="middle" >Reserved</text><rect x="220" y="121" height="30" width="400" fill="#eeeeee" /><line x1="220" y1="121" x2="620" y2="121" stroke="#000000" stroke-width="1" /><line x1="220" y1="151" x2="620" y2="151" stroke="#000000" stroke-width="1" /><line x1="620" y1="121" x2="620" y2="151" stroke="#000000" stroke-width="1" /><line x1="220" y1="121" x2="220" y2="151" stroke="#000000" stroke-width="1" /><text font-size="18" font-family="Arial" x="420" y="137" text-anchor="middle" dominant-baseline="middle" >Default Awake Messages</text><rect x="620" y="121" height="30" width="100" fill="#eeeeee" /><line x1="620" y1="121" x2="720" y2="121" stroke="#000000" stroke-width="1" /><line x1="620" y1="151" x2="720" y2="151" stroke="#000000" stroke-width="1" /><line x1="720" y1="121" x2="720" y2="151" stroke="#000000" stroke-width="1" /><line x1="620" y1="121" x2="620" y2="151" stroke="#000000" stroke-width="1" /><text font-size="18" font-family="Arial" x="670" y="137" text-anchor="middle" dominant-baseline="middle" >Auth</text><rect x="720" y="121" height="30" width="100" fill="#eeeeee" /><line x1="720" y1="121" x2="820" y2="121" stroke="#000000" stroke-width="1" /><line x1="720" y1="151" x2="820" y2="151" stroke="#000000" stroke-width="1" /><line x1="820" y1="121" x2="820" y2="151" stroke="#000000" stroke-width="1" /><line x1="720" y1="121" x2="720" y2="151" stroke="#000000" stroke-width="1" /><text font-size="18" font-family="Arial" x="770" y="137" text-anchor="middle" dominant-baseline="middle" >Will</text><rect x="820" y="121" height="30" width="100" fill="#eeeeee" /><line x1="820" y1="121" x2="920" y2="121" stroke="#000000" stroke-width="1" /><line x1="820" y1="151" x2="920" y2="151" stroke="#000000" stroke-width="1" /><line x1="920" y1="121" x2="920" y2="151" stroke="#000000" stroke-width="1" /><line x1="820" y1="121" x2="820" y2="151" stroke="#000000" stroke-width="1" /><text font-size="18" font-family="Arial" x="870" y="137" text-anchor="middle" dominant-baseline="middle" >Clean Start</text><text font-size="18" font-family="Arial" x="15" y="166" text-anchor="end" > </text><line x1="20" y1="151" x2="120" y2="151" stroke="#000000" stroke-width="1" /><line x1="20" y1="181" x2="120" y2="181" stroke="#000000" stroke-width="1" /><line x1="120" y1="151" x2="120" y2="181" stroke="#000000" stroke-width="1" /><line x1="20" y1="151" x2="20" y2="181" stroke="#000000" stroke-width="1" /><text font-size="18" font-family="Arial" x="70" y="167" text-anchor="middle" dominant-baseline="middle" >3</text><line x1="120" y1="151" x2="220" y2="151" stroke="#000000" stroke-width="1" /><line x1="120" y1="181" x2="220" y2="181" stroke="#000000" stroke-width="1" /><line x1="220" y1="151" x2="220" y2="181" stroke="#000000" stroke-width="1" /><line x1="120" y1="151" x2="120" y2="181" stroke="#000000" stroke-width="1" /><text font-size="18" font-family="Arial" x="170" y="167" text-anchor="middle" dominant-baseline="middle" >0</text><line x1="220" y1="151" x2="320" y2="151" stroke="#000000" stroke-width="1" /><line x1="220" y1="181" x2="320" y2="181" stroke="#000000" stroke-width="1" /><line x1="320" y1="151" x2="320" y2="181" stroke="#000000" stroke-width="1" /><line x1="220" y1="151" x2="220" y2="181" stroke="#000000" stroke-width="1" /><text font-size="18" font-family="Arial" x="270" y="167" text-anchor="middle" dominant-baseline="middle" >X</text><line x1="320" y1="151" x2="420" y2="151" stroke="#000000" stroke-width="1" /><line x1="320" y1="181" x2="420" y2="181" stroke="#000000" stroke-width="1" /><line x1="420" y1="151" x2="420" y2="181" stroke="#000000" stroke-width="1" /><line x1="320" y1="151" x2="320" y2="181" stroke="#000000" stroke-width="1" /><text font-size="18" font-family="Arial" x="370" y="167" text-anchor="middle" dominant-baseline="middle" >X</text><line x1="420" y1="151" x2="520" y2="151" stroke="#000000" stroke-width="1" /><line x1="420" y1="181" x2="520" y2="181" stroke="#000000" stroke-width="1" /><line x1="520" y1="151" x2="520" y2="181" stroke="#000000" stroke-width="1" /><line x1="420" y1="151" x2="420" y2="181" stroke="#000000" stroke-width="1" /><text font-size="18" font-family="Arial" x="470" y="167" text-anchor="middle" dominant-baseline="middle" >X</text><line x1="520" y1="151" x2="620" y2="151" stroke="#000000" stroke-width="1" /><line x1="520" y1="181" x2="620" y2="181" stroke="#000000" stroke-width="1" /><line x1="620" y1="151" x2="620" y2="181" stroke="#000000" stroke-width="1" /><line x1="520" y1="151" x2="520" y2="181" stroke="#000000" stroke-width="1" /><text font-size="18" font-family="Arial" x="570" y="167" text-anchor="middle" dominant-baseline="middle" >X</text><line x1="620" y1="151" x2="720" y2="151" stroke="#000000" stroke-width="1" /><line x1="620" y1="181" x2="720" y2="181" stroke="#000000" stroke-width="1" /><line x1="720" y1="151" x2="720" y2="181" stroke="#000000" stroke-width="1" /><line x1="620" y1="151" x2="620" y2="181" stroke="#000000" stroke-width="1" /><text font-size="18" font-family="Arial" x="670" y="167" text-anchor="middle" dominant-baseline="middle" >X</text><line x1="720" y1="151" x2="820" y2="151" stroke="#000000" stroke-width="1" /><line x1="720" y1="181" x2="820" y2="181" stroke="#000000" stroke-width="1" /><line x1="820" y1="151" x2="820" y2="181" stroke="#000000" stroke-width="1" /><line x1="720" y1="151" x2="720" y2="181" stroke="#000000" stroke-width="1" /><text font-size="18" font-family="Arial" x="770" y="167" text-anchor="middle" dominant-baseline="middle" >X</text><line x1="820" y1="151" x2="920" y2="151" stroke="#000000" stroke-width="1" /><line x1="820" y1="181" x2="920" y2="181" stroke="#000000" stroke-width="1" /><line x1="920" y1="151" x2="920" y2="181" stroke="#000000" stroke-width="1" /><line x1="820" y1="151" x2="820" y2="181" stroke="#000000" stroke-width="1" /><text font-size="18" font-family="Arial" x="870" y="167" text-anchor="middle" dominant-baseline="middle" >X</text><text font-size="18" font-family="Arial" x="15" y="196" text-anchor="end" > </text><line x1="20" y1="181" x2="120" y2="181" stroke="#000000" stroke-width="1" /><line x1="20" y1="211" x2="120" y2="211" stroke="#000000" stroke-width="1" /><line x1="120" y1="181" x2="120" y2="211" stroke="#000000" stroke-width="1" /><line x1="20" y1="181" x2="20" y2="211" stroke="#000000" stroke-width="1" /><text font-size="18" font-family="Arial" x="70" y="197" text-anchor="middle" dominant-baseline="middle" ></text><rect x="120" y="181" height="30" width="800" fill="#dddddd" /><line x1="120" y1="181" x2="920" y2="181" stroke="#000000" stroke-width="1" /><line x1="120" y1="211" x2="920" y2="211" stroke="#000000" stroke-width="1" /><line x1="920" y1="181" x2="920" y2="211" stroke="#000000" stroke-width="1" /><line x1="120" y1="181" x2="120" y2="211" stroke="#000000" stroke-width="1" /><text font-size="18" font-family="Arial" x="520" y="197" text-anchor="middle" dominant-baseline="middle" >WILL FLAGS<tspan font-style="italic" font-size="18" font-family="Arial" dominant-baseline="middle" >[OPT] (ONLY WHEN WILL FLAG SET)</tspan></text><text font-size="18" font-family="Arial" x="15" y="226" text-anchor="end" > </text><line x1="20" y1="211" x2="120" y2="211" stroke="#000000" stroke-width="1" /><line x1="20" y1="241" x2="120" y2="241" stroke="#000000" stroke-width="1" /><line x1="120" y1="211" x2="120" y2="241" stroke="#000000" stroke-width="1" /><line x1="20" y1="211" x2="20" y2="241" stroke="#000000" stroke-width="1" /><text font-size="18" font-family="Arial" x="70" y="227" text-anchor="middle" dominant-baseline="middle" ></text><rect x="120" y="211" height="30" width="300" fill="#eeeeee" /><line x1="120" y1="211" x2="420" y2="211" stroke="#000000" stroke-width="1" /><line x1="120" y1="241" x2="420" y2="241" stroke="#000000" stroke-width="1" /><line x1="420" y1="211" x2="420" y2="241" stroke="#000000" stroke-width="1" /><line x1="120" y1="211" x2="120" y2="241" stroke="#000000" stroke-width="1" /><text font-size="18" font-family="Arial" x="270" y="227" text-anchor="middle" dominant-baseline="middle" >Reserved</text><rect x="420" y="211" height="30" width="100" fill="#eeeeee" /><line x1="420" y1="211" x2="520" y2="211" stroke="#000000" stroke-width="1" /><line x1="420" y1="241" x2="520" y2="241" stroke="#000000" stroke-width="1" /><line x1="520" y1="211" x2="520" y2="241" stroke="#000000" stroke-width="1" /><line x1="420" y1="211" x2="420" y2="241" stroke="#000000" stroke-width="1" /><text font-size="18" font-family="Arial" x="470" y="227" text-anchor="middle" dominant-baseline="middle" >Wil Retain</text><rect x="520" y="211" height="30" width="200" fill="#eeeeee" /><line x1="520" y1="211" x2="720" y2="211" stroke="#000000" stroke-width="1" /><line x1="520" y1="241" x2="720" y2="241" stroke="#000000" stroke-width="1" /><line x1="720" y1="211" x2="720" y2="241" stroke="#000000" stroke-width="1" /><line x1="520" y1="211" x2="520" y2="241" stroke="#000000" stroke-width="1" /><text font-size="18" font-family="Arial" x="620" y="227" text-anchor="middle" dominant-baseline="middle" >Will QoS</text><rect x="720" y="211" height="30" width="200" fill="#eeeeee" /><line x1="720" y1="211" x2="920" y2="211" stroke="#000000" stroke-width="1" /><line x1="720" y1="241" x2="920" y2="241" stroke="#000000" stroke-width="1" /><line x1="920" y1="211" x2="920" y2="241" stroke="#000000" stroke-width="1" /><line x1="720" y1="211" x2="720" y2="241" stroke="#000000" stroke-width="1" /><text font-size="18" font-family="Arial" x="820" y="227" text-anchor="middle" dominant-baseline="middle" >Will Topic Type</text><text font-size="18" font-family="Arial" x="15" y="256" text-anchor="end" > </text><rect x="20" y="241" height="30" width="100" fill="#eeeeee" /><line x1="20" y1="241" x2="120" y2="241" stroke="#000000" stroke-width="1" /><line x1="20" y1="271" x2="120" y2="271" stroke="#000000" stroke-width="1" /><line x1="120" y1="241" x2="120" y2="271" stroke="#000000" stroke-width="1" /><line x1="20" y1="241" x2="20" y2="271" stroke="#000000" stroke-width="1" /><text font-size="18" font-family="Arial" x="70" y="257" text-anchor="middle" dominant-baseline="middle" >3+1</text><rect x="120" y="241" height="30" width="100" fill="#eeeeee" /><line x1="120" y1="241" x2="220" y2="241" stroke="#000000" stroke-width="1" /><line x1="120" y1="271" x2="220" y2="271" stroke="#000000" stroke-width="1" /><line x1="220" y1="241" x2="220" y2="271" stroke="#000000" stroke-width="1" /><line x1="120" y1="241" x2="120" y2="271" stroke="#000000" stroke-width="1" /><text font-size="18" font-family="Arial" x="170" y="257" text-anchor="middle" dominant-baseline="middle" >0</text><rect x="220" y="241" height="30" width="100" fill="#eeeeee" /><line x1="220" y1="241" x2="320" y2="241" stroke="#000000" stroke-width="1" /><line x1="220" y1="271" x2="320" y2="271" stroke="#000000" stroke-width="1" /><line x1="320" y1="241" x2="320" y2="271" stroke="#000000" stroke-width="1" /><line x1="220" y1="241" x2="220" y2="271" stroke="#000000" stroke-width="1" /><text font-size="18" font-family="Arial" x="270" y="257" text-anchor="middle" dominant-baseline="middle" >0</text><rect x="320" y="241" height="30" width="100" fill="#eeeeee" /><line x1="320" y1="241" x2="420" y2="241" stroke="#000000" stroke-width="1" /><line x1="320" y1="271" x2="420" y2="271" stroke="#000000" stroke-width="1" /><line x1="420" y1="241" x2="420" y2="271" stroke="#000000" stroke-width="1" /><line x1="320" y1="241" x2="320" y2="271" stroke="#000000" stroke-width="1" /><text font-size="18" font-family="Arial" x="370" y="257" text-anchor="middle" dominant-baseline="middle" >0</text><rect x="420" y="241" height="30" width="100" fill="#eeeeee" /><line x1="420" y1="241" x2="520" y2="241" stroke="#000000" stroke-width="1" /><line x1="420" y1="271" x2="520" y2="271" stroke="#000000" stroke-width="1" /><line x1="520" y1="241" x2="520" y2="271" stroke="#000000" stroke-width="1" /><line x1="420" y1="241" x2="420" y2="271" stroke="#000000" stroke-width="1" /><text font-size="18" font-family="Arial" x="470" y="257" text-anchor="middle" dominant-baseline="middle" >X</text><rect x="520" y="241" height="30" width="100" fill="#eeeeee" /><line x1="520" y1="241" x2="620" y2="241" stroke="#000000" stroke-width="1" /><line x1="520" y1="271" x2="620" y2="271" stroke="#000000" stroke-width="1" /><line x1="620" y1="241" x2="620" y2="271" stroke="#000000" stroke-width="1" /><line x1="520" y1="241" x2="520" y2="271" stroke="#000000" stroke-width="1" /><text font-size="18" font-family="Arial" x="570" y="257" text-anchor="middle" dominant-baseline="middle" >X</text><rect x="620" y="241" height="30" width="100" fill="#eeeeee" /><line x1="620" y1="241" x2="720" y2="241" stroke="#000000" stroke-width="1" /><line x1="620" y1="271" x2="720" y2="271" stroke="#000000" stroke-width="1" /><line x1="720" y1="241" x2="720" y2="271" stroke="#000000" stroke-width="1" /><line x1="620" y1="241" x2="620" y2="271" stroke="#000000" stroke-width="1" /><text font-size="18" font-family="Arial" x="670" y="257" text-anchor="middle" dominant-baseline="middle" >X</text><rect x="720" y="241" height="30" width="100" fill="#eeeeee" /><line x1="720" y1="241" x2="820" y2="241" stroke="#000000" stroke-width="1" /><line x1="720" y1="271" x2="820" y2="271" stroke="#000000" stroke-width="1" /><line x1="820" y1="241" x2="820" y2="271" stroke="#000000" stroke-width="1" /><line x1="720" y1="241" x2="720" y2="271" stroke="#000000" stroke-width="1" /><text font-size="18" font-family="Arial" x="770" y="257" text-anchor="middle" dominant-baseline="middle" >X</text><rect x="820" y="241" height="30" width="100" fill="#eeeeee" /><line x1="820" y1="241" x2="920" y2="241" stroke="#000000" stroke-width="1" /><line x1="820" y1="271" x2="920" y2="271" stroke="#000000" stroke-width="1" /><line x1="920" y1="241" x2="920" y2="271" stroke="#000000" stroke-width="1" /><line x1="820" y1="241" x2="820" y2="271" stroke="#000000" stroke-width="1" /><text font-size="18" font-family="Arial" x="870" y="257" text-anchor="middle" dominant-baseline="middle" >X</text><text font-size="18" font-family="Arial" x="15" y="286" text-anchor="end" > </text><line x1="20" y1="271" x2="120" y2="271" stroke="#000000" stroke-width="1" /><line x1="20" y1="301" x2="120" y2="301" stroke="#000000" stroke-width="1" /><line x1="120" y1="271" x2="120" y2="301" stroke="#000000" stroke-width="1" /><line x1="20" y1="271" x2="20" y2="301" stroke="#000000" stroke-width="1" /><text font-size="18" font-family="Arial" x="70" y="287" text-anchor="middle" dominant-baseline="middle" >4</text><line x1="120" y1="271" x2="920" y2="271" stroke="#000000" stroke-width="1" /><line x1="120" y1="301" x2="920" y2="301" stroke="#000000" stroke-width="1" /><line x1="920" y1="271" x2="920" y2="301" stroke="#000000" stroke-width="1" /><line x1="120" y1="271" x2="120" y2="301" stroke="#000000" stroke-width="1" /><text font-size="18" font-family="Arial" x="520" y="287" text-anchor="middle" dominant-baseline="middle" >Packet Identifier MSB</text><text font-size="18" font-family="Arial" x="15" y="316" text-anchor="end" > </text><line x1="20" y1="301" x2="120" y2="301" stroke="#000000" stroke-width="1" /><line x1="20" y1="331" x2="120" y2="331" stroke="#000000" stroke-width="1" /><line x1="120" y1="301" x2="120" y2="331" stroke="#000000" stroke-width="1" /><line x1="20" y1="301" x2="20" y2="331" stroke="#000000" stroke-width="1" /><text font-size="18" font-family="Arial" x="70" y="317" text-anchor="middle" dominant-baseline="middle" >5</text><line x1="120" y1="301" x2="920" y2="301" stroke="#000000" stroke-width="1" /><line x1="120" y1="331" x2="920" y2="331" stroke="#000000" stroke-width="1" /><line x1="920" y1="301" x2="920" y2="331" stroke="#000000" stroke-width="1" /><line x1="120" y1="301" x2="120" y2="331" stroke="#000000" stroke-width="1" /><text font-size="18" font-family="Arial" x="520" y="317" text-anchor="middle" dominant-baseline="middle" >Packet Identifier LSB</text><text font-size="18" font-family="Arial" x="15" y="346" text-anchor="end" > </text><line x1="20" y1="331" x2="120" y2="331" stroke="#000000" stroke-width="1" /><line x1="20" y1="361" x2="120" y2="361" stroke="#000000" stroke-width="1" /><line x1="120" y1="331" x2="120" y2="361" stroke="#000000" stroke-width="1" /><line x1="20" y1="331" x2="20" y2="361" stroke="#000000" stroke-width="1" /><text font-size="18" font-family="Arial" x="70" y="347" text-anchor="middle" dominant-baseline="middle" >6</text><line x1="120" y1="331" x2="920" y2="331" stroke="#000000" stroke-width="1" /><line x1="120" y1="361" x2="920" y2="361" stroke="#000000" stroke-width="1" /><line x1="920" y1="331" x2="920" y2="361" stroke="#000000" stroke-width="1" /><line x1="120" y1="331" x2="120" y2="361" stroke="#000000" stroke-width="1" /><text font-size="18" font-family="Arial" x="520" y="347" text-anchor="middle" dominant-baseline="middle" >Protocol Version</text><text font-size="18" font-family="Arial" x="15" y="376" text-anchor="end" > </text><line x1="20" y1="361" x2="120" y2="361" stroke="#000000" stroke-width="1" /><line x1="20" y1="391" x2="120" y2="391" stroke="#000000" stroke-width="1" /><line x1="120" y1="361" x2="120" y2="391" stroke="#000000" stroke-width="1" /><line x1="20" y1="361" x2="20" y2="391" stroke="#000000" stroke-width="1" /><text font-size="18" font-family="Arial" x="70" y="377" text-anchor="middle" dominant-baseline="middle" >7</text><line x1="120" y1="361" x2="920" y2="361" stroke="#000000" stroke-width="1" /><line x1="120" y1="391" x2="920" y2="391" stroke="#000000" stroke-width="1" /><line x1="920" y1="361" x2="920" y2="391" stroke="#000000" stroke-width="1" /><line x1="120" y1="361" x2="120" y2="391" stroke="#000000" stroke-width="1" /><text font-size="18" font-family="Arial" x="520" y="377" text-anchor="middle" dominant-baseline="middle" >Keep Alive MSB</text><text font-size="18" font-family="Arial" x="15" y="406" text-anchor="end" > </text><line x1="20" y1="391" x2="120" y2="391" stroke="#000000" stroke-width="1" /><line x1="20" y1="421" x2="120" y2="421" stroke="#000000" stroke-width="1" /><line x1="120" y1="391" x2="120" y2="421" stroke="#000000" stroke-width="1" /><line x1="20" y1="391" x2="20" y2="421" stroke="#000000" stroke-width="1" /><text font-size="18" font-family="Arial" x="70" y="407" text-anchor="middle" dominant-baseline="middle" >8</text><line x1="120" y1="391" x2="920" y2="391" stroke="#000000" stroke-width="1" /><line x1="120" y1="421" x2="920" y2="421" stroke="#000000" stroke-width="1" /><line x1="920" y1="391" x2="920" y2="421" stroke="#000000" stroke-width="1" /><line x1="120" y1="391" x2="120" y2="421" stroke="#000000" stroke-width="1" /><text font-size="18" font-family="Arial" x="520" y="407" text-anchor="middle" dominant-baseline="middle" >Keep Alive LSB</text><text font-size="18" font-family="Arial" x="15" y="436" text-anchor="end" > </text><line x1="20" y1="421" x2="120" y2="421" stroke="#000000" stroke-width="1" /><line x1="20" y1="451" x2="120" y2="451" stroke="#000000" stroke-width="1" /><line x1="120" y1="421" x2="120" y2="451" stroke="#000000" stroke-width="1" /><line x1="20" y1="421" x2="20" y2="451" stroke="#000000" stroke-width="1" /><text font-size="18" font-family="Arial" x="70" y="437" text-anchor="middle" dominant-baseline="middle" >9</text><line x1="120" y1="421" x2="920" y2="421" stroke="#000000" stroke-width="1" /><line x1="120" y1="451" x2="920" y2="451" stroke="#000000" stroke-width="1" /><line x1="920" y1="421" x2="920" y2="451" stroke="#000000" stroke-width="1" /><line x1="120" y1="421" x2="120" y2="451" stroke="#000000" stroke-width="1" /><text font-size="18" font-family="Arial" x="520" y="437" text-anchor="middle" dominant-baseline="middle" >Session Expiry Interval MSB</text><text font-size="18" font-family="Arial" x="15" y="466" text-anchor="end" > </text><line x1="20" y1="451" x2="120" y2="451" stroke="#000000" stroke-width="1" /><line x1="20" y1="481" x2="120" y2="481" stroke="#000000" stroke-width="1" /><line x1="120" y1="451" x2="120" y2="481" stroke="#000000" stroke-width="1" /><line x1="20" y1="451" x2="20" y2="481" stroke="#000000" stroke-width="1" /><text font-size="18" font-family="Arial" x="70" y="467" text-anchor="middle" dominant-baseline="middle" >10</text><line x1="120" y1="451" x2="920" y2="451" stroke="#000000" stroke-width="1" /><line x1="120" y1="481" x2="920" y2="481" stroke="#000000" stroke-width="1" /><line x1="920" y1="451" x2="920" y2="481" stroke="#000000" stroke-width="1" /><line x1="120" y1="451" x2="120" y2="481" stroke="#000000" stroke-width="1" /><text font-size="18" font-family="Arial" x="520" y="467" text-anchor="middle" dominant-baseline="middle" >Session Expiry Interval</text><text font-size="18" font-family="Arial" x="15" y="496" text-anchor="end" > </text><line x1="20" y1="481" x2="120" y2="481" stroke="#000000" stroke-width="1" /><line x1="20" y1="511" x2="120" y2="511" stroke="#000000" stroke-width="1" /><line x1="120" y1="481" x2="120" y2="511" stroke="#000000" stroke-width="1" /><line x1="20" y1="481" x2="20" y2="511" stroke="#000000" stroke-width="1" /><text font-size="18" font-family="Arial" x="70" y="497" text-anchor="middle" dominant-baseline="middle" >11</text><line x1="120" y1="481" x2="920" y2="481" stroke="#000000" stroke-width="1" /><line x1="120" y1="511" x2="920" y2="511" stroke="#000000" stroke-width="1" /><line x1="920" y1="481" x2="920" y2="511" stroke="#000000" stroke-width="1" /><line x1="120" y1="481" x2="120" y2="511" stroke="#000000" stroke-width="1" /><text font-size="18" font-family="Arial" x="520" y="497" text-anchor="middle" dominant-baseline="middle" >Session Expiry Interval</text><text font-size="18" font-family="Arial" x="15" y="526" text-anchor="end" > </text><line x1="20" y1="511" x2="120" y2="511" stroke="#000000" stroke-width="1" /><line x1="20" y1="541" x2="120" y2="541" stroke="#000000" stroke-width="1" /><line x1="120" y1="511" x2="120" y2="541" stroke="#000000" stroke-width="1" /><line x1="20" y1="511" x2="20" y2="541" stroke="#000000" stroke-width="1" /><text font-size="18" font-family="Arial" x="70" y="527" text-anchor="middle" dominant-baseline="middle" >12</text><line x1="120" y1="511" x2="920" y2="511" stroke="#000000" stroke-width="1" /><line x1="120" y1="541" x2="920" y2="541" stroke="#000000" stroke-width="1" /><line x1="920" y1="511" x2="920" y2="541" stroke="#000000" stroke-width="1" /><line x1="120" y1="511" x2="120" y2="541" stroke="#000000" stroke-width="1" /><text font-size="18" font-family="Arial" x="520" y="527" text-anchor="middle" dominant-baseline="middle" >Session Expiry Interval LSB</text><text font-size="18" font-family="Arial" x="15" y="556" text-anchor="end" > </text><line x1="20" y1="541" x2="120" y2="541" stroke="#000000" stroke-width="1" /><line x1="20" y1="571" x2="120" y2="571" stroke="#000000" stroke-width="1" /><line x1="120" y1="541" x2="120" y2="571" stroke="#000000" stroke-width="1" /><line x1="20" y1="541" x2="20" y2="571" stroke="#000000" stroke-width="1" /><text font-size="18" font-family="Arial" x="70" y="557" text-anchor="middle" dominant-baseline="middle" >13</text><line x1="120" y1="541" x2="920" y2="541" stroke="#000000" stroke-width="1" /><line x1="120" y1="571" x2="920" y2="571" stroke="#000000" stroke-width="1" /><line x1="920" y1="541" x2="920" y2="571" stroke="#000000" stroke-width="1" /><line x1="120" y1="541" x2="120" y2="571" stroke="#000000" stroke-width="1" /><text font-size="18" font-family="Arial" x="520" y="557" text-anchor="middle" dominant-baseline="middle" >Max Packet Size MSB</text><text font-size="18" font-family="Arial" x="15" y="586" text-anchor="end" > </text><line x1="20" y1="571" x2="120" y2="571" stroke="#000000" stroke-width="1" /><line x1="20" y1="601" x2="120" y2="601" stroke="#000000" stroke-width="1" /><line x1="120" y1="571" x2="120" y2="601" stroke="#000000" stroke-width="1" /><line x1="20" y1="571" x2="20" y2="601" stroke="#000000" stroke-width="1" /><text font-size="18" font-family="Arial" x="70" y="587" text-anchor="middle" dominant-baseline="middle" >14</text><line x1="120" y1="571" x2="920" y2="571" stroke="#000000" stroke-width="1" /><line x1="120" y1="601" x2="920" y2="601" stroke="#000000" stroke-width="1" /><line x1="920" y1="571" x2="920" y2="601" stroke="#000000" stroke-width="1" /><line x1="120" y1="571" x2="120" y2="601" stroke="#000000" stroke-width="1" /><text font-size="18" font-family="Arial" x="520" y="587" text-anchor="middle" dominant-baseline="middle" >Max Packet Size LSB</text><text font-size="18" font-family="Arial" x="15" y="616" text-anchor="end" > </text><line x1="20" y1="601" x2="120" y2="601" stroke="#000000" stroke-width="1" /><line x1="20" y1="631" x2="120" y2="631" stroke="#000000" stroke-width="1" /><line x1="120" y1="601" x2="120" y2="631" stroke="#000000" stroke-width="1" /><line x1="20" y1="601" x2="20" y2="631" stroke="#000000" stroke-width="1" /><text font-size="18" font-family="Arial" x="70" y="617" text-anchor="middle" dominant-baseline="middle" ></text><rect x="120" y="601" height="30" width="800" fill="#dddddd" /><line x1="120" y1="601" x2="920" y2="601" stroke="#000000" stroke-width="1" /><line x1="120" y1="631" x2="920" y2="631" stroke="#000000" stroke-width="1" /><line x1="920" y1="601" x2="920" y2="631" stroke="#000000" stroke-width="1" /><line x1="120" y1="601" x2="120" y2="631" stroke="#000000" stroke-width="1" /><text font-size="18" font-family="Arial" x="520" y="617" text-anchor="middle" dominant-baseline="middle" >WILL DATA<tspan font-style="italic" font-size="18" font-family="Arial" dominant-baseline="middle" >[OPT] (ONLY WHEN WILL FLAG SET)</tspan></text><text font-size="18" font-family="Arial" x="15" y="646" text-anchor="end" > </text><rect x="20" y="631" height="30" width="100" fill="#eeeeee" /><line x1="20" y1="631" x2="120" y2="631" stroke="#000000" stroke-width="1" /><line x1="20" y1="661" x2="120" y2="661" stroke="#000000" stroke-width="1" /><line x1="120" y1="631" x2="120" y2="661" stroke="#000000" stroke-width="1" /><line x1="20" y1="631" x2="20" y2="661" stroke="#000000" stroke-width="1" /><text font-size="18" font-family="Arial" x="70" y="647" text-anchor="middle" dominant-baseline="middle" >14+1</text><rect x="120" y="631" height="30" width="800" fill="#eeeeee" /><line x1="120" y1="631" x2="920" y2="631" stroke="#000000" stroke-width="1" /><line x1="120" y1="661" x2="920" y2="661" stroke="#000000" stroke-width="1" /><line x1="920" y1="631" x2="920" y2="661" stroke="#000000" stroke-width="1" /><line x1="120" y1="631" x2="120" y2="661" stroke="#000000" stroke-width="1" /><text font-size="18" font-family="Arial" x="520" y="647" text-anchor="middle" dominant-baseline="middle" >Will Topic Data MSB</text><text font-size="18" font-family="Arial" x="15" y="676" text-anchor="end" > </text><rect x="20" y="661" height="30" width="100" fill="#eeeeee" /><line x1="20" y1="661" x2="120" y2="661" stroke="#000000" stroke-width="1" /><line x1="20" y1="691" x2="120" y2="691" stroke="#000000" stroke-width="1" /><line x1="120" y1="661" x2="120" y2="691" stroke="#000000" stroke-width="1" /><line x1="20" y1="661" x2="20" y2="691" stroke="#000000" stroke-width="1" /><text font-size="18" font-family="Arial" x="70" y="677" text-anchor="middle" dominant-baseline="middle" >14+2</text><rect x="120" y="661" height="30" width="800" fill="#eeeeee" /><line x1="120" y1="661" x2="920" y2="661" stroke="#000000" stroke-width="1" /><line x1="120" y1="691" x2="920" y2="691" stroke="#000000" stroke-width="1" /><line x1="920" y1="661" x2="920" y2="691" stroke="#000000" stroke-width="1" /><line x1="120" y1="661" x2="120" y2="691" stroke="#000000" stroke-width="1" /><text font-size="18" font-family="Arial" x="520" y="677" text-anchor="middle" dominant-baseline="middle" >Will Topic Data LSB</text><text font-size="18" font-family="Arial" x="15" y="706" text-anchor="end" > </text><rect x="20" y="691" height="30" width="100" fill="#eeeeee" /><line x1="20" y1="691" x2="120" y2="691" stroke="#000000" stroke-width="1" /><line x1="20" y1="721" x2="120" y2="721" stroke="#000000" stroke-width="1" /><line x1="120" y1="691" x2="120" y2="721" stroke="#000000" stroke-width="1" /><line x1="20" y1="691" x2="20" y2="721" stroke="#000000" stroke-width="1" /><text font-size="18" font-family="Arial" x="70" y="707" text-anchor="middle" dominant-baseline="middle" >14+3</text><rect x="120" y="691" height="30" width="800" fill="#eeeeee" /><line x1="120" y1="691" x2="920" y2="691" stroke="#000000" stroke-width="1" /><line x1="120" y1="721" x2="920" y2="721" stroke="#000000" stroke-width="1" /><line x1="920" y1="691" x2="920" y2="721" stroke="#000000" stroke-width="1" /><line x1="120" y1="691" x2="120" y2="721" stroke="#000000" stroke-width="1" /><text font-size="18" font-family="Arial" x="520" y="707" text-anchor="middle" dominant-baseline="middle" >Will Payload Length MSB</text><text font-size="18" font-family="Arial" x="15" y="736" text-anchor="end" > </text><rect x="20" y="721" height="30" width="100" fill="#eeeeee" /><line x1="20" y1="721" x2="120" y2="721" stroke="#000000" stroke-width="1" /><line x1="20" y1="751" x2="120" y2="751" stroke="#000000" stroke-width="1" /><line x1="120" y1="721" x2="120" y2="751" stroke="#000000" stroke-width="1" /><line x1="20" y1="721" x2="20" y2="751" stroke="#000000" stroke-width="1" /><text font-size="18" font-family="Arial" x="70" y="737" text-anchor="middle" dominant-baseline="middle" >14+4</text><rect x="120" y="721" height="30" width="800" fill="#eeeeee" /><line x1="120" y1="721" x2="920" y2="721" stroke="#000000" stroke-width="1" /><line x1="120" y1="751" x2="920" y2="751" stroke="#000000" stroke-width="1" /><line x1="920" y1="721" x2="920" y2="751" stroke="#000000" stroke-width="1" /><line x1="120" y1="721" x2="120" y2="751" stroke="#000000" stroke-width="1" /><text font-size="18" font-family="Arial" x="520" y="737" text-anchor="middle" dominant-baseline="middle" >Will Payload Length LSB</text><text font-size="18" font-family="Arial" x="15" y="766" text-anchor="end" > </text><rect x="20" y="751" height="30" width="100" fill="#eeeeee" /><line x1="20" y1="751" x2="120" y2="751" stroke="#000000" stroke-width="1" /><line x1="20" y1="781" x2="120" y2="781" stroke="#000000" stroke-width="1" /><line x1="120" y1="751" x2="120" y2="781" stroke="#000000" stroke-width="1" /><line x1="20" y1="751" x2="20" y2="781" stroke="#000000" stroke-width="1" /><text font-size="18" font-family="Arial" x="70" y="767" text-anchor="middle" dominant-baseline="middle" >14+N</text><rect x="120" y="751" height="30" width="800" fill="#eeeeee" /><line x1="120" y1="751" x2="920" y2="751" stroke="#000000" stroke-width="1" /><line x1="120" y1="781" x2="920" y2="781" stroke="#000000" stroke-width="1" /><line x1="920" y1="751" x2="920" y2="781" stroke="#000000" stroke-width="1" /><line x1="120" y1="751" x2="120" y2="781" stroke="#000000" stroke-width="1" /><text font-size="18" font-family="Arial" x="520" y="767" text-anchor="middle" dominant-baseline="middle" >Will Payload Or (Will Topic Name + Will Payload)</text><text font-size="18" font-family="Arial" x="15" y="796" text-anchor="end" > </text><line x1="20" y1="781" x2="120" y2="781" stroke="#000000" stroke-width="1" /><line x1="20" y1="811" x2="120" y2="811" stroke="#000000" stroke-width="1" /><line x1="120" y1="781" x2="120" y2="811" stroke="#000000" stroke-width="1" /><line x1="20" y1="781" x2="20" y2="811" stroke="#000000" stroke-width="1" /><text font-size="18" font-family="Arial" x="70" y="797" text-anchor="middle" dominant-baseline="middle" ></text><rect x="120" y="781" height="30" width="800" fill="#dddddd" /><line x1="120" y1="781" x2="920" y2="781" stroke="#000000" stroke-width="1" /><line x1="120" y1="811" x2="920" y2="811" stroke="#000000" stroke-width="1" /><line x1="920" y1="781" x2="920" y2="811" stroke="#000000" stroke-width="1" /><line x1="120" y1="781" x2="120" y2="811" stroke="#000000" stroke-width="1" /><text font-size="18" font-family="Arial" x="520" y="797" text-anchor="middle" dominant-baseline="middle" >AUTH DATA<tspan font-style="italic" font-size="18" font-family="Arial" dominant-baseline="middle" >[OPT] (ONLY WHEN AUTH FLAG SET)</tspan></text><text font-size="18" font-family="Arial" x="15" y="826" text-anchor="end" > </text><rect x="20" y="811" height="30" width="100" fill="#eeeeee" /><line x1="20" y1="811" x2="120" y2="811" stroke="#000000" stroke-width="1" /><line x1="20" y1="841" x2="120" y2="841" stroke="#000000" stroke-width="1" /><line x1="120" y1="811" x2="120" y2="841" stroke="#000000" stroke-width="1" /><line x1="20" y1="811" x2="20" y2="841" stroke="#000000" stroke-width="1" /><text font-size="18" font-family="Arial" x="70" y="827" text-anchor="middle" dominant-baseline="middle" >14+1</text><rect x="120" y="811" height="30" width="800" fill="#eeeeee" /><line x1="120" y1="811" x2="920" y2="811" stroke="#000000" stroke-width="1" /><line x1="120" y1="841" x2="920" y2="841" stroke="#000000" stroke-width="1" /><line x1="920" y1="811" x2="920" y2="841" stroke="#000000" stroke-width="1" /><line x1="120" y1="811" x2="120" y2="841" stroke="#000000" stroke-width="1" /><text font-size="18" font-family="Arial" x="520" y="827" text-anchor="middle" dominant-baseline="middle" >Auth Method Length</text><text font-size="18" font-family="Arial" x="15" y="856" text-anchor="end" > </text><rect x="20" y="841" height="30" width="100" fill="#eeeeee" /><line x1="20" y1="841" x2="120" y2="841" stroke="#000000" stroke-width="1" /><line x1="20" y1="871" x2="120" y2="871" stroke="#000000" stroke-width="1" /><line x1="120" y1="841" x2="120" y2="871" stroke="#000000" stroke-width="1" /><line x1="20" y1="841" x2="20" y2="871" stroke="#000000" stroke-width="1" /><text font-size="18" font-family="Arial" x="70" y="857" text-anchor="middle" dominant-baseline="middle" >14+2</text><rect x="120" y="841" height="30" width="800" fill="#eeeeee" /><line x1="120" y1="841" x2="920" y2="841" stroke="#000000" stroke-width="1" /><line x1="120" y1="871" x2="920" y2="871" stroke="#000000" stroke-width="1" /><line x1="920" y1="841" x2="920" y2="871" stroke="#000000" stroke-width="1" /><line x1="120" y1="841" x2="120" y2="871" stroke="#000000" stroke-width="1" /><text font-size="18" font-family="Arial" x="520" y="857" text-anchor="middle" dominant-baseline="middle" >Auth Method</text><text font-size="18" font-family="Arial" x="15" y="886" text-anchor="end" > </text><rect x="20" y="871" height="30" width="100" fill="#eeeeee" /><line x1="20" y1="871" x2="120" y2="871" stroke="#000000" stroke-width="1" /><line x1="20" y1="901" x2="120" y2="901" stroke="#000000" stroke-width="1" /><line x1="120" y1="871" x2="120" y2="901" stroke="#000000" stroke-width="1" /><line x1="20" y1="871" x2="20" y2="901" stroke="#000000" stroke-width="1" /><text font-size="18" font-family="Arial" x="70" y="887" text-anchor="middle" dominant-baseline="middle" >14+3</text><rect x="120" y="871" height="30" width="800" fill="#eeeeee" /><line x1="120" y1="871" x2="920" y2="871" stroke="#000000" stroke-width="1" /><line x1="120" y1="901" x2="920" y2="901" stroke="#000000" stroke-width="1" /><line x1="920" y1="871" x2="920" y2="901" stroke="#000000" stroke-width="1" /><line x1="120" y1="871" x2="120" y2="901" stroke="#000000" stroke-width="1" /><text font-size="18" font-family="Arial" x="520" y="887" text-anchor="middle" dominant-baseline="middle" >Auth Data Length MSB</text><text font-size="18" font-family="Arial" x="15" y="916" text-anchor="end" > </text><rect x="20" y="901" height="30" width="100" fill="#eeeeee" /><line x1="20" y1="901" x2="120" y2="901" stroke="#000000" stroke-width="1" /><line x1="20" y1="931" x2="120" y2="931" stroke="#000000" stroke-width="1" /><line x1="120" y1="901" x2="120" y2="931" stroke="#000000" stroke-width="1" /><line x1="20" y1="901" x2="20" y2="931" stroke="#000000" stroke-width="1" /><text font-size="18" font-family="Arial" x="70" y="917" text-anchor="middle" dominant-baseline="middle" >14+4</text><rect x="120" y="901" height="30" width="800" fill="#eeeeee" /><line x1="120" y1="901" x2="920" y2="901" stroke="#000000" stroke-width="1" /><line x1="120" y1="931" x2="920" y2="931" stroke="#000000" stroke-width="1" /><line x1="920" y1="901" x2="920" y2="931" stroke="#000000" stroke-width="1" /><line x1="120" y1="901" x2="120" y2="931" stroke="#000000" stroke-width="1" /><text font-size="18" font-family="Arial" x="520" y="917" text-anchor="middle" dominant-baseline="middle" >Auth Data Length LSB</text><text font-size="18" font-family="Arial" x="15" y="946" text-anchor="end" > </text><rect x="20" y="931" height="30" width="100" fill="#eeeeee" /><line x1="20" y1="931" x2="120" y2="931" stroke="#000000" stroke-width="1" /><line x1="20" y1="961" x2="120" y2="961" stroke="#000000" stroke-width="1" /><line x1="120" y1="931" x2="120" y2="961" stroke="#000000" stroke-width="1" /><line x1="20" y1="931" x2="20" y2="961" stroke="#000000" stroke-width="1" /><text font-size="18" font-family="Arial" x="70" y="947" text-anchor="middle" dominant-baseline="middle" >14+5</text><rect x="120" y="931" height="30" width="800" fill="#eeeeee" /><line x1="120" y1="931" x2="920" y2="931" stroke="#000000" stroke-width="1" /><line x1="120" y1="961" x2="920" y2="961" stroke="#000000" stroke-width="1" /><line x1="920" y1="931" x2="920" y2="961" stroke="#000000" stroke-width="1" /><line x1="120" y1="931" x2="120" y2="961" stroke="#000000" stroke-width="1" /><text font-size="18" font-family="Arial" x="520" y="947" text-anchor="middle" dominant-baseline="middle" >Auth Data</text><text font-size="18" font-family="Arial" x="15" y="976" text-anchor="end" > </text><line x1="20" y1="961" x2="120" y2="961" stroke="#000000" stroke-width="1" /><line x1="20" y1="991" x2="120" y2="991" stroke="#000000" stroke-width="1" /><line x1="120" y1="961" x2="120" y2="991" stroke="#000000" stroke-width="1" /><line x1="20" y1="961" x2="20" y2="991" stroke="#000000" stroke-width="1" /><text font-size="18" font-family="Arial" x="70" y="977" text-anchor="middle" dominant-baseline="middle" >15 ... N</text><line x1="120" y1="961" x2="920" y2="961" stroke="#000000" stroke-width="1" /><line x1="920" y1="961" x2="920" y2="991" stroke="#000000" stroke-width="1" /><line x1="120" y1="961" x2="120" y2="991" stroke="#000000" stroke-width="1" /><text font-size="18" font-family="Arial" x="520" y="977" text-anchor="middle" dominant-baseline="middle" >Client Identifier</text><text font-size="18" font-family="Arial" x="15" y="1006" text-anchor="end" > </text><line x1="20" y1="991" x2="20" y2="1006" stroke="#000000" stroke-width="1" /><line x1="920" y1="991" x2="920" y2="1006" stroke="#000000" stroke-width="1" /><line stroke-dasharray="1,1" x1="20" y1="1006" x2="920" y2="1036" stroke="#000000" stroke-width="1" /><line x1="920" y1="991" x2="920" y2="1036" stroke="#000000" stroke-width="1" /><line stroke-dasharray="1,1" x1="20" y1="1016" x2="920" y2="1046" stroke="#000000" stroke-width="1" /><line x1="20" y1="1016" x2="20" y2="1046" stroke="#000000" stroke-width="1" /><line x1="20" y1="1046" x2="20" y2="1061" stroke="#000000" stroke-width="1" /><line x1="920" y1="1046" x2="920" y2="1061" stroke="#000000" stroke-width="1" /><text font-size="18" font-family="Arial" x="15" y="1076" text-anchor="end" > </text><line x1="20" y1="1061" x2="920" y2="1061" stroke="#000000" stroke-width="1" /></svg>