<?xml version="1.0" encoding="UTF-8"?><svg xmlns:svg="http://www.w3.org/2000/svg" xmlns="http://www.w3.org/2000/svg" xmlns:xlink="http://www.w3.org/1999/xlink" version="1.0" width="1011" height="642" viewBox="0 0 1011 642" ><rect x="20" y="1" height="30" width="110" fill="#cfe2f3" /><line x1="20" y1="1" x2="130" y2="1" stroke="#000000" stroke-width="1" /><line x1="20" y1="31" x2="130" y2="31" stroke="#000000" stroke-width="1" /><line x1="130" y1="1" x2="130" y2="31" stroke="#000000" stroke-width="1" /><line x1="20" y1="1" x2="20" y2="31" stroke="#000000" stroke-width="1" /><text font-size="18" font-family="Arial" x="75" y="17" text-anchor="middle" dominant-baseline="middle" >Byte \ Bit</text><rect x="130" y="1" height="30" width="110" fill="#cfe2f3" /><line x1="130" y1="1" x2="240" y2="1" stroke="#000000" stroke-width="1" /><line x1="130" y1="31" x2="240" y2="31" stroke="#000000" stroke-width="1" /><line x1="240" y1="1" x2="240" y2="31" stroke="#000000" stroke-width="1" /><line x1="130" y1="1" x2="130" y2="31" stroke="#000000" stroke-width="1" /><text font-size="18" font-family="Arial" x="185" y="17" text-anchor="middle" dominant-baseline="middle" >7</text><rect x="240" y="1" height="30" width="110" fill="#cfe2f3" /><line x1="240" y1="1" x2="350" y2="1" stroke="#000000" stroke-width="1" /><line x1="240" y1="31" x2="350" y2="31" stroke="#000000" stroke-width="1" /><line x1="350" y1="1" x2="350" y2="31" stroke="#000000" stroke-width="1" /><line x1="240" y1="1" x2="240" y2="31" stroke="#000000" stroke-width="1" /><text font-size="18" font-family="Arial" x="295" y="17" text-anchor="middle" dominant-baseline="middle" >6</text><rect x="350" y="1" height="30" width="110" fill="#cfe2f3" /><line x1="350" y1="1" x2="460" y2="1" stroke="#000000" stroke-width="1" /><line x1="350" y1="31" x2="460" y2="31" stroke="#000000" stroke-width="1" /><line x1="460" y1="1" x2="460" y2="31" stroke="#000000" stroke-width="1" /><line x1="350" y1="1" x2="350" y2="31" stroke="#000000" stroke-width="1" /><text font-size="18" font-family="Arial" x="405" y="17" text-anchor="middle" dominant-baseline="middle" >5</text><rect x="460" y="1" height="30" width="110" fill="#cfe2f3" /><line x1="460" y1="1" x2="570" y2="1" stroke="#000000" stroke-width="1" /><line x1="460" y1="31" x2="570" y2="31" stroke="#000000" stroke-width="1" /><line x1="570" y1="1" x2="570" y2="31" stroke="#000000" stroke-width="1" /><line x1="460" y1="1" x2="460" y2="31" stroke="#000000" stroke-width="1" /><text font-size="18" font-family="Arial" x="515" y="17" text-anchor="middle" dominant-baseline="middle" >4</text><rect x="570" y="1" height="30" width="110" fill="#cfe2f3" /><line x1="570" y1="1" x2="680" y2="1" stroke="#000000" stroke-width="1" /><line x1="570" y1="31" x2="680" y2="31" stroke="#000000" stroke-width="1" /><line x1="680" y1="1" x2="680" y2="31" stroke="#000000" stroke-width="1" /><line x1="570" y1="1" x2="570" y2="31" stroke="#000000" stroke-width="1" /><text font-size="18" font-family="Arial" x="625" y="17" text-anchor="middle" dominant-baseline="middle" >3</text><rect x="680" y="1" height="30" width="110" fill="#cfe2f3" /><line x1="680" y1="1" x2="790" y2="1" stroke="#000000" stroke-width="1" /><line x1="680" y1="31" x2="790" y2="31" stroke="#000000" stroke-width="1" /><line x1="790" y1="1" x2="790" y2="31" stroke="#000000" stroke-width="1" /><line x1="680" y1="1" x2="680" y2="31" stroke="#000000" stroke-width="1" /><text font-size="18" font-family="Arial" x="735" y="17" text-anchor="middle" dominant-baseline="middle" >2</text><rect x="790" y="1" height="30" width="110" fill="#cfe2f3" /><line x1="790" y1="1" x2="900" y2="1" stroke="#000000" stroke-width="1" /><line x1="790" y1="31" x2="900" y2="31" stroke="#000000" stroke-width="1" /><line x1="900" y1="1" x2="900" y2="31" stroke="#000000" stroke-width="1" /><line x1="790" y1="1" x2="790" y2="31" stroke="#000000" stroke-width="1" /><text font-size="18" font-family="Arial" x="845" y="17" text-anchor="middle" dominant-baseline="middle" >1</text><rect x="900" y="1" height="30" width="110" fill="#cfe2f3" /><line x1="900" y1="1" x2="1010" y2="1" stroke="#000000" stroke-width="1" /><line x1="900" y1="31" x2="1010" y2="31" stroke="#000000" stroke-width="1" /><line x1="1010" y1="1" x2="1010" y2="31" stroke="#000000" stroke-width="1" /><line x1="900" y1="1" x2="900" y2="31" stroke="#000000" stroke-width="1" /><text font-size="18" font-family="Arial" x="955" y="17" text-anchor="middle" dominant-baseline="middle" >0</text><text font-size="18" font-family="Arial" x="15" y="16" text-anchor="end" > </text><text font-size="18" font-family="Arial" x="15" y="46" text-anchor="end" > </text><line x1="20" y1="31" x2="130" y2="31" stroke="#000000" stroke-width="1" /><line x1="20" y1="61" x2="130" y2="61" stroke="#000000" stroke-width="1" /><line x1="130" y1="31" x2="130" y2="61" stroke="#000000" stroke-width="1" /><line x1="20" y1="31" x2="20" y2="61" stroke="#000000" stroke-width="1" /><text font-size="18" font-family="Arial" x="75" y="47" text-anchor="middle" dominant-baseline="middle" >1</text><line x1="130" y1="31" x2="1010" y2="31" stroke="#000000" stroke-width="1" /><line x1="130" y1="61" x2="1010" y2="61" stroke="#000000" stroke-width="1" /><line x1="1010" y1="31" x2="1010" y2="61" stroke="#000000" stroke-width="1" /><line x1="130" y1="31" x2="130" y2="61" stroke="#000000" stroke-width="1" /><text font-size="18" font-family="Arial" x="570" y="47" text-anchor="middle" dominant-baseline="middle" >Length</text><text font-size="18" font-family="Arial" x="15" y="76" text-anchor="end" > </text><line x1="20" y1="61" x2="130" y2="61" stroke="#000000" stroke-width="1" /><line x1="20" y1="91" x2="130" y2="91" stroke="#000000" stroke-width="1" /><line x1="130" y1="61" x2="130" y2="91" stroke="#000000" stroke-width="1" /><line x1="20" y1="61" x2="20" y2="91" stroke="#000000" stroke-width="1" /><text font-size="18" font-family="Arial" x="75" y="77" text-anchor="middle" dominant-baseline="middle" >2</text><line x1="130" y1="61" x2="1010" y2="61" stroke="#000000" stroke-width="1" /><line x1="130" y1="91" x2="1010" y2="91" stroke="#000000" stroke-width="1" /><line x1="1010" y1="61" x2="1010" y2="91" stroke="#000000" stroke-width="1" /><line x1="130" y1="61" x2="130" y2="91" stroke="#000000" stroke-width="1" /><text font-size="18" font-family="Arial" x="570" y="77" text-anchor="middle" dominant-baseline="middle" >Packet Type</text><text font-size="18" font-family="Arial" x="15" y="106" text-anchor="end" > </text><line x1="20" y1="91" x2="130" y2="91" stroke="#000000" stroke-width="1" /><line x1="20" y1="121" x2="130" y2="121" stroke="#000000" stroke-width="1" /><line x1="130" y1="91" x2="130" y2="121" stroke="#000000" stroke-width="1" /><line x1="20" y1="91" x2="20" y2="121" stroke="#000000" stroke-width="1" /><rect x="130" y="91" height="30" width="880" fill="#dddddd" /><line x1="130" y1="91" x2="1010" y2="91" stroke="#000000" stroke-width="1" /><line x1="130" y1="121" x2="1010" y2="121" stroke="#000000" stroke-width="1" /><line x1="1010" y1="91" x2="1010" y2="121" stroke="#000000" stroke-width="1" /><line x1="130" y1="91" x2="130" y2="121" stroke="#000000" stroke-width="1" /><text font-size="18" font-family="Arial" x="570" y="107" text-anchor="middle" dominant-baseline="middle" >DISCONNECT FLAGS</text><text font-size="18" font-family="Arial" x="15" y="136" text-anchor="end" > </text><line x1="20" y1="121" x2="130" y2="121" stroke="#000000" stroke-width="1" /><line x1="20" y1="361" x2="130" y2="361" stroke="#000000" stroke-width="1" /><line x1="130" y1="121" x2="130" y2="361" stroke="#000000" stroke-width="1" /><line x1="20" y1="121" x2="20" y2="361" stroke="#000000" stroke-width="1" /><rect x="130" y="121" height="240" width="440" fill="#eeeeee" /><line x1="130" y1="121" x2="570" y2="121" stroke="#000000" stroke-width="1" /><line x1="130" y1="361" x2="570" y2="361" stroke="#000000" stroke-width="1" /><line x1="570" y1="121" x2="570" y2="361" stroke="#000000" stroke-width="1" /><line x1="130" y1="121" x2="130" y2="361" stroke="#000000" stroke-width="1" /><text font-size="18" font-family="Arial" x="350" y="242" text-anchor="middle" dominant-baseline="middle" >Reserved</text><rect x="570" y="121" height="240" width="110" fill="#eeeeee" /><line x1="570" y1="121" x2="680" y2="121" stroke="#000000" stroke-width="1" /><line x1="570" y1="361" x2="680" y2="361" stroke="#000000" stroke-width="1" /><line x1="680" y1="121" x2="680" y2="361" stroke="#000000" stroke-width="1" /><line x1="570" y1="121" x2="570" y2="361" stroke="#000000" stroke-width="1" /><text text-anchor="middle" font-size="16" writing-mode="vertical-lr" font-family="Arial" x="625" y="242" dominant-baseline="middle" >Reason Code Present</text><rect x="680" y="121" height="240" width="110" fill="#eeeeee" /><line x1="680" y1="121" x2="790" y2="121" stroke="#000000" stroke-width="1" /><line x1="680" y1="361" x2="790" y2="361" stroke="#000000" stroke-width="1" /><line x1="790" y1="121" x2="790" y2="361" stroke="#000000" stroke-width="1" /><line x1="680" y1="121" x2="680" y2="361" stroke="#000000" stroke-width="1" /><text text-anchor="middle" font-size="16" writing-mode="vertical-lr" font-family="Arial" x="735" y="242" dominant-baseline="middle" >Session Expiry Interval Present</text><rect x="790" y="121" height="240" width="110" fill="#eeeeee" /><line x1="790" y1="121" x2="900" y2="121" stroke="#000000" stroke-width="1" /><line x1="790" y1="361" x2="900" y2="361" stroke="#000000" stroke-width="1" /><line x1="900" y1="121" x2="900" y2="361" stroke="#000000" stroke-width="1" /><line x1="790" y1="121" x2="790" y2="361" stroke="#000000" stroke-width="1" /><text text-anchor="middle" font-size="16" writing-mode="vertical-lr" font-family="Arial" x="845" y="242" dominant-baseline="middle" >Reason String Present</text><rect x="900" y="121" height="240" width="110" fill="#eeeeee" /><line x1="900" y1="121" x2="1010" y2="121" stroke="#000000" stroke-width="1" /><line x1="900" y1="361" x2="1010" y2="361" stroke="#000000" stroke-width="1" /><line x1="1010" y1="121" x2="1010" y2="361" stroke="#000000" stroke-width="1" /><line x1="900" y1="121" x2="900" y2="361" stroke="#000000" stroke-width="1" /><text text-anchor="middle" font-size="16" writing-mode="vertical-lr" font-family="Arial" x="955" y="242" dominant-baseline="middle" >Retain Registrations</text><line x1="20" y1="361" x2="130" y2="361" stroke="#000000" stroke-width="1" /><line x1="20" y1="391" x2="130" y2="391" stroke="#000000" stroke-width="1" /><line x1="130" y1="361" x2="130" y2="391" stroke="#000000" stroke-width="1" /><line x1="20" y1="361" x2="20" y2="391" stroke="#000000" stroke-width="1" /><text font-size="18" font-family="Arial" x="75" y="377" text-anchor="middle" dominant-baseline="middle" >3</text><line x1="130" y1="361" x2="240" y2="361" stroke="#000000" stroke-width="1" /><line x1="130" y1="391" x2="240" y2="391" stroke="#000000" stroke-width="1" /><line x1="240" y1="361" x2="240" y2="391" stroke="#000000" stroke-width="1" /><line x1="130" y1="361" x2="130" y2="391" stroke="#000000" stroke-width="1" /><text font-size="18" font-family="Arial" x="185" y="377" text-anchor="middle" dominant-baseline="middle" >0</text><line x1="240" y1="361" x2="350" y2="361" stroke="#000000" stroke-width="1" /><line x1="240" y1="391" x2="350" y2="391" stroke="#000000" stroke-width="1" /><line x1="350" y1="361" x2="350" y2="391" stroke="#000000" stroke-width="1" /><line x1="240" y1="361" x2="240" y2="391" stroke="#000000" stroke-width="1" /><text font-size="18" font-family="Arial" x="295" y="377" text-anchor="middle" dominant-baseline="middle" >0</text><line x1="350" y1="361" x2="460" y2="361" stroke="#000000" stroke-width="1" /><line x1="350" y1="391" x2="460" y2="391" stroke="#000000" stroke-width="1" /><line x1="460" y1="361" x2="460" y2="391" stroke="#000000" stroke-width="1" /><line x1="350" y1="361" x2="350" y2="391" stroke="#000000" stroke-width="1" /><text font-size="18" font-family="Arial" x="405" y="377" text-anchor="middle" dominant-baseline="middle" >0</text><line x1="460" y1="361" x2="570" y2="361" stroke="#000000" stroke-width="1" /><line x1="460" y1="391" x2="570" y2="391" stroke="#000000" stroke-width="1" /><line x1="570" y1="361" x2="570" y2="391" stroke="#000000" stroke-width="1" /><line x1="460" y1="361" x2="460" y2="391" stroke="#000000" stroke-width="1" /><text font-size="18" font-family="Arial" x="515" y="377" text-anchor="middle" dominant-baseline="middle" >0</text><line x1="570" y1="361" x2="680" y2="361" stroke="#000000" stroke-width="1" /><line x1="570" y1="391" x2="680" y2="391" stroke="#000000" stroke-width="1" /><line x1="680" y1="361" x2="680" y2="391" stroke="#000000" stroke-width="1" /><line x1="570" y1="361" x2="570" y2="391" stroke="#000000" stroke-width="1" /><text font-size="18" font-family="Arial" x="625" y="377" text-anchor="middle" dominant-baseline="middle" >X</text><line x1="680" y1="361" x2="790" y2="361" stroke="#000000" stroke-width="1" /><line x1="680" y1="391" x2="790" y2="391" stroke="#000000" stroke-width="1" /><line x1="790" y1="361" x2="790" y2="391" stroke="#000000" stroke-width="1" /><line x1="680" y1="361" x2="680" y2="391" stroke="#000000" stroke-width="1" /><text font-size="18" font-family="Arial" x="735" y="377" text-anchor="middle" dominant-baseline="middle" >X</text><line x1="790" y1="361" x2="900" y2="361" stroke="#000000" stroke-width="1" /><line x1="790" y1="391" x2="900" y2="391" stroke="#000000" stroke-width="1" /><line x1="900" y1="361" x2="900" y2="391" stroke="#000000" stroke-width="1" /><line x1="790" y1="361" x2="790" y2="391" stroke="#000000" stroke-width="1" /><text font-size="18" font-family="Arial" x="845" y="377" text-anchor="middle" dominant-baseline="middle" >X</text><line x1="900" y1="361" x2="1010" y2="361" stroke="#000000" stroke-width="1" /><line x1="900" y1="391" x2="1010" y2="391" stroke="#000000" stroke-width="1" /><line x1="1010" y1="361" x2="1010" y2="391" stroke="#000000" stroke-width="1" /><line x1="900" y1="361" x2="900" y2="391" stroke="#000000" stroke-width="1" /><text font-size="18" font-family="Arial" x="955" y="377" text-anchor="middle" dominant-baseline="middle" >X</text><text font-size="18" font-family="Arial" x="15" y="406" text-anchor="end" > </text><rect x="20" y="391" height="30" width="110" fill="#eeeeee" /><line x1="20" y1="391" x2="130" y2="391" stroke="#000000" stroke-width="1" /><line x1="20" y1="421" x2="130" y2="421" stroke="#000000" stroke-width="1" /><line x1="130" y1="391" x2="130" y2="421" stroke="#000000" stroke-width="1" /><line x1="20" y1="391" x2="20" y2="421" stroke="#000000" stroke-width="1" /><text font-size="18" font-family="Arial" x="75" y="407" text-anchor="middle" dominant-baseline="middle" >4</text><rect x="130" y="391" height="30" width="880" fill="#eeeeee" /><line x1="130" y1="391" x2="1010" y2="391" stroke="#000000" stroke-width="1" /><line x1="130" y1="421" x2="1010" y2="421" stroke="#000000" stroke-width="1" /><line x1="1010" y1="391" x2="1010" y2="421" stroke="#000000" stroke-width="1" /><line x1="130" y1="391" x2="130" y2="421" stroke="#000000" stroke-width="1" /><text font-size="18" font-family="Arial" x="570" y="407" text-anchor="middle" dominant-baseline="middle" >Reason Code [OPT]<tspan font-size="12" font-family="Arial" dominant-baseline="middle" > (ONLY WHEN REASON CODE PRESENT FLAG SET)</tspan> (C=0 or 1)</text><text font-size="18" font-family="Arial" x="15" y="436" text-anchor="end" > </text><rect x="20" y="421" height="30" width="110" fill="#eeeeee" /><line x1="20" y1="421" x2="130" y2="421" stroke="#000000" stroke-width="1" /><line x1="20" y1="451" x2="130" y2="451" stroke="#000000" stroke-width="1" /><line x1="130" y1="421" x2="130" y2="451" stroke="#000000" stroke-width="1" /><line x1="20" y1="421" x2="20" y2="451" stroke="#000000" stroke-width="1" /><text font-size="18" font-family="Arial" x="75" y="437" text-anchor="middle" dominant-baseline="middle" >4+C</text><rect x="130" y="421" height="30" width="880" fill="#eeeeee" /><line x1="130" y1="421" x2="1010" y2="421" stroke="#000000" stroke-width="1" /><line x1="130" y1="451" x2="1010" y2="451" stroke="#000000" stroke-width="1" /><line x1="1010" y1="421" x2="1010" y2="451" stroke="#000000" stroke-width="1" /><line x1="130" y1="421" x2="130" y2="451" stroke="#000000" stroke-width="1" /><text font-size="18" font-family="Arial" x="570" y="437" text-anchor="middle" dominant-baseline="middle" >Session Expiry Interval MSB [OPT]<tspan font-size="12" font-family="Arial" dominant-baseline="middle" > (ONLY WHEN SESSION EXPIRY INTERVAL PRESENT FLAG SET)</tspan> (S=0 or 4)</text><text font-size="18" font-family="Arial" x="15" y="466" text-anchor="end" > </text><rect x="20" y="451" height="30" width="110" fill="#eeeeee" /><line x1="20" y1="451" x2="130" y2="451" stroke="#000000" stroke-width="1" /><line x1="20" y1="481" x2="130" y2="481" stroke="#000000" stroke-width="1" /><line x1="130" y1="451" x2="130" y2="481" stroke="#000000" stroke-width="1" /><line x1="20" y1="451" x2="20" y2="481" stroke="#000000" stroke-width="1" /><text font-size="18" font-family="Arial" x="75" y="467" text-anchor="middle" dominant-baseline="middle" >5+C</text><rect x="130" y="451" height="30" width="880" fill="#eeeeee" /><line x1="130" y1="451" x2="1010" y2="451" stroke="#000000" stroke-width="1" /><line x1="130" y1="481" x2="1010" y2="481" stroke="#000000" stroke-width="1" /><line x1="1010" y1="451" x2="1010" y2="481" stroke="#000000" stroke-width="1" /><line x1="130" y1="451" x2="130" y2="481" stroke="#000000" stroke-width="1" /><text font-size="18" font-family="Arial" x="570" y="467" text-anchor="middle" dominant-baseline="middle" >Session Expiry Interval [OPT]<tspan font-size="12" font-family="Arial" dominant-baseline="middle" > (ONLY WHEN SESSION EXPIRY INTERVAL PRESENT FLAG SET)</tspan></text><text font-size="18" font-family="Arial" x="15" y="496" text-anchor="end" > </text><rect x="20" y="481" height="30" width="110" fill="#eeeeee" /><line x1="20" y1="481" x2="130" y2="481" stroke="#000000" stroke-width="1" /><line x1="20" y1="511" x2="130" y2="511" stroke="#000000" stroke-width="1" /><line x1="130" y1="481" x2="130" y2="511" stroke="#000000" stroke-width="1" /><line x1="20" y1="481" x2="20" y2="511" stroke="#000000" stroke-width="1" /><text font-size="18" font-family="Arial" x="75" y="497" text-anchor="middle" dominant-baseline="middle" >6+C</text><rect x="130" y="481" height="30" width="880" fill="#eeeeee" /><line x1="130" y1="481" x2="1010" y2="481" stroke="#000000" stroke-width="1" /><line x1="130" y1="511" x2="1010" y2="511" stroke="#000000" stroke-width="1" /><line x1="1010" y1="481" x2="1010" y2="511" stroke="#000000" stroke-width="1" /><line x1="130" y1="481" x2="130" y2="511" stroke="#000000" stroke-width="1" /><text font-size="18" font-family="Arial" x="570" y="497" text-anchor="middle" dominant-baseline="middle" >Session Expiry Interval [OPT]<tspan font-size="12" font-family="Arial" dominant-baseline="middle" > (ONLY WHEN SESSION EXPIRY INTERVAL PRESENT FLAG SET)</tspan></text><text font-size="18" font-family="Arial" x="15" y="526" text-anchor="end" > </text><rect x="20" y="511" height="30" width="110" fill="#eeeeee" /><line x1="20" y1="511" x2="130" y2="511" stroke="#000000" stroke-width="1" /><line x1="20" y1="541" x2="130" y2="541" stroke="#000000" stroke-width="1" /><line x1="130" y1="511" x2="130" y2="541" stroke="#000000" stroke-width="1" /><line x1="20" y1="511" x2="20" y2="541" stroke="#000000" stroke-width="1" /><text font-size="18" font-family="Arial" x="75" y="527" text-anchor="middle" dominant-baseline="middle" >7+C</text><rect x="130" y="511" height="30" width="880" fill="#eeeeee" /><line x1="130" y1="511" x2="1010" y2="511" stroke="#000000" stroke-width="1" /><line x1="130" y1="541" x2="1010" y2="541" stroke="#000000" stroke-width="1" /><line x1="1010" y1="511" x2="1010" y2="541" stroke="#000000" stroke-width="1" /><line x1="130" y1="511" x2="130" y2="541" stroke="#000000" stroke-width="1" /><text font-size="18" font-family="Arial" x="570" y="527" text-anchor="middle" dominant-baseline="middle" >Session Expiry Interval LSB [OPT]<tspan font-size="12" font-family="Arial" dominant-baseline="middle" > (ONLY WHEN SESSION EXPIRY INTERVAL PRESENT FLAG SET)</tspan></text><text font-size="18" font-family="Arial" x="15" y="556" text-anchor="end" > </text><rect x="20" y="541" height="30" width="110" fill="#eeeeee" /><line x1="20" y1="541" x2="130" y2="541" stroke="#000000" stroke-width="1" /><line x1="20" y1="571" x2="130" y2="571" stroke="#000000" stroke-width="1" /><line x1="130" y1="541" x2="130" y2="571" stroke="#000000" stroke-width="1" /><line x1="20" y1="541" x2="20" y2="571" stroke="#000000" stroke-width="1" /><text font-size="18" font-family="Arial" x="75" y="557" text-anchor="middle" dominant-baseline="middle" >4+C+S:N</text><line x1="130" y1="541" x2="1010" y2="541" stroke="#000000" stroke-width="1" /><line x1="1010" y1="541" x2="1010" y2="571" stroke="#000000" stroke-width="1" /><line x1="130" y1="541" x2="130" y2="571" stroke="#000000" stroke-width="1" /><text font-size="18" font-family="Arial" x="570" y="557" text-anchor="middle" dominant-baseline="middle" >Reason String [OPT]<tspan font-size="12" font-family="Arial" dominant-baseline="middle" > (ONLY WHEN REASON STRING PRESENT FLAG SET) (N)</tspan></text><text font-size="18" font-family="Arial" x="15" y="586" text-anchor="end" > </text><line x1="20" y1="571" x2="20" y2="586" stroke="#000000" stroke-width="1" /><line x1="1010" y1="571" x2="1010" y2="586" stroke="#000000" stroke-width="1" /><line stroke-dasharray="1,1" x1="20" y1="586" x2="1010" y2="616" stroke="#000000" stroke-width="1" /><line x1="1010" y1="571" x2="1010" y2="616" stroke="#000000" stroke-width="1" /><line stroke-dasharray="1,1" x1="20" y1="596" x2="1010" y2="626" stroke="#000000" stroke-width="1" /><line x1="20" y1="596" x2="20" y2="626" stroke="#000000" stroke-width="1" /><line x1="20" y1="626" x2="20" y2="641" stroke="#000000" stroke-width="1" /><line x1="1010" y1="626" x2="1010" y2="641" stroke="#000000" stroke-width="1" /><text font-size="18" font-family="Arial" x="15" y="656" text-anchor="end" > </text><line x1="20" y1="641" x2="1010" y2="641" stroke="#000000" stroke-width="1" /></svg>