<?xml version="1.0" encoding="UTF-8"?><svg xmlns:svg="http://www.w3.org/2000/svg" xmlns="http://www.w3.org/2000/svg" xmlns:xlink="http://www.w3.org/1999/xlink" version="1.0" width="831" height="812" viewBox="0 0 831 812" ><rect x="20" y="1" height="30" width="90" fill="#cfe2f3" /><line x1="20" y1="1" x2="110" y2="1" stroke="#000000" stroke-width="1" /><line x1="20" y1="31" x2="110" y2="31" stroke="#000000" stroke-width="1" /><line x1="110" y1="1" x2="110" y2="31" stroke="#000000" stroke-width="1" /><line x1="20" y1="1" x2="20" y2="31" stroke="#000000" stroke-width="1" /><text font-size="18" font-family="Arial" x="65" y="17" text-anchor="middle" dominant-baseline="middle" >Byte \ Bit</text><rect x="110" y="1" height="30" width="90" fill="#cfe2f3" /><line x1="110" y1="1" x2="200" y2="1" stroke="#000000" stroke-width="1" /><line x1="110" y1="31" x2="200" y2="31" stroke="#000000" stroke-width="1" /><line x1="200" y1="1" x2="200" y2="31" stroke="#000000" stroke-width="1" /><line x1="110" y1="1" x2="110" y2="31" stroke="#000000" stroke-width="1" /><text font-size="18" font-family="Arial" x="155" y="17" text-anchor="middle" dominant-baseline="middle" >7</text><rect x="200" y="1" height="30" width="90" fill="#cfe2f3" /><line x1="200" y1="1" x2="290" y2="1" stroke="#000000" stroke-width="1" /><line x1="200" y1="31" x2="290" y2="31" stroke="#000000" stroke-width="1" /><line x1="290" y1="1" x2="290" y2="31" stroke="#000000" stroke-width="1" /><line x1="200" y1="1" x2="200" y2="31" stroke="#000000" stroke-width="1" /><text font-size="18" font-family="Arial" x="245" y="17" text-anchor="middle" dominant-baseline="middle" >6</text><rect x="290" y="1" height="30" width="90" fill="#cfe2f3" /><line x1="290" y1="1" x2="380" y2="1" stroke="#000000" stroke-width="1" /><line x1="290" y1="31" x2="380" y2="31" stroke="#000000" stroke-width="1" /><line x1="380" y1="1" x2="380" y2="31" stroke="#000000" stroke-width="1" /><line x1="290" y1="1" x2="290" y2="31" stroke="#000000" stroke-width="1" /><text font-size="18" font-family="Arial" x="335" y="17" text-anchor="middle" dominant-baseline="middle" >5</text><rect x="380" y="1" height="30" width="90" fill="#cfe2f3" /><line x1="380" y1="1" x2="470" y2="1" stroke="#000000" stroke-width="1" /><line x1="380" y1="31" x2="470" y2="31" stroke="#000000" stroke-width="1" /><line x1="470" y1="1" x2="470" y2="31" stroke="#000000" stroke-width="1" /><line x1="380" y1="1" x2="380" y2="31" stroke="#000000" stroke-width="1" /><text font-size="18" font-family="Arial" x="425" y="17" text-anchor="middle" dominant-baseline="middle" >4</text><rect x="470" y="1" height="30" width="90" fill="#cfe2f3" /><line x1="470" y1="1" x2="560" y2="1" stroke="#000000" stroke-width="1" /><line x1="470" y1="31" x2="560" y2="31" stroke="#000000" stroke-width="1" /><line x1="560" y1="1" x2="560" y2="31" stroke="#000000" stroke-width="1" /><line x1="470" y1="1" x2="470" y2="31" stroke="#000000" stroke-width="1" /><text font-size="18" font-family="Arial" x="515" y="17" text-anchor="middle" dominant-baseline="middle" >3</text><rect x="560" y="1" height="30" width="90" fill="#cfe2f3" /><line x1="560" y1="1" x2="650" y2="1" stroke="#000000" stroke-width="1" /><line x1="560" y1="31" x2="650" y2="31" stroke="#000000" stroke-width="1" /><line x1="650" y1="1" x2="650" y2="31" stroke="#000000" stroke-width="1" /><line x1="560" y1="1" x2="560" y2="31" stroke="#000000" stroke-width="1" /><text font-size="18" font-family="Arial" x="605" y="17" text-anchor="middle" dominant-baseline="middle" >2</text><rect x="650" y="1" height="30" width="90" fill="#cfe2f3" /><line x1="650" y1="1" x2="740" y2="1" stroke="#000000" stroke-width="1" /><line x1="650" y1="31" x2="740" y2="31" stroke="#000000" stroke-width="1" /><line x1="740" y1="1" x2="740" y2="31" stroke="#000000" stroke-width="1" /><line x1="650" y1="1" x2="650" y2="31" stroke="#000000" stroke-width="1" /><text font-size="18" font-family="Arial" x="695" y="17" text-anchor="middle" dominant-baseline="middle" >1</text><rect x="740" y="1" height="30" width="90" fill="#cfe2f3" /><line x1="740" y1="1" x2="830" y2="1" stroke="#000000" stroke-width="1" /><line x1="740" y1="31" x2="830" y2="31" stroke="#000000" stroke-width="1" /><line x1="830" y1="1" x2="830" y2="31" stroke="#000000" stroke-width="1" /><line x1="740" y1="1" x2="740" y2="31" stroke="#000000" stroke-width="1" /><text font-size="18" font-family="Arial" x="785" y="17" text-anchor="middle" dominant-baseline="middle" >0</text><text font-size="18" font-family="Arial" x="15" y="16" text-anchor="end" > </text><text font-size="18" font-family="Arial" x="15" y="46" text-anchor="end" > </text><line x1="20" y1="31" x2="110" y2="31" stroke="#000000" stroke-width="1" /><line x1="20" y1="61" x2="110" y2="61" stroke="#000000" stroke-width="1" /><line x1="110" y1="31" x2="110" y2="61" stroke="#000000" stroke-width="1" /><line x1="20" y1="31" x2="20" y2="61" stroke="#000000" stroke-width="1" /><text font-size="18" font-family="Arial" x="65" y="47" text-anchor="middle" dominant-baseline="middle" >1</text><line x1="110" y1="31" x2="830" y2="31" stroke="#000000" stroke-width="1" /><line x1="110" y1="61" x2="830" y2="61" stroke="#000000" stroke-width="1" /><line x1="830" y1="31" x2="830" y2="61" stroke="#000000" stroke-width="1" /><line x1="110" y1="31" x2="110" y2="61" stroke="#000000" stroke-width="1" /><text font-size="18" font-family="Arial" x="114" y="47" text-anchor="start" dominant-baseline="middle" >Length</text><text font-size="18" font-family="Arial" x="15" y="76" text-anchor="end" > </text><line x1="20" y1="61" x2="110" y2="61" stroke="#000000" stroke-width="1" /><line x1="20" y1="91" x2="110" y2="91" stroke="#000000" stroke-width="1" /><line x1="110" y1="61" x2="110" y2="91" stroke="#000000" stroke-width="1" /><line x1="20" y1="61" x2="20" y2="91" stroke="#000000" stroke-width="1" /><text font-size="18" font-family="Arial" x="65" y="77" text-anchor="middle" dominant-baseline="middle" >2</text><line x1="110" y1="61" x2="830" y2="61" stroke="#000000" stroke-width="1" /><line x1="110" y1="91" x2="830" y2="91" stroke="#000000" stroke-width="1" /><line x1="830" y1="61" x2="830" y2="91" stroke="#000000" stroke-width="1" /><line x1="110" y1="61" x2="110" y2="91" stroke="#000000" stroke-width="1" /><text font-size="18" font-family="Arial" x="114" y="77" text-anchor="start" dominant-baseline="middle" >Packet Type</text><text font-size="18" font-family="Arial" x="15" y="106" text-anchor="end" > </text><rect x="20" y="91" height="30" width="810" fill="#dddddd" /><line x1="20" y1="91" x2="830" y2="91" stroke="#000000" stroke-width="1" /><line x1="20" y1="121" x2="830" y2="121" stroke="#000000" stroke-width="1" /><line x1="830" y1="91" x2="830" y2="121" stroke="#000000" stroke-width="1" /><line x1="20" y1="91" x2="20" y2="121" stroke="#000000" stroke-width="1" /><text font-size="18" font-family="Arial" x="24" y="107" text-anchor="start" dominant-baseline="middle" >Protection Flags</text><text font-size="18" font-family="Arial" x="15" y="136" text-anchor="end" > </text><line x1="20" y1="121" x2="110" y2="121" stroke="#000000" stroke-width="1" /><line x1="20" y1="151" x2="110" y2="151" stroke="#000000" stroke-width="1" /><line x1="110" y1="121" x2="110" y2="151" stroke="#000000" stroke-width="1" /><line x1="20" y1="121" x2="20" y2="151" stroke="#000000" stroke-width="1" /><rect x="110" y="121" height="30" width="360" fill="#eeeeee" /><line x1="110" y1="121" x2="470" y2="121" stroke="#000000" stroke-width="1" /><line x1="110" y1="151" x2="470" y2="151" stroke="#000000" stroke-width="1" /><line x1="470" y1="121" x2="470" y2="151" stroke="#000000" stroke-width="1" /><line x1="110" y1="121" x2="110" y2="151" stroke="#000000" stroke-width="1" /><text font-size="18" font-family="Arial" x="290" y="137" text-anchor="middle" dominant-baseline="middle" >Authentication Tag Length</text><rect x="470" y="121" height="30" width="180" fill="#eeeeee" /><line x1="470" y1="121" x2="650" y2="121" stroke="#000000" stroke-width="1" /><line x1="470" y1="151" x2="650" y2="151" stroke="#000000" stroke-width="1" /><line x1="650" y1="121" x2="650" y2="151" stroke="#000000" stroke-width="1" /><line x1="470" y1="121" x2="470" y2="151" stroke="#000000" stroke-width="1" /><text font-size="18" font-family="Arial" x="560" y="137" text-anchor="middle" dominant-baseline="middle" >Crypto Length (C)</text><rect x="650" y="121" height="30" width="180" fill="#eeeeee" /><line x1="650" y1="121" x2="830" y2="121" stroke="#000000" stroke-width="1" /><line x1="650" y1="151" x2="830" y2="151" stroke="#000000" stroke-width="1" /><line x1="830" y1="121" x2="830" y2="151" stroke="#000000" stroke-width="1" /><line x1="650" y1="121" x2="650" y2="151" stroke="#000000" stroke-width="1" /><text font-size="18" font-family="Arial" x="740" y="137" text-anchor="middle" dominant-baseline="middle" >Counter Length (M)</text><text font-size="18" font-family="Arial" x="15" y="166" text-anchor="end" > </text><line x1="20" y1="151" x2="110" y2="151" stroke="#000000" stroke-width="1" /><line x1="20" y1="181" x2="110" y2="181" stroke="#000000" stroke-width="1" /><line x1="110" y1="151" x2="110" y2="181" stroke="#000000" stroke-width="1" /><line x1="20" y1="151" x2="20" y2="181" stroke="#000000" stroke-width="1" /><text font-size="18" font-family="Arial" x="65" y="167" text-anchor="middle" dominant-baseline="middle" >3</text><line x1="110" y1="151" x2="200" y2="151" stroke="#000000" stroke-width="1" /><line x1="110" y1="181" x2="200" y2="181" stroke="#000000" stroke-width="1" /><line x1="200" y1="151" x2="200" y2="181" stroke="#000000" stroke-width="1" /><line x1="110" y1="151" x2="110" y2="181" stroke="#000000" stroke-width="1" /><text font-size="18" font-family="Arial" x="155" y="167" text-anchor="middle" dominant-baseline="middle" >X</text><line x1="200" y1="151" x2="290" y2="151" stroke="#000000" stroke-width="1" /><line x1="200" y1="181" x2="290" y2="181" stroke="#000000" stroke-width="1" /><line x1="290" y1="151" x2="290" y2="181" stroke="#000000" stroke-width="1" /><line x1="200" y1="151" x2="200" y2="181" stroke="#000000" stroke-width="1" /><text font-size="18" font-family="Arial" x="245" y="167" text-anchor="middle" dominant-baseline="middle" >X</text><line x1="290" y1="151" x2="380" y2="151" stroke="#000000" stroke-width="1" /><line x1="290" y1="181" x2="380" y2="181" stroke="#000000" stroke-width="1" /><line x1="380" y1="151" x2="380" y2="181" stroke="#000000" stroke-width="1" /><line x1="290" y1="151" x2="290" y2="181" stroke="#000000" stroke-width="1" /><text font-size="18" font-family="Arial" x="335" y="167" text-anchor="middle" dominant-baseline="middle" >X</text><line x1="380" y1="151" x2="470" y2="151" stroke="#000000" stroke-width="1" /><line x1="380" y1="181" x2="470" y2="181" stroke="#000000" stroke-width="1" /><line x1="470" y1="151" x2="470" y2="181" stroke="#000000" stroke-width="1" /><line x1="380" y1="151" x2="380" y2="181" stroke="#000000" stroke-width="1" /><text font-size="18" font-family="Arial" x="425" y="167" text-anchor="middle" dominant-baseline="middle" >X</text><line x1="470" y1="151" x2="560" y2="151" stroke="#000000" stroke-width="1" /><line x1="470" y1="181" x2="560" y2="181" stroke="#000000" stroke-width="1" /><line x1="560" y1="151" x2="560" y2="181" stroke="#000000" stroke-width="1" /><line x1="470" y1="151" x2="470" y2="181" stroke="#000000" stroke-width="1" /><text font-size="18" font-family="Arial" x="515" y="167" text-anchor="middle" dominant-baseline="middle" >X</text><line x1="560" y1="151" x2="650" y2="151" stroke="#000000" stroke-width="1" /><line x1="560" y1="181" x2="650" y2="181" stroke="#000000" stroke-width="1" /><line x1="650" y1="151" x2="650" y2="181" stroke="#000000" stroke-width="1" /><line x1="560" y1="151" x2="560" y2="181" stroke="#000000" stroke-width="1" /><text font-size="18" font-family="Arial" x="605" y="167" text-anchor="middle" dominant-baseline="middle" >X</text><line x1="650" y1="151" x2="740" y2="151" stroke="#000000" stroke-width="1" /><line x1="650" y1="181" x2="740" y2="181" stroke="#000000" stroke-width="1" /><line x1="740" y1="151" x2="740" y2="181" stroke="#000000" stroke-width="1" /><line x1="650" y1="151" x2="650" y2="181" stroke="#000000" stroke-width="1" /><text font-size="18" font-family="Arial" x="695" y="167" text-anchor="middle" dominant-baseline="middle" >X</text><line x1="740" y1="151" x2="830" y2="151" stroke="#000000" stroke-width="1" /><line x1="740" y1="181" x2="830" y2="181" stroke="#000000" stroke-width="1" /><line x1="830" y1="151" x2="830" y2="181" stroke="#000000" stroke-width="1" /><line x1="740" y1="151" x2="740" y2="181" stroke="#000000" stroke-width="1" /><text font-size="18" font-family="Arial" x="785" y="167" text-anchor="middle" dominant-baseline="middle" >X</text><text font-size="18" font-family="Arial" x="15" y="196" text-anchor="end" > </text><line x1="20" y1="181" x2="110" y2="181" stroke="#000000" stroke-width="1" /><line x1="20" y1="211" x2="110" y2="211" stroke="#000000" stroke-width="1" /><line x1="110" y1="181" x2="110" y2="211" stroke="#000000" stroke-width="1" /><line x1="20" y1="181" x2="20" y2="211" stroke="#000000" stroke-width="1" /><text font-size="18" font-family="Arial" x="65" y="197" text-anchor="middle" dominant-baseline="middle" >4</text><line x1="110" y1="181" x2="830" y2="181" stroke="#000000" stroke-width="1" /><line x1="110" y1="211" x2="830" y2="211" stroke="#000000" stroke-width="1" /><line x1="830" y1="181" x2="830" y2="211" stroke="#000000" stroke-width="1" /><line x1="110" y1="181" x2="110" y2="211" stroke="#000000" stroke-width="1" /><text font-size="18" font-family="Arial" x="114" y="197" text-anchor="start" dominant-baseline="middle" >Protection Scheme</text><text font-size="18" font-family="Arial" x="15" y="226" text-anchor="end" > </text><line x1="20" y1="211" x2="110" y2="211" stroke="#000000" stroke-width="1" /><line x1="20" y1="241" x2="110" y2="241" stroke="#000000" stroke-width="1" /><line x1="110" y1="211" x2="110" y2="241" stroke="#000000" stroke-width="1" /><line x1="20" y1="211" x2="20" y2="241" stroke="#000000" stroke-width="1" /><text font-size="18" font-family="Arial" x="65" y="227" text-anchor="middle" dominant-baseline="middle" >5</text><line x1="110" y1="211" x2="830" y2="211" stroke="#000000" stroke-width="1" /><line x1="830" y1="211" x2="830" y2="241" stroke="#000000" stroke-width="1" /><line x1="110" y1="211" x2="110" y2="241" stroke="#000000" stroke-width="1" /><text font-size="18" font-family="Arial" x="470" y="227" text-anchor="middle" dominant-baseline="middle" >Sender Identifier (8)</text><text font-size="18" font-family="Arial" x="15" y="256" text-anchor="end" > </text><line x1="20" y1="241" x2="20" y2="256" stroke="#000000" stroke-width="1" /><line x1="830" y1="241" x2="830" y2="286" stroke="#000000" stroke-width="1" /><line stroke-dasharray="1,1" x1="20" y1="256" x2="830" y2="286" stroke="#000000" stroke-width="1" /><line x1="20" y1="266" x2="20" y2="311" stroke="#000000" stroke-width="1" /><line x1="830" y1="296" x2="830" y2="311" stroke="#000000" stroke-width="1" /><line stroke-dasharray="1,1" x1="20" y1="266" x2="830" y2="296" stroke="#000000" stroke-width="1" /><text font-size="18" font-family="Arial" x="15" y="326" text-anchor="end" > </text><line x1="20" y1="311" x2="110" y2="311" stroke="#000000" stroke-width="1" /><line x1="20" y1="341" x2="110" y2="341" stroke="#000000" stroke-width="1" /><line x1="110" y1="311" x2="110" y2="341" stroke="#000000" stroke-width="1" /><line x1="20" y1="311" x2="20" y2="341" stroke="#000000" stroke-width="1" /><text font-size="18" font-family="Arial" x="65" y="327" text-anchor="middle" dominant-baseline="middle" >13</text><line x1="110" y1="311" x2="830" y2="311" stroke="#000000" stroke-width="1" /><line x1="830" y1="311" x2="830" y2="341" stroke="#000000" stroke-width="1" /><line x1="110" y1="311" x2="110" y2="341" stroke="#000000" stroke-width="1" /><text font-size="18" font-family="Arial" x="470" y="327" text-anchor="middle" dominant-baseline="middle" >Random (4)</text><text font-size="18" font-family="Arial" x="15" y="326" text-anchor="end" > </text><text font-size="18" font-family="Arial" x="15" y="356" text-anchor="end" > </text><line x1="20" y1="341" x2="20" y2="356" stroke="#000000" stroke-width="1" /><line x1="830" y1="341" x2="830" y2="386" stroke="#000000" stroke-width="1" /><line stroke-dasharray="1,1" x1="20" y1="356" x2="830" y2="386" stroke="#000000" stroke-width="1" /><line x1="20" y1="366" x2="20" y2="411" stroke="#000000" stroke-width="1" /><line x1="830" y1="396" x2="830" y2="411" stroke="#000000" stroke-width="1" /><line stroke-dasharray="1,1" x1="20" y1="366" x2="830" y2="396" stroke="#000000" stroke-width="1" /><text font-size="18" font-family="Arial" x="15" y="426" text-anchor="end" > </text><rect x="20" y="411" height="30" width="90" fill="#eeeeee" /><line x1="20" y1="411" x2="110" y2="411" stroke="#000000" stroke-width="1" /><line x1="20" y1="441" x2="110" y2="441" stroke="#000000" stroke-width="1" /><line x1="110" y1="411" x2="110" y2="441" stroke="#000000" stroke-width="1" /><line x1="20" y1="411" x2="20" y2="441" stroke="#000000" stroke-width="1" /><text font-size="18" font-family="Arial" x="65" y="427" text-anchor="middle" dominant-baseline="middle" >17</text><rect x="110" y="411" height="30" width="720" fill="#eeeeee" /><line x1="110" y1="411" x2="830" y2="411" stroke="#000000" stroke-width="1" /><line x1="830" y1="411" x2="830" y2="441" stroke="#000000" stroke-width="1" /><line x1="110" y1="411" x2="110" y2="441" stroke="#000000" stroke-width="1" /><text font-size="18" font-family="Arial" x="470" y="427" text-anchor="middle" dominant-baseline="middle" >Crypto Material (C)<tspan font-style="italic" font-size="18" font-family="Arial" dominant-baseline="middle" > - only present if Crypto Length > 0</tspan></text><text font-size="18" font-family="Arial" x="15" y="426" text-anchor="end" > </text><text font-size="18" font-family="Arial" x="15" y="456" text-anchor="end" > </text><polygon points=" 20,441 830,441 830,486 20,456" fill="#eeeeee" /><line x1="20" y1="441" x2="20" y2="456" stroke="#000000" stroke-width="1" /><line x1="830" y1="441" x2="830" y2="486" stroke="#000000" stroke-width="1" /><line stroke-dasharray="1,1" x1="20" y1="456" x2="830" y2="486" stroke="#000000" stroke-width="1" /><polygon points=" 20,466 830,496 830,511 20,511" fill="#eeeeee" /><line x1="20" y1="466" x2="20" y2="511" stroke="#000000" stroke-width="1" /><line x1="830" y1="496" x2="830" y2="511" stroke="#000000" stroke-width="1" /><line stroke-dasharray="1,1" x1="20" y1="466" x2="830" y2="496" stroke="#000000" stroke-width="1" /><text font-size="18" font-family="Arial" x="15" y="526" text-anchor="end" > </text><rect x="20" y="511" height="30" width="90" fill="#eeeeee" /><line x1="20" y1="511" x2="110" y2="511" stroke="#000000" stroke-width="1" /><line x1="20" y1="541" x2="110" y2="541" stroke="#000000" stroke-width="1" /><line x1="110" y1="511" x2="110" y2="541" stroke="#000000" stroke-width="1" /><line x1="20" y1="511" x2="20" y2="541" stroke="#000000" stroke-width="1" /><text font-size="18" font-family="Arial" x="65" y="527" text-anchor="middle" dominant-baseline="middle" >17+C</text><rect x="110" y="511" height="30" width="720" fill="#eeeeee" /><line x1="110" y1="511" x2="830" y2="511" stroke="#000000" stroke-width="1" /><line x1="830" y1="511" x2="830" y2="541" stroke="#000000" stroke-width="1" /><line x1="110" y1="511" x2="110" y2="541" stroke="#000000" stroke-width="1" /><text font-size="18" font-family="Arial" x="470" y="527" text-anchor="middle" dominant-baseline="middle" >Monotonic Counter (M)<tspan font-style="italic" font-size="18" font-family="Arial" dominant-baseline="middle" > - only present if Counter Length > 0</tspan></text><text font-size="18" font-family="Arial" x="15" y="526" text-anchor="end" > </text><text font-size="18" font-family="Arial" x="15" y="556" text-anchor="end" > </text><polygon points=" 20,541 830,541 830,586 20,556" fill="#eeeeee" /><line x1="20" y1="541" x2="20" y2="556" stroke="#000000" stroke-width="1" /><line x1="830" y1="541" x2="830" y2="586" stroke="#000000" stroke-width="1" /><line stroke-dasharray="1,1" x1="20" y1="556" x2="830" y2="586" stroke="#000000" stroke-width="1" /><polygon points=" 20,566 830,596 830,611 20,611" fill="#eeeeee" /><line x1="20" y1="566" x2="20" y2="611" stroke="#000000" stroke-width="1" /><line x1="830" y1="596" x2="830" y2="611" stroke="#000000" stroke-width="1" /><line stroke-dasharray="1,1" x1="20" y1="566" x2="830" y2="596" stroke="#000000" stroke-width="1" /><text font-size="18" font-family="Arial" x="15" y="626" text-anchor="end" > </text><line x1="20" y1="611" x2="110" y2="611" stroke="#000000" stroke-width="1" /><line x1="20" y1="641" x2="110" y2="641" stroke="#000000" stroke-width="1" /><line x1="110" y1="611" x2="110" y2="641" stroke="#000000" stroke-width="1" /><line x1="20" y1="611" x2="20" y2="641" stroke="#000000" stroke-width="1" /><text font-size="18" font-family="Arial" x="65" y="627" text-anchor="middle" dominant-baseline="middle" >17+C+M</text><line x1="110" y1="611" x2="830" y2="611" stroke="#000000" stroke-width="1" /><line x1="830" y1="611" x2="830" y2="641" stroke="#000000" stroke-width="1" /><line x1="110" y1="611" x2="110" y2="641" stroke="#000000" stroke-width="1" /><text font-size="18" font-family="Arial" x="470" y="627" text-anchor="middle" dominant-baseline="middle" >Protected MQTT-SN Packet (P)</text><text font-size="18" font-family="Arial" x="15" y="626" text-anchor="end" > </text><text font-size="18" font-family="Arial" x="15" y="656" text-anchor="end" > </text><line x1="20" y1="641" x2="20" y2="656" stroke="#000000" stroke-width="1" /><line x1="830" y1="641" x2="830" y2="686" stroke="#000000" stroke-width="1" /><line stroke-dasharray="1,1" x1="20" y1="656" x2="830" y2="686" stroke="#000000" stroke-width="1" /><line x1="20" y1="666" x2="20" y2="711" stroke="#000000" stroke-width="1" /><line x1="830" y1="696" x2="830" y2="711" stroke="#000000" stroke-width="1" /><line stroke-dasharray="1,1" x1="20" y1="666" x2="830" y2="696" stroke="#000000" stroke-width="1" /><text font-size="18" font-family="Arial" x="15" y="726" text-anchor="end" > </text><line x1="20" y1="711" x2="110" y2="711" stroke="#000000" stroke-width="1" /><line x1="20" y1="741" x2="110" y2="741" stroke="#000000" stroke-width="1" /><line x1="110" y1="711" x2="110" y2="741" stroke="#000000" stroke-width="1" /><line x1="20" y1="711" x2="20" y2="741" stroke="#000000" stroke-width="1" /><text font-size="14" font-family="Arial" x="65" y="727" text-anchor="middle" dominant-baseline="middle" >17+C+M+P</text><line x1="110" y1="711" x2="830" y2="711" stroke="#000000" stroke-width="1" /><line x1="830" y1="711" x2="830" y2="741" stroke="#000000" stroke-width="1" /><line x1="110" y1="711" x2="110" y2="741" stroke="#000000" stroke-width="1" /><text font-size="18" font-family="Arial" x="470" y="727" text-anchor="middle" dominant-baseline="middle" >Authentication Tag</text><text font-size="18" font-family="Arial" x="15" y="726" text-anchor="end" > </text><text font-size="18" font-family="Arial" x="15" y="756" text-anchor="end" > </text><line x1="20" y1="741" x2="20" y2="756" stroke="#000000" stroke-width="1" /><line x1="830" y1="741" x2="830" y2="786" stroke="#000000" stroke-width="1" /><line stroke-dasharray="1,1" x1="20" y1="756" x2="830" y2="786" stroke="#000000" stroke-width="1" /><line x1="20" y1="766" x2="20" y2="811" stroke="#000000" stroke-width="1" /><line x1="830" y1="796" x2="830" y2="811" stroke="#000000" stroke-width="1" /><line stroke-dasharray="1,1" x1="20" y1="766" x2="830" y2="796" stroke="#000000" stroke-width="1" /><text font-size="18" font-family="Arial" x="15" y="826" text-anchor="end" > </text><line x1="20" y1="811" x2="830" y2="811" stroke="#000000" stroke-width="1" /></svg>