<?xml version="1.0" encoding="UTF-8"?><svg xmlns:svg="http://www.w3.org/2000/svg" xmlns="http://www.w3.org/2000/svg" xmlns:xlink="http://www.w3.org/1999/xlink" version="1.0" width="921" height="812" viewBox="0 0 921 812" ><rect x="20" y="1" height="30" width="100" fill="#cfe2f3" /><line x1="20" y1="1" x2="120" y2="1" stroke="#000000" stroke-width="1" /><line x1="20" y1="31" x2="120" y2="31" stroke="#000000" stroke-width="1" /><line x1="120" y1="1" x2="120" y2="31" stroke="#000000" stroke-width="1" /><line x1="20" y1="1" x2="20" y2="31" stroke="#000000" stroke-width="1" /><text font-size="18" font-family="Palatino, Georgia, Times New Roman, serif" x="70" y="17" text-anchor="middle" dominant-baseline="middle" >Byte \ Bit</text><rect x="120" y="1" height="30" width="100" fill="#cfe2f3" /><line x1="120" y1="1" x2="220" y2="1" stroke="#000000" stroke-width="1" /><line x1="120" y1="31" x2="220" y2="31" stroke="#000000" stroke-width="1" /><line x1="220" y1="1" x2="220" y2="31" stroke="#000000" stroke-width="1" /><line x1="120" y1="1" x2="120" y2="31" stroke="#000000" stroke-width="1" /><text font-size="18" font-family="Palatino, Georgia, Times New Roman, serif" x="170" y="17" text-anchor="middle" dominant-baseline="middle" >7</text><rect x="220" y="1" height="30" width="100" fill="#cfe2f3" /><line x1="220" y1="1" x2="320" y2="1" stroke="#000000" stroke-width="1" /><line x1="220" y1="31" x2="320" y2="31" stroke="#000000" stroke-width="1" /><line x1="320" y1="1" x2="320" y2="31" stroke="#000000" stroke-width="1" /><line x1="220" y1="1" x2="220" y2="31" stroke="#000000" stroke-width="1" /><text font-size="18" font-family="Palatino, Georgia, Times New Roman, serif" x="270" y="17" text-anchor="middle" dominant-baseline="middle" >6</text><rect x="320" y="1" height="30" width="100" fill="#cfe2f3" /><line x1="320" y1="1" x2="420" y2="1" stroke="#000000" stroke-width="1" /><line x1="320" y1="31" x2="420" y2="31" stroke="#000000" stroke-width="1" /><line x1="420" y1="1" x2="420" y2="31" stroke="#000000" stroke-width="1" /><line x1="320" y1="1" x2="320" y2="31" stroke="#000000" stroke-width="1" /><text font-size="18" font-family="Palatino, Georgia, Times New Roman, serif" x="370" y="17" text-anchor="middle" dominant-baseline="middle" >5</text><rect x="420" y="1" height="30" width="100" fill="#cfe2f3" /><line x1="420" y1="1" x2="520" y2="1" stroke="#000000" stroke-width="1" /><line x1="420" y1="31" x2="520" y2="31" stroke="#000000" stroke-width="1" /><line x1="520" y1="1" x2="520" y2="31" stroke="#000000" stroke-width="1" /><line x1="420" y1="1" x2="420" y2="31" stroke="#000000" stroke-width="1" /><text font-size="18" font-family="Palatino, Georgia, Times New Roman, serif" x="470" y="17" text-anchor="middle" dominant-baseline="middle" >4</text><rect x="520" y="1" height="30" width="100" fill="#cfe2f3" /><line x1="520" y1="1" x2="620" y2="1" stroke="#000000" stroke-width="1" /><line x1="520" y1="31" x2="620" y2="31" stroke="#000000" stroke-width="1" /><line x1="620" y1="1" x2="620" y2="31" stroke="#000000" stroke-width="1" /><line x1="520" y1="1" x2="520" y2="31" stroke="#000000" stroke-width="1" /><text font-size="18" font-family="Palatino, Georgia, Times New Roman, serif" x="570" y="17" text-anchor="middle" dominant-baseline="middle" >3</text><rect x="620" y="1" height="30" width="100" fill="#cfe2f3" /><line x1="620" y1="1" x2="720" y2="1" stroke="#000000" stroke-width="1" /><line x1="620" y1="31" x2="720" y2="31" stroke="#000000" stroke-width="1" /><line x1="720" y1="1" x2="720" y2="31" stroke="#000000" stroke-width="1" /><line x1="620" y1="1" x2="620" y2="31" stroke="#000000" stroke-width="1" /><text font-size="18" font-family="Palatino, Georgia, Times New Roman, serif" x="670" y="17" text-anchor="middle" dominant-baseline="middle" >2</text><rect x="720" y="1" height="30" width="100" fill="#cfe2f3" /><line x1="720" y1="1" x2="820" y2="1" stroke="#000000" stroke-width="1" /><line x1="720" y1="31" x2="820" y2="31" stroke="#000000" stroke-width="1" /><line x1="820" y1="1" x2="820" y2="31" stroke="#000000" stroke-width="1" /><line x1="720" y1="1" x2="720" y2="31" stroke="#000000" stroke-width="1" /><text font-size="18" font-family="Palatino, Georgia, Times New Roman, serif" x="770" y="17" text-anchor="middle" dominant-baseline="middle" >1</text><rect x="820" y="1" height="30" width="100" fill="#cfe2f3" /><line x1="820" y1="1" x2="920" y2="1" stroke="#000000" stroke-width="1" /><line x1="820" y1="31" x2="920" y2="31" stroke="#000000" stroke-width="1" /><line x1="920" y1="1" x2="920" y2="31" stroke="#000000" stroke-width="1" /><line x1="820" y1="1" x2="820" y2="31" stroke="#000000" stroke-width="1" /><text font-size="18" font-family="Palatino, Georgia, Times New Roman, serif" x="870" y="17" text-anchor="middle" dominant-baseline="middle" >0</text><text font-size="18" font-family="Palatino, Georgia, Times New Roman, serif" x="15" y="16" text-anchor="end" > </text><text font-size="18" font-family="Palatino, Georgia, Times New Roman, serif" x="15" y="46" text-anchor="end" > </text><line x1="20" y1="31" x2="120" y2="31" stroke="#000000" stroke-width="1" /><line x1="20" y1="61" x2="120" y2="61" stroke="#000000" stroke-width="1" /><line x1="120" y1="31" x2="120" y2="61" stroke="#000000" stroke-width="1" /><line x1="20" y1="31" x2="20" y2="61" stroke="#000000" stroke-width="1" /><text font-size="18" font-family="Palatino, Georgia, Times New Roman, serif" x="70" y="47" text-anchor="middle" dominant-baseline="middle" >1</text><line x1="120" y1="31" x2="920" y2="31" stroke="#000000" stroke-width="1" /><line x1="120" y1="61" x2="920" y2="61" stroke="#000000" stroke-width="1" /><line x1="920" y1="31" x2="920" y2="61" stroke="#000000" stroke-width="1" /><line x1="120" y1="31" x2="120" y2="61" stroke="#000000" stroke-width="1" /><text font-size="18" font-family="Palatino, Georgia, Times New Roman, serif" x="520" y="47" text-anchor="middle" dominant-baseline="middle" >Length</text><text font-size="18" font-family="Palatino, Georgia, Times New Roman, serif" x="15" y="76" text-anchor="end" > </text><line x1="20" y1="61" x2="120" y2="61" stroke="#000000" stroke-width="1" /><line x1="20" y1="91" x2="120" y2="91" stroke="#000000" stroke-width="1" /><line x1="120" y1="61" x2="120" y2="91" stroke="#000000" stroke-width="1" /><line x1="20" y1="61" x2="20" y2="91" stroke="#000000" stroke-width="1" /><text font-size="18" font-family="Palatino, Georgia, Times New Roman, serif" x="70" y="77" text-anchor="middle" dominant-baseline="middle" >2</text><line x1="120" y1="61" x2="920" y2="61" stroke="#000000" stroke-width="1" /><line x1="120" y1="91" x2="920" y2="91" stroke="#000000" stroke-width="1" /><line x1="920" y1="61" x2="920" y2="91" stroke="#000000" stroke-width="1" /><line x1="120" y1="61" x2="120" y2="91" stroke="#000000" stroke-width="1" /><text font-size="18" font-family="Palatino, Georgia, Times New Roman, serif" x="520" y="77" text-anchor="middle" dominant-baseline="middle" >Packet Type</text><text font-size="18" font-family="Palatino, Georgia, Times New Roman, serif" x="15" y="106" text-anchor="end" > </text><line x1="20" y1="91" x2="120" y2="91" stroke="#000000" stroke-width="1" /><line x1="20" y1="121" x2="120" y2="121" stroke="#000000" stroke-width="1" /><line x1="120" y1="91" x2="120" y2="121" stroke="#000000" stroke-width="1" /><line x1="20" y1="91" x2="20" y2="121" stroke="#000000" stroke-width="1" /><rect x="120" y="91" height="30" width="800" fill="#dddddd" /><line x1="120" y1="91" x2="920" y2="91" stroke="#000000" stroke-width="1" /><line x1="120" y1="121" x2="920" y2="121" stroke="#000000" stroke-width="1" /><line x1="920" y1="91" x2="920" y2="121" stroke="#000000" stroke-width="1" /><line x1="120" y1="91" x2="120" y2="121" stroke="#000000" stroke-width="1" /><text font-size="18" font-family="Palatino, Georgia, Times New Roman, serif" x="520" y="107" text-anchor="middle" dominant-baseline="middle" >PROTECTION FLAGS</text><text font-size="18" font-family="Palatino, Georgia, Times New Roman, serif" x="15" y="136" text-anchor="end" > </text><line x1="20" y1="121" x2="120" y2="121" stroke="#000000" stroke-width="1" /><line x1="20" y1="151" x2="120" y2="151" stroke="#000000" stroke-width="1" /><line x1="120" y1="121" x2="120" y2="151" stroke="#000000" stroke-width="1" /><line x1="20" y1="121" x2="20" y2="151" stroke="#000000" stroke-width="1" /><rect x="120" y="121" height="30" width="400" fill="#eeeeee" /><line x1="120" y1="121" x2="520" y2="121" stroke="#000000" stroke-width="1" /><line x1="120" y1="151" x2="520" y2="151" stroke="#000000" stroke-width="1" /><line x1="520" y1="121" x2="520" y2="151" stroke="#000000" stroke-width="1" /><line x1="120" y1="121" x2="120" y2="151" stroke="#000000" stroke-width="1" /><text font-size="14" font-family="Arial" x="320" y="137" text-anchor="middle" dominant-baseline="middle" >Auth Tag Length</text><rect x="520" y="121" height="30" width="200" fill="#eeeeee" /><line x1="520" y1="121" x2="720" y2="121" stroke="#000000" stroke-width="1" /><line x1="520" y1="151" x2="720" y2="151" stroke="#000000" stroke-width="1" /><line x1="720" y1="121" x2="720" y2="151" stroke="#000000" stroke-width="1" /><line x1="520" y1="121" x2="520" y2="151" stroke="#000000" stroke-width="1" /><text font-size="14" font-family="Arial" x="620" y="137" text-anchor="middle" dominant-baseline="middle" >Crypto Material Length (C)</text><rect x="720" y="121" height="30" width="200" fill="#eeeeee" /><line x1="720" y1="121" x2="920" y2="121" stroke="#000000" stroke-width="1" /><line x1="720" y1="151" x2="920" y2="151" stroke="#000000" stroke-width="1" /><line x1="920" y1="121" x2="920" y2="151" stroke="#000000" stroke-width="1" /><line x1="720" y1="121" x2="720" y2="151" stroke="#000000" stroke-width="1" /><text font-size="14" font-family="Arial" x="820" y="137" text-anchor="middle" dominant-baseline="middle" >Monotonic Counter Length (D)</text><text font-size="18" font-family="Palatino, Georgia, Times New Roman, serif" x="15" y="166" text-anchor="end" > </text><line x1="20" y1="151" x2="120" y2="151" stroke="#000000" stroke-width="1" /><line x1="20" y1="181" x2="120" y2="181" stroke="#000000" stroke-width="1" /><line x1="120" y1="151" x2="120" y2="181" stroke="#000000" stroke-width="1" /><line x1="20" y1="151" x2="20" y2="181" stroke="#000000" stroke-width="1" /><text font-size="18" font-family="Palatino, Georgia, Times New Roman, serif" x="70" y="167" text-anchor="middle" dominant-baseline="middle" >3</text><line x1="120" y1="151" x2="220" y2="151" stroke="#000000" stroke-width="1" /><line x1="120" y1="181" x2="220" y2="181" stroke="#000000" stroke-width="1" /><line x1="220" y1="151" x2="220" y2="181" stroke="#000000" stroke-width="1" /><line x1="120" y1="151" x2="120" y2="181" stroke="#000000" stroke-width="1" /><text font-size="18" font-family="Palatino, Georgia, Times New Roman, serif" x="170" y="167" text-anchor="middle" dominant-baseline="middle" >X</text><line x1="220" y1="151" x2="320" y2="151" stroke="#000000" stroke-width="1" /><line x1="220" y1="181" x2="320" y2="181" stroke="#000000" stroke-width="1" /><line x1="320" y1="151" x2="320" y2="181" stroke="#000000" stroke-width="1" /><line x1="220" y1="151" x2="220" y2="181" stroke="#000000" stroke-width="1" /><text font-size="18" font-family="Palatino, Georgia, Times New Roman, serif" x="270" y="167" text-anchor="middle" dominant-baseline="middle" >X</text><line x1="320" y1="151" x2="420" y2="151" stroke="#000000" stroke-width="1" /><line x1="320" y1="181" x2="420" y2="181" stroke="#000000" stroke-width="1" /><line x1="420" y1="151" x2="420" y2="181" stroke="#000000" stroke-width="1" /><line x1="320" y1="151" x2="320" y2="181" stroke="#000000" stroke-width="1" /><text font-size="18" font-family="Palatino, Georgia, Times New Roman, serif" x="370" y="167" text-anchor="middle" dominant-baseline="middle" >X</text><line x1="420" y1="151" x2="520" y2="151" stroke="#000000" stroke-width="1" /><line x1="420" y1="181" x2="520" y2="181" stroke="#000000" stroke-width="1" /><line x1="520" y1="151" x2="520" y2="181" stroke="#000000" stroke-width="1" /><line x1="420" y1="151" x2="420" y2="181" stroke="#000000" stroke-width="1" /><text font-size="18" font-family="Palatino, Georgia, Times New Roman, serif" x="470" y="167" text-anchor="middle" dominant-baseline="middle" >X</text><line x1="520" y1="151" x2="620" y2="151" stroke="#000000" stroke-width="1" /><line x1="520" y1="181" x2="620" y2="181" stroke="#000000" stroke-width="1" /><line x1="620" y1="151" x2="620" y2="181" stroke="#000000" stroke-width="1" /><line x1="520" y1="151" x2="520" y2="181" stroke="#000000" stroke-width="1" /><text font-size="18" font-family="Palatino, Georgia, Times New Roman, serif" x="570" y="167" text-anchor="middle" dominant-baseline="middle" >X</text><line x1="620" y1="151" x2="720" y2="151" stroke="#000000" stroke-width="1" /><line x1="620" y1="181" x2="720" y2="181" stroke="#000000" stroke-width="1" /><line x1="720" y1="151" x2="720" y2="181" stroke="#000000" stroke-width="1" /><line x1="620" y1="151" x2="620" y2="181" stroke="#000000" stroke-width="1" /><text font-size="18" font-family="Palatino, Georgia, Times New Roman, serif" x="670" y="167" text-anchor="middle" dominant-baseline="middle" >X</text><line x1="720" y1="151" x2="820" y2="151" stroke="#000000" stroke-width="1" /><line x1="720" y1="181" x2="820" y2="181" stroke="#000000" stroke-width="1" /><line x1="820" y1="151" x2="820" y2="181" stroke="#000000" stroke-width="1" /><line x1="720" y1="151" x2="720" y2="181" stroke="#000000" stroke-width="1" /><text font-size="18" font-family="Palatino, Georgia, Times New Roman, serif" x="770" y="167" text-anchor="middle" dominant-baseline="middle" >X</text><line x1="820" y1="151" x2="920" y2="151" stroke="#000000" stroke-width="1" /><line x1="820" y1="181" x2="920" y2="181" stroke="#000000" stroke-width="1" /><line x1="920" y1="151" x2="920" y2="181" stroke="#000000" stroke-width="1" /><line x1="820" y1="151" x2="820" y2="181" stroke="#000000" stroke-width="1" /><text font-size="18" font-family="Palatino, Georgia, Times New Roman, serif" x="870" y="167" text-anchor="middle" dominant-baseline="middle" >X</text><text font-size="18" font-family="Palatino, Georgia, Times New Roman, serif" x="15" y="196" text-anchor="end" > </text><line x1="20" y1="181" x2="120" y2="181" stroke="#000000" stroke-width="1" /><line x1="20" y1="211" x2="120" y2="211" stroke="#000000" stroke-width="1" /><line x1="120" y1="181" x2="120" y2="211" stroke="#000000" stroke-width="1" /><line x1="20" y1="181" x2="20" y2="211" stroke="#000000" stroke-width="1" /><text font-size="18" font-family="Palatino, Georgia, Times New Roman, serif" x="70" y="197" text-anchor="middle" dominant-baseline="middle" >4</text><line x1="120" y1="181" x2="920" y2="181" stroke="#000000" stroke-width="1" /><line x1="120" y1="211" x2="920" y2="211" stroke="#000000" stroke-width="1" /><line x1="920" y1="181" x2="920" y2="211" stroke="#000000" stroke-width="1" /><line x1="120" y1="181" x2="120" y2="211" stroke="#000000" stroke-width="1" /><text font-size="18" font-family="Palatino, Georgia, Times New Roman, serif" x="520" y="197" text-anchor="middle" dominant-baseline="middle" >Protection Scheme</text><text font-size="18" font-family="Palatino, Georgia, Times New Roman, serif" x="15" y="226" text-anchor="end" > </text><line x1="20" y1="211" x2="120" y2="211" stroke="#000000" stroke-width="1" /><line x1="20" y1="241" x2="120" y2="241" stroke="#000000" stroke-width="1" /><line x1="120" y1="211" x2="120" y2="241" stroke="#000000" stroke-width="1" /><line x1="20" y1="211" x2="20" y2="241" stroke="#000000" stroke-width="1" /><text font-size="18" font-family="Palatino, Georgia, Times New Roman, serif" x="70" y="227" text-anchor="middle" dominant-baseline="middle" >5:12</text><line x1="120" y1="211" x2="920" y2="211" stroke="#000000" stroke-width="1" /><line x1="920" y1="211" x2="920" y2="241" stroke="#000000" stroke-width="1" /><line x1="120" y1="211" x2="120" y2="241" stroke="#000000" stroke-width="1" /><text font-size="18" font-family="Palatino, Georgia, Times New Roman, serif" x="520" y="227" text-anchor="middle" dominant-baseline="middle" >Sender Id</text><text font-size="18" font-family="Palatino, Georgia, Times New Roman, serif" x="15" y="256" text-anchor="end" > </text><line x1="20" y1="241" x2="20" y2="256" stroke="#000000" stroke-width="1" /><line x1="920" y1="241" x2="920" y2="256" stroke="#000000" stroke-width="1" /><line stroke-dasharray="1,1" x1="20" y1="256" x2="920" y2="286" stroke="#000000" stroke-width="1" /><line x1="920" y1="241" x2="920" y2="286" stroke="#000000" stroke-width="1" /><line stroke-dasharray="1,1" x1="20" y1="266" x2="920" y2="296" stroke="#000000" stroke-width="1" /><line x1="20" y1="266" x2="20" y2="296" stroke="#000000" stroke-width="1" /><line x1="20" y1="296" x2="20" y2="311" stroke="#000000" stroke-width="1" /><line x1="920" y1="296" x2="920" y2="311" stroke="#000000" stroke-width="1" /><text font-size="18" font-family="Palatino, Georgia, Times New Roman, serif" x="15" y="326" text-anchor="end" > </text><line x1="20" y1="311" x2="120" y2="311" stroke="#000000" stroke-width="1" /><line x1="20" y1="341" x2="120" y2="341" stroke="#000000" stroke-width="1" /><line x1="120" y1="311" x2="120" y2="341" stroke="#000000" stroke-width="1" /><line x1="20" y1="311" x2="20" y2="341" stroke="#000000" stroke-width="1" /><text font-size="18" font-family="Palatino, Georgia, Times New Roman, serif" x="70" y="327" text-anchor="middle" dominant-baseline="middle" >13:16</text><line x1="120" y1="311" x2="920" y2="311" stroke="#000000" stroke-width="1" /><line x1="920" y1="311" x2="920" y2="341" stroke="#000000" stroke-width="1" /><line x1="120" y1="311" x2="120" y2="341" stroke="#000000" stroke-width="1" /><text font-size="18" font-family="Palatino, Georgia, Times New Roman, serif" x="520" y="327" text-anchor="middle" dominant-baseline="middle" >Random</text><text font-size="18" font-family="Palatino, Georgia, Times New Roman, serif" x="15" y="326" text-anchor="end" > </text><text font-size="18" font-family="Palatino, Georgia, Times New Roman, serif" x="15" y="356" text-anchor="end" > </text><line x1="20" y1="341" x2="20" y2="356" stroke="#000000" stroke-width="1" /><line x1="920" y1="341" x2="920" y2="356" stroke="#000000" stroke-width="1" /><line stroke-dasharray="1,1" x1="20" y1="356" x2="920" y2="386" stroke="#000000" stroke-width="1" /><line x1="920" y1="341" x2="920" y2="386" stroke="#000000" stroke-width="1" /><line stroke-dasharray="1,1" x1="20" y1="366" x2="920" y2="396" stroke="#000000" stroke-width="1" /><line x1="20" y1="366" x2="20" y2="396" stroke="#000000" stroke-width="1" /><line x1="20" y1="396" x2="20" y2="411" stroke="#000000" stroke-width="1" /><line x1="920" y1="396" x2="920" y2="411" stroke="#000000" stroke-width="1" /><text font-size="18" font-family="Palatino, Georgia, Times New Roman, serif" x="15" y="426" text-anchor="end" > </text><rect x="20" y="411" height="30" width="100" fill="#eeeeee" /><line x1="20" y1="411" x2="120" y2="411" stroke="#000000" stroke-width="1" /><line x1="20" y1="441" x2="120" y2="441" stroke="#000000" stroke-width="1" /><line x1="120" y1="411" x2="120" y2="441" stroke="#000000" stroke-width="1" /><line x1="20" y1="411" x2="20" y2="441" stroke="#000000" stroke-width="1" /><text font-size="18" font-family="Palatino, Georgia, Times New Roman, serif" x="70" y="427" text-anchor="middle" dominant-baseline="middle" >17:17+C</text><line x1="120" y1="411" x2="920" y2="411" stroke="#000000" stroke-width="1" /><line x1="920" y1="411" x2="920" y2="441" stroke="#000000" stroke-width="1" /><line x1="120" y1="411" x2="120" y2="441" stroke="#000000" stroke-width="1" /><text font-style="italic" font-size="18" font-family="Arial" x="520" y="427" text-anchor="middle" dominant-baseline="middle" >Crypto Material [OPT]<tspan font-style="normal" font-size="18" font-family="Arial" dominant-baseline="middle" > (E=17 if C == 0 else 17+C+1)</tspan></text><text font-size="18" font-family="Palatino, Georgia, Times New Roman, serif" x="15" y="426" text-anchor="end" > </text><text font-size="18" font-family="Palatino, Georgia, Times New Roman, serif" x="15" y="456" text-anchor="end" > </text><line x1="20" y1="441" x2="20" y2="456" stroke="#000000" stroke-width="1" /><line x1="920" y1="441" x2="920" y2="456" stroke="#000000" stroke-width="1" /><line stroke-dasharray="1,1" x1="20" y1="456" x2="920" y2="486" stroke="#000000" stroke-width="1" /><line x1="920" y1="441" x2="920" y2="486" stroke="#000000" stroke-width="1" /><line stroke-dasharray="1,1" x1="20" y1="466" x2="920" y2="496" stroke="#000000" stroke-width="1" /><line x1="20" y1="466" x2="20" y2="496" stroke="#000000" stroke-width="1" /><line x1="20" y1="496" x2="20" y2="511" stroke="#000000" stroke-width="1" /><line x1="920" y1="496" x2="920" y2="511" stroke="#000000" stroke-width="1" /><text font-size="18" font-family="Palatino, Georgia, Times New Roman, serif" x="15" y="526" text-anchor="end" > </text><rect x="20" y="511" height="30" width="100" fill="#eeeeee" /><line x1="20" y1="511" x2="120" y2="511" stroke="#000000" stroke-width="1" /><line x1="20" y1="541" x2="120" y2="541" stroke="#000000" stroke-width="1" /><line x1="120" y1="511" x2="120" y2="541" stroke="#000000" stroke-width="1" /><line x1="20" y1="511" x2="20" y2="541" stroke="#000000" stroke-width="1" /><text font-size="18" font-family="Palatino, Georgia, Times New Roman, serif" x="70" y="527" text-anchor="middle" dominant-baseline="middle" >E:E+D</text><line x1="120" y1="511" x2="920" y2="511" stroke="#000000" stroke-width="1" /><line x1="920" y1="511" x2="920" y2="541" stroke="#000000" stroke-width="1" /><line x1="120" y1="511" x2="120" y2="541" stroke="#000000" stroke-width="1" /><text font-style="italic" font-size="18" font-family="Arial" x="520" y="527" text-anchor="middle" dominant-baseline="middle" >Monotonic Counter [OPT]<tspan font-style="normal" font-size="18" font-family="Arial" dominant-baseline="middle" > (F=E if D == 0 else E+D+1)</tspan></text><text font-size="18" font-family="Palatino, Georgia, Times New Roman, serif" x="15" y="526" text-anchor="end" > </text><text font-size="18" font-family="Palatino, Georgia, Times New Roman, serif" x="15" y="556" text-anchor="end" > </text><line x1="20" y1="541" x2="20" y2="556" stroke="#000000" stroke-width="1" /><line x1="920" y1="541" x2="920" y2="556" stroke="#000000" stroke-width="1" /><line stroke-dasharray="1,1" x1="20" y1="556" x2="920" y2="586" stroke="#000000" stroke-width="1" /><line x1="920" y1="541" x2="920" y2="586" stroke="#000000" stroke-width="1" /><line stroke-dasharray="1,1" x1="20" y1="566" x2="920" y2="596" stroke="#000000" stroke-width="1" /><line x1="20" y1="566" x2="20" y2="596" stroke="#000000" stroke-width="1" /><line x1="20" y1="596" x2="20" y2="611" stroke="#000000" stroke-width="1" /><line x1="920" y1="596" x2="920" y2="611" stroke="#000000" stroke-width="1" /><text font-size="18" font-family="Palatino, Georgia, Times New Roman, serif" x="15" y="626" text-anchor="end" > </text><line x1="20" y1="611" x2="120" y2="611" stroke="#000000" stroke-width="1" /><line x1="20" y1="641" x2="120" y2="641" stroke="#000000" stroke-width="1" /><line x1="120" y1="611" x2="120" y2="641" stroke="#000000" stroke-width="1" /><line x1="20" y1="611" x2="20" y2="641" stroke="#000000" stroke-width="1" /><text font-size="18" font-family="Palatino, Georgia, Times New Roman, serif" x="70" y="627" text-anchor="middle" dominant-baseline="middle" >F:M</text><line x1="120" y1="611" x2="920" y2="611" stroke="#000000" stroke-width="1" /><line x1="920" y1="611" x2="920" y2="641" stroke="#000000" stroke-width="1" /><line x1="120" y1="611" x2="120" y2="641" stroke="#000000" stroke-width="1" /><text font-size="18" font-family="Palatino, Georgia, Times New Roman, serif" x="520" y="627" text-anchor="middle" dominant-baseline="middle" >Protected MQTT-SN Packet</text><text font-size="18" font-family="Palatino, Georgia, Times New Roman, serif" x="15" y="626" text-anchor="end" > </text><text font-size="18" font-family="Palatino, Georgia, Times New Roman, serif" x="15" y="656" text-anchor="end" > </text><line x1="20" y1="641" x2="20" y2="656" stroke="#000000" stroke-width="1" /><line x1="920" y1="641" x2="920" y2="656" stroke="#000000" stroke-width="1" /><line stroke-dasharray="1,1" x1="20" y1="656" x2="920" y2="686" stroke="#000000" stroke-width="1" /><line x1="920" y1="641" x2="920" y2="686" stroke="#000000" stroke-width="1" /><line stroke-dasharray="1,1" x1="20" y1="666" x2="920" y2="696" stroke="#000000" stroke-width="1" /><line x1="20" y1="666" x2="20" y2="696" stroke="#000000" stroke-width="1" /><line x1="20" y1="696" x2="20" y2="711" stroke="#000000" stroke-width="1" /><line x1="920" y1="696" x2="920" y2="711" stroke="#000000" stroke-width="1" /><text font-size="18" font-family="Palatino, Georgia, Times New Roman, serif" x="15" y="726" text-anchor="end" > </text><line x1="20" y1="711" x2="120" y2="711" stroke="#000000" stroke-width="1" /><line x1="20" y1="741" x2="120" y2="741" stroke="#000000" stroke-width="1" /><line x1="120" y1="711" x2="120" y2="741" stroke="#000000" stroke-width="1" /><line x1="20" y1="711" x2="20" y2="741" stroke="#000000" stroke-width="1" /><text font-size="18" font-family="Palatino, Georgia, Times New Roman, serif" x="70" y="727" text-anchor="middle" dominant-baseline="middle" >M+1:N</text><line x1="120" y1="711" x2="920" y2="711" stroke="#000000" stroke-width="1" /><line x1="920" y1="711" x2="920" y2="741" stroke="#000000" stroke-width="1" /><line x1="120" y1="711" x2="120" y2="741" stroke="#000000" stroke-width="1" /><text font-size="18" font-family="Palatino, Georgia, Times New Roman, serif" x="520" y="727" text-anchor="middle" dominant-baseline="middle" >Authentication Tag</text><text font-size="18" font-family="Palatino, Georgia, Times New Roman, serif" x="15" y="726" text-anchor="end" > </text><text font-size="18" font-family="Palatino, Georgia, Times New Roman, serif" x="15" y="756" text-anchor="end" > </text><line x1="20" y1="741" x2="20" y2="756" stroke="#000000" stroke-width="1" /><line x1="920" y1="741" x2="920" y2="756" stroke="#000000" stroke-width="1" /><line stroke-dasharray="1,1" x1="20" y1="756" x2="920" y2="786" stroke="#000000" stroke-width="1" /><line x1="920" y1="741" x2="920" y2="786" stroke="#000000" stroke-width="1" /><line stroke-dasharray="1,1" x1="20" y1="766" x2="920" y2="796" stroke="#000000" stroke-width="1" /><line x1="20" y1="766" x2="20" y2="796" stroke="#000000" stroke-width="1" /><line x1="20" y1="796" x2="20" y2="811" stroke="#000000" stroke-width="1" /><line x1="920" y1="796" x2="920" y2="811" stroke="#000000" stroke-width="1" /><text font-size="18" font-family="Palatino, Georgia, Times New Roman, serif" x="15" y="826" text-anchor="end" > </text><line x1="20" y1="811" x2="920" y2="811" stroke="#000000" stroke-width="1" /></svg>