<?xml version="1.0" encoding="UTF-8"?><svg xmlns:svg="http://www.w3.org/2000/svg" xmlns="http://www.w3.org/2000/svg" xmlns:xlink="http://www.w3.org/1999/xlink" version="1.0" width="1011" height="152" viewBox="0 0 1011 152" ><rect x="20" y="1" height="30" width="110" fill="#cfe2f3" /><line x1="20" y1="1" x2="130" y2="1" stroke="#000000" stroke-width="1" /><line x1="20" y1="31" x2="130" y2="31" stroke="#000000" stroke-width="1" /><line x1="130" y1="1" x2="130" y2="31" stroke="#000000" stroke-width="1" /><line x1="20" y1="1" x2="20" y2="31" stroke="#000000" stroke-width="1" /><text font-size="18" font-family="Arial" x="75" y="17" text-anchor="middle" dominant-baseline="middle" >Byte \ Bit</text><rect x="130" y="1" height="30" width="110" fill="#cfe2f3" /><line x1="130" y1="1" x2="240" y2="1" stroke="#000000" stroke-width="1" /><line x1="130" y1="31" x2="240" y2="31" stroke="#000000" stroke-width="1" /><line x1="240" y1="1" x2="240" y2="31" stroke="#000000" stroke-width="1" /><line x1="130" y1="1" x2="130" y2="31" stroke="#000000" stroke-width="1" /><text font-size="18" font-family="Arial" x="185" y="17" text-anchor="middle" dominant-baseline="middle" >7</text><rect x="240" y="1" height="30" width="110" fill="#cfe2f3" /><line x1="240" y1="1" x2="350" y2="1" stroke="#000000" stroke-width="1" /><line x1="240" y1="31" x2="350" y2="31" stroke="#000000" stroke-width="1" /><line x1="350" y1="1" x2="350" y2="31" stroke="#000000" stroke-width="1" /><line x1="240" y1="1" x2="240" y2="31" stroke="#000000" stroke-width="1" /><text font-size="18" font-family="Arial" x="295" y="17" text-anchor="middle" dominant-baseline="middle" >6</text><rect x="350" y="1" height="30" width="110" fill="#cfe2f3" /><line x1="350" y1="1" x2="460" y2="1" stroke="#000000" stroke-width="1" /><line x1="350" y1="31" x2="460" y2="31" stroke="#000000" stroke-width="1" /><line x1="460" y1="1" x2="460" y2="31" stroke="#000000" stroke-width="1" /><line x1="350" y1="1" x2="350" y2="31" stroke="#000000" stroke-width="1" /><text font-size="18" font-family="Arial" x="405" y="17" text-anchor="middle" dominant-baseline="middle" >5</text><rect x="460" y="1" height="30" width="110" fill="#cfe2f3" /><line x1="460" y1="1" x2="570" y2="1" stroke="#000000" stroke-width="1" /><line x1="460" y1="31" x2="570" y2="31" stroke="#000000" stroke-width="1" /><line x1="570" y1="1" x2="570" y2="31" stroke="#000000" stroke-width="1" /><line x1="460" y1="1" x2="460" y2="31" stroke="#000000" stroke-width="1" /><text font-size="18" font-family="Arial" x="515" y="17" text-anchor="middle" dominant-baseline="middle" >4</text><rect x="570" y="1" height="30" width="110" fill="#cfe2f3" /><line x1="570" y1="1" x2="680" y2="1" stroke="#000000" stroke-width="1" /><line x1="570" y1="31" x2="680" y2="31" stroke="#000000" stroke-width="1" /><line x1="680" y1="1" x2="680" y2="31" stroke="#000000" stroke-width="1" /><line x1="570" y1="1" x2="570" y2="31" stroke="#000000" stroke-width="1" /><text font-size="18" font-family="Arial" x="625" y="17" text-anchor="middle" dominant-baseline="middle" >3</text><rect x="680" y="1" height="30" width="110" fill="#cfe2f3" /><line x1="680" y1="1" x2="790" y2="1" stroke="#000000" stroke-width="1" /><line x1="680" y1="31" x2="790" y2="31" stroke="#000000" stroke-width="1" /><line x1="790" y1="1" x2="790" y2="31" stroke="#000000" stroke-width="1" /><line x1="680" y1="1" x2="680" y2="31" stroke="#000000" stroke-width="1" /><text font-size="18" font-family="Arial" x="735" y="17" text-anchor="middle" dominant-baseline="middle" >2</text><rect x="790" y="1" height="30" width="110" fill="#cfe2f3" /><line x1="790" y1="1" x2="900" y2="1" stroke="#000000" stroke-width="1" /><line x1="790" y1="31" x2="900" y2="31" stroke="#000000" stroke-width="1" /><line x1="900" y1="1" x2="900" y2="31" stroke="#000000" stroke-width="1" /><line x1="790" y1="1" x2="790" y2="31" stroke="#000000" stroke-width="1" /><text font-size="18" font-family="Arial" x="845" y="17" text-anchor="middle" dominant-baseline="middle" >1</text><rect x="900" y="1" height="30" width="110" fill="#cfe2f3" /><line x1="900" y1="1" x2="1010" y2="1" stroke="#000000" stroke-width="1" /><line x1="900" y1="31" x2="1010" y2="31" stroke="#000000" stroke-width="1" /><line x1="1010" y1="1" x2="1010" y2="31" stroke="#000000" stroke-width="1" /><line x1="900" y1="1" x2="900" y2="31" stroke="#000000" stroke-width="1" /><text font-size="18" font-family="Arial" x="955" y="17" text-anchor="middle" dominant-baseline="middle" >0</text><text font-size="18" font-family="Arial" x="15" y="16" text-anchor="end" > </text><text font-size="18" font-family="Arial" x="15" y="46" text-anchor="end" > </text><rect x="20" y="31" height="30" width="110" fill="#eeeeee" /><line x1="20" y1="31" x2="130" y2="31" stroke="#000000" stroke-width="1" /><line x1="20" y1="61" x2="130" y2="61" stroke="#000000" stroke-width="1" /><line x1="130" y1="31" x2="130" y2="61" stroke="#000000" stroke-width="1" /><line x1="20" y1="31" x2="20" y2="61" stroke="#000000" stroke-width="1" /><text font-size="18" font-family="Arial" x="75" y="47" text-anchor="middle" dominant-baseline="middle" >1</text><line x1="130" y1="31" x2="1010" y2="31" stroke="#000000" stroke-width="1" /><line x1="130" y1="61" x2="1010" y2="61" stroke="#000000" stroke-width="1" /><line x1="1010" y1="31" x2="1010" y2="61" stroke="#000000" stroke-width="1" /><line x1="130" y1="31" x2="130" y2="61" stroke="#000000" stroke-width="1" /><text font-size="18" font-family="Arial" x="570" y="47" text-anchor="middle" dominant-baseline="middle" >Length</text><text font-size="18" font-family="Arial" x="15" y="76" text-anchor="end" > </text><rect x="20" y="61" height="30" width="110" fill="#eeeeee" /><line x1="20" y1="61" x2="130" y2="61" stroke="#000000" stroke-width="1" /><line x1="20" y1="91" x2="130" y2="91" stroke="#000000" stroke-width="1" /><line x1="130" y1="61" x2="130" y2="91" stroke="#000000" stroke-width="1" /><line x1="20" y1="61" x2="20" y2="91" stroke="#000000" stroke-width="1" /><text font-size="18" font-family="Arial" x="75" y="77" text-anchor="middle" dominant-baseline="middle" >2</text><line x1="130" y1="61" x2="1010" y2="61" stroke="#000000" stroke-width="1" /><line x1="130" y1="91" x2="1010" y2="91" stroke="#000000" stroke-width="1" /><line x1="1010" y1="61" x2="1010" y2="91" stroke="#000000" stroke-width="1" /><line x1="130" y1="61" x2="130" y2="91" stroke="#000000" stroke-width="1" /><text font-size="18" font-family="Arial" x="570" y="77" text-anchor="middle" dominant-baseline="middle" >Packet Type</text><text font-size="18" font-family="Arial" x="15" y="106" text-anchor="end" > </text><rect x="20" y="91" height="30" width="110" fill="#eeeeee" /><line x1="20" y1="91" x2="130" y2="91" stroke="#000000" stroke-width="1" /><line x1="20" y1="121" x2="130" y2="121" stroke="#000000" stroke-width="1" /><line x1="130" y1="91" x2="130" y2="121" stroke="#000000" stroke-width="1" /><line x1="20" y1="91" x2="20" y2="121" stroke="#000000" stroke-width="1" /><text font-size="18" font-family="Arial" x="75" y="107" text-anchor="middle" dominant-baseline="middle" >3</text><line x1="130" y1="91" x2="1010" y2="91" stroke="#000000" stroke-width="1" /><line x1="130" y1="121" x2="1010" y2="121" stroke="#000000" stroke-width="1" /><line x1="1010" y1="91" x2="1010" y2="121" stroke="#000000" stroke-width="1" /><line x1="130" y1="91" x2="130" y2="121" stroke="#000000" stroke-width="1" /><text font-size="18" font-family="Arial" x="570" y="107" text-anchor="middle" dominant-baseline="middle" >Packet Identifier MSB</text><text font-size="18" font-family="Arial" x="15" y="136" text-anchor="end" > </text><rect x="20" y="121" height="30" width="110" fill="#eeeeee" /><line x1="20" y1="121" x2="130" y2="121" stroke="#000000" stroke-width="1" /><line x1="20" y1="151" x2="130" y2="151" stroke="#000000" stroke-width="1" /><line x1="130" y1="121" x2="130" y2="151" stroke="#000000" stroke-width="1" /><line x1="20" y1="121" x2="20" y2="151" stroke="#000000" stroke-width="1" /><text font-size="18" font-family="Arial" x="75" y="137" text-anchor="middle" dominant-baseline="middle" >4</text><line x1="130" y1="121" x2="1010" y2="121" stroke="#000000" stroke-width="1" /><line x1="130" y1="151" x2="1010" y2="151" stroke="#000000" stroke-width="1" /><line x1="1010" y1="121" x2="1010" y2="151" stroke="#000000" stroke-width="1" /><line x1="130" y1="121" x2="130" y2="151" stroke="#000000" stroke-width="1" /><text font-size="18" font-family="Arial" x="570" y="137" text-anchor="middle" dominant-baseline="middle" >Packet Identifier LSB</text><line x1="20" y1="121" x2="1010" y2="121" stroke="#000000" stroke-width="1" /></svg>