<?xml version="1.0" encoding="UTF-8"?><svg xmlns:svg="http://www.w3.org/2000/svg" xmlns="http://www.w3.org/2000/svg" xmlns:xlink="http://www.w3.org/1999/xlink" version="1.0" width="831" height="332" viewBox="0 0 831 332" ><rect x="20" y="1" height="30" width="90" fill="#cfe2f3" /><line x1="20" y1="1" x2="110" y2="1" stroke="#000000" stroke-width="1" /><line x1="20" y1="31" x2="110" y2="31" stroke="#000000" stroke-width="1" /><line x1="110" y1="1" x2="110" y2="31" stroke="#000000" stroke-width="1" /><line x1="20" y1="1" x2="20" y2="31" stroke="#000000" stroke-width="1" /><text font-size="18" font-family="Arial" x="65" y="17" text-anchor="middle" dominant-baseline="middle" >Byte \ Bit</text><rect x="110" y="1" height="30" width="90" fill="#cfe2f3" /><line x1="110" y1="1" x2="200" y2="1" stroke="#000000" stroke-width="1" /><line x1="110" y1="31" x2="200" y2="31" stroke="#000000" stroke-width="1" /><line x1="200" y1="1" x2="200" y2="31" stroke="#000000" stroke-width="1" /><line x1="110" y1="1" x2="110" y2="31" stroke="#000000" stroke-width="1" /><text font-size="18" font-family="Arial" x="155" y="17" text-anchor="middle" dominant-baseline="middle" >7</text><rect x="200" y="1" height="30" width="90" fill="#cfe2f3" /><line x1="200" y1="1" x2="290" y2="1" stroke="#000000" stroke-width="1" /><line x1="200" y1="31" x2="290" y2="31" stroke="#000000" stroke-width="1" /><line x1="290" y1="1" x2="290" y2="31" stroke="#000000" stroke-width="1" /><line x1="200" y1="1" x2="200" y2="31" stroke="#000000" stroke-width="1" /><text font-size="18" font-family="Arial" x="245" y="17" text-anchor="middle" dominant-baseline="middle" >6</text><rect x="290" y="1" height="30" width="90" fill="#cfe2f3" /><line x1="290" y1="1" x2="380" y2="1" stroke="#000000" stroke-width="1" /><line x1="290" y1="31" x2="380" y2="31" stroke="#000000" stroke-width="1" /><line x1="380" y1="1" x2="380" y2="31" stroke="#000000" stroke-width="1" /><line x1="290" y1="1" x2="290" y2="31" stroke="#000000" stroke-width="1" /><text font-size="18" font-family="Arial" x="335" y="17" text-anchor="middle" dominant-baseline="middle" >5</text><rect x="380" y="1" height="30" width="90" fill="#cfe2f3" /><line x1="380" y1="1" x2="470" y2="1" stroke="#000000" stroke-width="1" /><line x1="380" y1="31" x2="470" y2="31" stroke="#000000" stroke-width="1" /><line x1="470" y1="1" x2="470" y2="31" stroke="#000000" stroke-width="1" /><line x1="380" y1="1" x2="380" y2="31" stroke="#000000" stroke-width="1" /><text font-size="18" font-family="Arial" x="425" y="17" text-anchor="middle" dominant-baseline="middle" >4</text><rect x="470" y="1" height="30" width="90" fill="#cfe2f3" /><line x1="470" y1="1" x2="560" y2="1" stroke="#000000" stroke-width="1" /><line x1="470" y1="31" x2="560" y2="31" stroke="#000000" stroke-width="1" /><line x1="560" y1="1" x2="560" y2="31" stroke="#000000" stroke-width="1" /><line x1="470" y1="1" x2="470" y2="31" stroke="#000000" stroke-width="1" /><text font-size="18" font-family="Arial" x="515" y="17" text-anchor="middle" dominant-baseline="middle" >3</text><rect x="560" y="1" height="30" width="90" fill="#cfe2f3" /><line x1="560" y1="1" x2="650" y2="1" stroke="#000000" stroke-width="1" /><line x1="560" y1="31" x2="650" y2="31" stroke="#000000" stroke-width="1" /><line x1="650" y1="1" x2="650" y2="31" stroke="#000000" stroke-width="1" /><line x1="560" y1="1" x2="560" y2="31" stroke="#000000" stroke-width="1" /><text font-size="18" font-family="Arial" x="605" y="17" text-anchor="middle" dominant-baseline="middle" >2</text><rect x="650" y="1" height="30" width="90" fill="#cfe2f3" /><line x1="650" y1="1" x2="740" y2="1" stroke="#000000" stroke-width="1" /><line x1="650" y1="31" x2="740" y2="31" stroke="#000000" stroke-width="1" /><line x1="740" y1="1" x2="740" y2="31" stroke="#000000" stroke-width="1" /><line x1="650" y1="1" x2="650" y2="31" stroke="#000000" stroke-width="1" /><text font-size="18" font-family="Arial" x="695" y="17" text-anchor="middle" dominant-baseline="middle" >1</text><rect x="740" y="1" height="30" width="90" fill="#cfe2f3" /><line x1="740" y1="1" x2="830" y2="1" stroke="#000000" stroke-width="1" /><line x1="740" y1="31" x2="830" y2="31" stroke="#000000" stroke-width="1" /><line x1="830" y1="1" x2="830" y2="31" stroke="#000000" stroke-width="1" /><line x1="740" y1="1" x2="740" y2="31" stroke="#000000" stroke-width="1" /><text font-size="18" font-family="Arial" x="785" y="17" text-anchor="middle" dominant-baseline="middle" >0</text><text font-size="18" font-family="Arial" x="15" y="16" text-anchor="end" > </text><text font-size="18" font-family="Arial" x="15" y="46" text-anchor="end" > </text><line x1="20" y1="31" x2="110" y2="31" stroke="#000000" stroke-width="1" /><line x1="20" y1="61" x2="110" y2="61" stroke="#000000" stroke-width="1" /><line x1="110" y1="31" x2="110" y2="61" stroke="#000000" stroke-width="1" /><line x1="20" y1="31" x2="20" y2="61" stroke="#000000" stroke-width="1" /><text font-size="18" font-family="Arial" x="65" y="47" text-anchor="middle" dominant-baseline="middle" >1</text><line x1="110" y1="31" x2="830" y2="31" stroke="#000000" stroke-width="1" /><line x1="110" y1="61" x2="830" y2="61" stroke="#000000" stroke-width="1" /><line x1="830" y1="31" x2="830" y2="61" stroke="#000000" stroke-width="1" /><line x1="110" y1="31" x2="110" y2="61" stroke="#000000" stroke-width="1" /><text font-size="18" font-family="Arial" x="470" y="47" text-anchor="middle" dominant-baseline="middle" >Length</text><text font-size="18" font-family="Arial" x="15" y="76" text-anchor="end" > </text><line x1="20" y1="61" x2="110" y2="61" stroke="#000000" stroke-width="1" /><line x1="20" y1="91" x2="110" y2="91" stroke="#000000" stroke-width="1" /><line x1="110" y1="61" x2="110" y2="91" stroke="#000000" stroke-width="1" /><line x1="20" y1="61" x2="20" y2="91" stroke="#000000" stroke-width="1" /><text font-size="18" font-family="Arial" x="65" y="77" text-anchor="middle" dominant-baseline="middle" >2</text><line x1="110" y1="61" x2="830" y2="61" stroke="#000000" stroke-width="1" /><line x1="110" y1="91" x2="830" y2="91" stroke="#000000" stroke-width="1" /><line x1="830" y1="61" x2="830" y2="91" stroke="#000000" stroke-width="1" /><line x1="110" y1="61" x2="110" y2="91" stroke="#000000" stroke-width="1" /><text font-size="18" font-family="Arial" x="470" y="77" text-anchor="middle" dominant-baseline="middle" >Packet Type</text><text font-size="18" font-family="Arial" x="15" y="106" text-anchor="end" > </text><line x1="20" y1="91" x2="110" y2="91" stroke="#000000" stroke-width="1" /><line x1="20" y1="121" x2="110" y2="121" stroke="#000000" stroke-width="1" /><line x1="110" y1="91" x2="110" y2="121" stroke="#000000" stroke-width="1" /><line x1="20" y1="91" x2="20" y2="121" stroke="#000000" stroke-width="1" /><text font-size="18" font-family="Arial" x="65" y="107" text-anchor="middle" dominant-baseline="middle" ></text><rect x="110" y="91" height="30" width="720" fill="#dddddd" /><line x1="110" y1="91" x2="830" y2="91" stroke="#000000" stroke-width="1" /><line x1="110" y1="121" x2="830" y2="121" stroke="#000000" stroke-width="1" /><line x1="830" y1="91" x2="830" y2="121" stroke="#000000" stroke-width="1" /><line x1="110" y1="91" x2="110" y2="121" stroke="#000000" stroke-width="1" /><text font-size="18" font-family="Arial" x="470" y="107" text-anchor="middle" dominant-baseline="middle" >SUBACK FLAGS</text><text font-size="18" font-family="Arial" x="15" y="136" text-anchor="end" > </text><line x1="20" y1="121" x2="110" y2="121" stroke="#000000" stroke-width="1" /><line x1="20" y1="151" x2="110" y2="151" stroke="#000000" stroke-width="1" /><line x1="110" y1="121" x2="110" y2="151" stroke="#000000" stroke-width="1" /><line x1="20" y1="121" x2="20" y2="151" stroke="#000000" stroke-width="1" /><text font-size="18" font-family="Arial" x="65" y="137" text-anchor="middle" dominant-baseline="middle" ></text><rect x="110" y="121" height="30" width="540" fill="#eeeeee" /><line x1="110" y1="121" x2="650" y2="121" stroke="#000000" stroke-width="1" /><line x1="110" y1="151" x2="650" y2="151" stroke="#000000" stroke-width="1" /><line x1="650" y1="121" x2="650" y2="151" stroke="#000000" stroke-width="1" /><line x1="110" y1="121" x2="110" y2="151" stroke="#000000" stroke-width="1" /><text font-size="18" font-family="Arial" x="380" y="137" text-anchor="middle" dominant-baseline="middle" >Reserved</text><rect x="650" y="121" height="30" width="180" fill="#eeeeee" /><line x1="650" y1="121" x2="830" y2="121" stroke="#000000" stroke-width="1" /><line x1="650" y1="151" x2="830" y2="151" stroke="#000000" stroke-width="1" /><line x1="830" y1="121" x2="830" y2="151" stroke="#000000" stroke-width="1" /><line x1="650" y1="121" x2="650" y2="151" stroke="#000000" stroke-width="1" /><text font-size="18" font-family="Arial" x="740" y="137" text-anchor="middle" dominant-baseline="middle" >Topic Type</text><text font-size="18" font-family="Arial" x="15" y="166" text-anchor="end" > </text><line x1="20" y1="151" x2="110" y2="151" stroke="#000000" stroke-width="1" /><line x1="20" y1="181" x2="110" y2="181" stroke="#000000" stroke-width="1" /><line x1="110" y1="151" x2="110" y2="181" stroke="#000000" stroke-width="1" /><line x1="20" y1="151" x2="20" y2="181" stroke="#000000" stroke-width="1" /><text font-size="18" font-family="Arial" x="65" y="167" text-anchor="middle" dominant-baseline="middle" >3</text><line x1="110" y1="151" x2="200" y2="151" stroke="#000000" stroke-width="1" /><line x1="110" y1="181" x2="200" y2="181" stroke="#000000" stroke-width="1" /><line x1="200" y1="151" x2="200" y2="181" stroke="#000000" stroke-width="1" /><line x1="110" y1="151" x2="110" y2="181" stroke="#000000" stroke-width="1" /><text font-size="18" font-family="Arial" x="155" y="167" text-anchor="middle" dominant-baseline="middle" >0</text><line x1="200" y1="151" x2="290" y2="151" stroke="#000000" stroke-width="1" /><line x1="200" y1="181" x2="290" y2="181" stroke="#000000" stroke-width="1" /><line x1="290" y1="151" x2="290" y2="181" stroke="#000000" stroke-width="1" /><line x1="200" y1="151" x2="200" y2="181" stroke="#000000" stroke-width="1" /><text font-size="18" font-family="Arial" x="245" y="167" text-anchor="middle" dominant-baseline="middle" >0</text><line x1="290" y1="151" x2="380" y2="151" stroke="#000000" stroke-width="1" /><line x1="290" y1="181" x2="380" y2="181" stroke="#000000" stroke-width="1" /><line x1="380" y1="151" x2="380" y2="181" stroke="#000000" stroke-width="1" /><line x1="290" y1="151" x2="290" y2="181" stroke="#000000" stroke-width="1" /><text font-size="18" font-family="Arial" x="335" y="167" text-anchor="middle" dominant-baseline="middle" >0</text><line x1="380" y1="151" x2="470" y2="151" stroke="#000000" stroke-width="1" /><line x1="380" y1="181" x2="470" y2="181" stroke="#000000" stroke-width="1" /><line x1="470" y1="151" x2="470" y2="181" stroke="#000000" stroke-width="1" /><line x1="380" y1="151" x2="380" y2="181" stroke="#000000" stroke-width="1" /><text font-size="18" font-family="Arial" x="425" y="167" text-anchor="middle" dominant-baseline="middle" >0</text><line x1="470" y1="151" x2="560" y2="151" stroke="#000000" stroke-width="1" /><line x1="470" y1="181" x2="560" y2="181" stroke="#000000" stroke-width="1" /><line x1="560" y1="151" x2="560" y2="181" stroke="#000000" stroke-width="1" /><line x1="470" y1="151" x2="470" y2="181" stroke="#000000" stroke-width="1" /><text font-size="18" font-family="Arial" x="515" y="167" text-anchor="middle" dominant-baseline="middle" >0</text><line x1="560" y1="151" x2="650" y2="151" stroke="#000000" stroke-width="1" /><line x1="560" y1="181" x2="650" y2="181" stroke="#000000" stroke-width="1" /><line x1="650" y1="151" x2="650" y2="181" stroke="#000000" stroke-width="1" /><line x1="560" y1="151" x2="560" y2="181" stroke="#000000" stroke-width="1" /><text font-size="18" font-family="Arial" x="605" y="167" text-anchor="middle" dominant-baseline="middle" >0</text><line x1="650" y1="151" x2="740" y2="151" stroke="#000000" stroke-width="1" /><line x1="650" y1="181" x2="740" y2="181" stroke="#000000" stroke-width="1" /><line x1="740" y1="151" x2="740" y2="181" stroke="#000000" stroke-width="1" /><line x1="650" y1="151" x2="650" y2="181" stroke="#000000" stroke-width="1" /><text font-size="18" font-family="Arial" x="695" y="167" text-anchor="middle" dominant-baseline="middle" >X</text><line x1="740" y1="151" x2="830" y2="151" stroke="#000000" stroke-width="1" /><line x1="740" y1="181" x2="830" y2="181" stroke="#000000" stroke-width="1" /><line x1="830" y1="151" x2="830" y2="181" stroke="#000000" stroke-width="1" /><line x1="740" y1="151" x2="740" y2="181" stroke="#000000" stroke-width="1" /><text font-size="18" font-family="Arial" x="785" y="167" text-anchor="middle" dominant-baseline="middle" >X</text><text font-size="18" font-family="Arial" x="15" y="196" text-anchor="end" > </text><line x1="20" y1="181" x2="110" y2="181" stroke="#000000" stroke-width="1" /><line x1="20" y1="211" x2="110" y2="211" stroke="#000000" stroke-width="1" /><line x1="110" y1="181" x2="110" y2="211" stroke="#000000" stroke-width="1" /><line x1="20" y1="181" x2="20" y2="211" stroke="#000000" stroke-width="1" /><text font-size="18" font-family="Arial" x="65" y="197" text-anchor="middle" dominant-baseline="middle" >4</text><line x1="110" y1="181" x2="830" y2="181" stroke="#000000" stroke-width="1" /><line x1="110" y1="211" x2="830" y2="211" stroke="#000000" stroke-width="1" /><line x1="830" y1="181" x2="830" y2="211" stroke="#000000" stroke-width="1" /><line x1="110" y1="181" x2="110" y2="211" stroke="#000000" stroke-width="1" /><text font-size="18" font-family="Arial" x="470" y="197" text-anchor="middle" dominant-baseline="middle" >Topic Data MSB</text><text font-size="18" font-family="Arial" x="15" y="226" text-anchor="end" > </text><line x1="20" y1="211" x2="110" y2="211" stroke="#000000" stroke-width="1" /><line x1="20" y1="241" x2="110" y2="241" stroke="#000000" stroke-width="1" /><line x1="110" y1="211" x2="110" y2="241" stroke="#000000" stroke-width="1" /><line x1="20" y1="211" x2="20" y2="241" stroke="#000000" stroke-width="1" /><text font-size="18" font-family="Arial" x="65" y="227" text-anchor="middle" dominant-baseline="middle" >5</text><line x1="110" y1="211" x2="830" y2="211" stroke="#000000" stroke-width="1" /><line x1="110" y1="241" x2="830" y2="241" stroke="#000000" stroke-width="1" /><line x1="830" y1="211" x2="830" y2="241" stroke="#000000" stroke-width="1" /><line x1="110" y1="211" x2="110" y2="241" stroke="#000000" stroke-width="1" /><text font-size="18" font-family="Arial" x="470" y="227" text-anchor="middle" dominant-baseline="middle" >Topic Data LSB</text><text font-size="18" font-family="Arial" x="15" y="256" text-anchor="end" > </text><line x1="20" y1="241" x2="110" y2="241" stroke="#000000" stroke-width="1" /><line x1="20" y1="271" x2="110" y2="271" stroke="#000000" stroke-width="1" /><line x1="110" y1="241" x2="110" y2="271" stroke="#000000" stroke-width="1" /><line x1="20" y1="241" x2="20" y2="271" stroke="#000000" stroke-width="1" /><text font-size="18" font-family="Arial" x="65" y="257" text-anchor="middle" dominant-baseline="middle" >6</text><line x1="110" y1="241" x2="830" y2="241" stroke="#000000" stroke-width="1" /><line x1="110" y1="271" x2="830" y2="271" stroke="#000000" stroke-width="1" /><line x1="830" y1="241" x2="830" y2="271" stroke="#000000" stroke-width="1" /><line x1="110" y1="241" x2="110" y2="271" stroke="#000000" stroke-width="1" /><text font-size="18" font-family="Arial" x="470" y="257" text-anchor="middle" dominant-baseline="middle" >Packet Identifier MSB</text><text font-size="18" font-family="Arial" x="15" y="286" text-anchor="end" > </text><line x1="20" y1="271" x2="110" y2="271" stroke="#000000" stroke-width="1" /><line x1="20" y1="301" x2="110" y2="301" stroke="#000000" stroke-width="1" /><line x1="110" y1="271" x2="110" y2="301" stroke="#000000" stroke-width="1" /><line x1="20" y1="271" x2="20" y2="301" stroke="#000000" stroke-width="1" /><text font-size="18" font-family="Arial" x="65" y="287" text-anchor="middle" dominant-baseline="middle" >7</text><line x1="110" y1="271" x2="830" y2="271" stroke="#000000" stroke-width="1" /><line x1="110" y1="301" x2="830" y2="301" stroke="#000000" stroke-width="1" /><line x1="830" y1="271" x2="830" y2="301" stroke="#000000" stroke-width="1" /><line x1="110" y1="271" x2="110" y2="301" stroke="#000000" stroke-width="1" /><text font-size="18" font-family="Arial" x="470" y="287" text-anchor="middle" dominant-baseline="middle" >Packet Identifier LSB</text><text font-size="18" font-family="Arial" x="15" y="316" text-anchor="end" > </text><line x1="20" y1="301" x2="110" y2="301" stroke="#000000" stroke-width="1" /><line x1="20" y1="331" x2="110" y2="331" stroke="#000000" stroke-width="1" /><line x1="110" y1="301" x2="110" y2="331" stroke="#000000" stroke-width="1" /><line x1="20" y1="301" x2="20" y2="331" stroke="#000000" stroke-width="1" /><text font-size="18" font-family="Arial" x="65" y="317" text-anchor="middle" dominant-baseline="middle" >8</text><line x1="110" y1="301" x2="830" y2="301" stroke="#000000" stroke-width="1" /><line x1="110" y1="331" x2="830" y2="331" stroke="#000000" stroke-width="1" /><line x1="830" y1="301" x2="830" y2="331" stroke="#000000" stroke-width="1" /><line x1="110" y1="301" x2="110" y2="331" stroke="#000000" stroke-width="1" /><text font-size="18" font-family="Arial" x="470" y="317" text-anchor="middle" dominant-baseline="middle" >Reason Code</text><line x1="20" y1="301" x2="830" y2="301" stroke="#000000" stroke-width="1" /></svg>