<?xml version="1.0" encoding="UTF-8"?><svg xmlns:svg="http://www.w3.org/2000/svg" xmlns="http://www.w3.org/2000/svg" xmlns:xlink="http://www.w3.org/1999/xlink" version="1.0" width="1506" height="342" viewBox="0 0 1506 342" ><rect x="20" y="1" height="30" width="165" fill="#cfe2f3" /><line x1="20" y1="1" x2="185" y2="1" stroke="#000000" stroke-width="1" /><line x1="20" y1="31" x2="185" y2="31" stroke="#000000" stroke-width="1" /><line x1="185" y1="1" x2="185" y2="31" stroke="#000000" stroke-width="1" /><line x1="20" y1="1" x2="20" y2="31" stroke="#000000" stroke-width="1" /><text font-size="18" font-family="Arial" x="102.5" y="17" text-anchor="middle" dominant-baseline="middle" >Byte \ Bit</text><rect x="185" y="1" height="30" width="165" fill="#cfe2f3" /><line x1="185" y1="1" x2="350" y2="1" stroke="#000000" stroke-width="1" /><line x1="185" y1="31" x2="350" y2="31" stroke="#000000" stroke-width="1" /><line x1="350" y1="1" x2="350" y2="31" stroke="#000000" stroke-width="1" /><line x1="185" y1="1" x2="185" y2="31" stroke="#000000" stroke-width="1" /><text font-size="18" font-family="Arial" x="267.5" y="17" text-anchor="middle" dominant-baseline="middle" >7</text><rect x="350" y="1" height="30" width="165" fill="#cfe2f3" /><line x1="350" y1="1" x2="515" y2="1" stroke="#000000" stroke-width="1" /><line x1="350" y1="31" x2="515" y2="31" stroke="#000000" stroke-width="1" /><line x1="515" y1="1" x2="515" y2="31" stroke="#000000" stroke-width="1" /><line x1="350" y1="1" x2="350" y2="31" stroke="#000000" stroke-width="1" /><text font-size="18" font-family="Arial" x="432.5" y="17" text-anchor="middle" dominant-baseline="middle" >6</text><rect x="515" y="1" height="30" width="165" fill="#cfe2f3" /><line x1="515" y1="1" x2="680" y2="1" stroke="#000000" stroke-width="1" /><line x1="515" y1="31" x2="680" y2="31" stroke="#000000" stroke-width="1" /><line x1="680" y1="1" x2="680" y2="31" stroke="#000000" stroke-width="1" /><line x1="515" y1="1" x2="515" y2="31" stroke="#000000" stroke-width="1" /><text font-size="18" font-family="Arial" x="597.5" y="17" text-anchor="middle" dominant-baseline="middle" >5</text><rect x="680" y="1" height="30" width="165" fill="#cfe2f3" /><line x1="680" y1="1" x2="845" y2="1" stroke="#000000" stroke-width="1" /><line x1="680" y1="31" x2="845" y2="31" stroke="#000000" stroke-width="1" /><line x1="845" y1="1" x2="845" y2="31" stroke="#000000" stroke-width="1" /><line x1="680" y1="1" x2="680" y2="31" stroke="#000000" stroke-width="1" /><text font-size="18" font-family="Arial" x="762.5" y="17" text-anchor="middle" dominant-baseline="middle" >4</text><rect x="845" y="1" height="30" width="165" fill="#cfe2f3" /><line x1="845" y1="1" x2="1010" y2="1" stroke="#000000" stroke-width="1" /><line x1="845" y1="31" x2="1010" y2="31" stroke="#000000" stroke-width="1" /><line x1="1010" y1="1" x2="1010" y2="31" stroke="#000000" stroke-width="1" /><line x1="845" y1="1" x2="845" y2="31" stroke="#000000" stroke-width="1" /><text font-size="18" font-family="Arial" x="927.5" y="17" text-anchor="middle" dominant-baseline="middle" >3</text><rect x="1010" y="1" height="30" width="165" fill="#cfe2f3" /><line x1="1010" y1="1" x2="1175" y2="1" stroke="#000000" stroke-width="1" /><line x1="1010" y1="31" x2="1175" y2="31" stroke="#000000" stroke-width="1" /><line x1="1175" y1="1" x2="1175" y2="31" stroke="#000000" stroke-width="1" /><line x1="1010" y1="1" x2="1010" y2="31" stroke="#000000" stroke-width="1" /><text font-size="18" font-family="Arial" x="1092.5" y="17" text-anchor="middle" dominant-baseline="middle" >2</text><rect x="1175" y="1" height="30" width="165" fill="#cfe2f3" /><line x1="1175" y1="1" x2="1340" y2="1" stroke="#000000" stroke-width="1" /><line x1="1175" y1="31" x2="1340" y2="31" stroke="#000000" stroke-width="1" /><line x1="1340" y1="1" x2="1340" y2="31" stroke="#000000" stroke-width="1" /><line x1="1175" y1="1" x2="1175" y2="31" stroke="#000000" stroke-width="1" /><text font-size="18" font-family="Arial" x="1257.5" y="17" text-anchor="middle" dominant-baseline="middle" >1</text><rect x="1340" y="1" height="30" width="165" fill="#cfe2f3" /><line x1="1340" y1="1" x2="1505" y2="1" stroke="#000000" stroke-width="1" /><line x1="1340" y1="31" x2="1505" y2="31" stroke="#000000" stroke-width="1" /><line x1="1505" y1="1" x2="1505" y2="31" stroke="#000000" stroke-width="1" /><line x1="1340" y1="1" x2="1340" y2="31" stroke="#000000" stroke-width="1" /><text font-size="18" font-family="Arial" x="1422.5" y="17" text-anchor="middle" dominant-baseline="middle" >0</text><text font-size="18" font-family="Arial" x="15" y="16" text-anchor="end" > </text><text font-size="18" font-family="Arial" x="15" y="46" text-anchor="end" > </text><line x1="20" y1="31" x2="185" y2="31" stroke="#000000" stroke-width="1" /><line x1="20" y1="61" x2="185" y2="61" stroke="#000000" stroke-width="1" /><line x1="185" y1="31" x2="185" y2="61" stroke="#000000" stroke-width="1" /><line x1="20" y1="31" x2="20" y2="61" stroke="#000000" stroke-width="1" /><text font-size="18" font-family="Arial" x="102.5" y="47" text-anchor="middle" dominant-baseline="middle" >1</text><line x1="185" y1="31" x2="1505" y2="31" stroke="#000000" stroke-width="1" /><line x1="185" y1="61" x2="1505" y2="61" stroke="#000000" stroke-width="1" /><line x1="1505" y1="31" x2="1505" y2="61" stroke="#000000" stroke-width="1" /><line x1="185" y1="31" x2="185" y2="61" stroke="#000000" stroke-width="1" /><text font-size="18" font-family="Arial" x="845" y="47" text-anchor="middle" dominant-baseline="middle" >Length</text><text font-size="18" font-family="Arial" x="15" y="76" text-anchor="end" > </text><line x1="20" y1="61" x2="185" y2="61" stroke="#000000" stroke-width="1" /><line x1="20" y1="91" x2="185" y2="91" stroke="#000000" stroke-width="1" /><line x1="185" y1="61" x2="185" y2="91" stroke="#000000" stroke-width="1" /><line x1="20" y1="61" x2="20" y2="91" stroke="#000000" stroke-width="1" /><text font-size="18" font-family="Arial" x="102.5" y="77" text-anchor="middle" dominant-baseline="middle" >2</text><line x1="185" y1="61" x2="1505" y2="61" stroke="#000000" stroke-width="1" /><line x1="185" y1="91" x2="1505" y2="91" stroke="#000000" stroke-width="1" /><line x1="1505" y1="61" x2="1505" y2="91" stroke="#000000" stroke-width="1" /><line x1="185" y1="61" x2="185" y2="91" stroke="#000000" stroke-width="1" /><text font-size="18" font-family="Arial" x="845" y="77" text-anchor="middle" dominant-baseline="middle" >Packet Type</text><text font-size="18" font-family="Arial" x="15" y="106" text-anchor="end" > </text><line x1="20" y1="91" x2="185" y2="91" stroke="#000000" stroke-width="1" /><line x1="20" y1="121" x2="185" y2="121" stroke="#000000" stroke-width="1" /><line x1="185" y1="91" x2="185" y2="121" stroke="#000000" stroke-width="1" /><line x1="20" y1="91" x2="20" y2="121" stroke="#000000" stroke-width="1" /><text font-size="18" font-family="Arial" x="102.5" y="107" text-anchor="middle" dominant-baseline="middle" ></text><rect x="185" y="91" height="30" width="1320" fill="#dddddd" /><line x1="185" y1="91" x2="1505" y2="91" stroke="#000000" stroke-width="1" /><line x1="185" y1="121" x2="1505" y2="121" stroke="#000000" stroke-width="1" /><line x1="1505" y1="91" x2="1505" y2="121" stroke="#000000" stroke-width="1" /><line x1="185" y1="91" x2="185" y2="121" stroke="#000000" stroke-width="1" /><text font-size="18" font-family="Arial" x="845" y="107" text-anchor="middle" dominant-baseline="middle" >SUBSCRIBE FLAGS</text><text font-size="18" font-family="Arial" x="15" y="136" text-anchor="end" > </text><line x1="20" y1="121" x2="185" y2="121" stroke="#000000" stroke-width="1" /><line x1="20" y1="151" x2="185" y2="151" stroke="#000000" stroke-width="1" /><line x1="185" y1="121" x2="185" y2="151" stroke="#000000" stroke-width="1" /><line x1="20" y1="121" x2="20" y2="151" stroke="#000000" stroke-width="1" /><text font-size="18" font-family="Arial" x="102.5" y="137" text-anchor="middle" dominant-baseline="middle" ></text><rect x="185" y="121" height="30" width="165" fill="#eeeeee" /><line x1="185" y1="121" x2="350" y2="121" stroke="#000000" stroke-width="1" /><line x1="185" y1="151" x2="350" y2="151" stroke="#000000" stroke-width="1" /><line x1="350" y1="121" x2="350" y2="151" stroke="#000000" stroke-width="1" /><line x1="185" y1="121" x2="185" y2="151" stroke="#000000" stroke-width="1" /><text font-size="18" font-family="Arial" x="267.5" y="137" text-anchor="middle" dominant-baseline="middle" >No Local</text><rect x="350" y="121" height="30" width="330" fill="#eeeeee" /><line x1="350" y1="121" x2="680" y2="121" stroke="#000000" stroke-width="1" /><line x1="350" y1="151" x2="680" y2="151" stroke="#000000" stroke-width="1" /><line x1="680" y1="121" x2="680" y2="151" stroke="#000000" stroke-width="1" /><line x1="350" y1="121" x2="350" y2="151" stroke="#000000" stroke-width="1" /><text font-size="18" font-family="Arial" x="515" y="137" text-anchor="middle" dominant-baseline="middle" >QoS</text><rect x="680" y="121" height="30" width="165" fill="#eeeeee" /><line x1="680" y1="121" x2="845" y2="121" stroke="#000000" stroke-width="1" /><line x1="680" y1="151" x2="845" y2="151" stroke="#000000" stroke-width="1" /><line x1="845" y1="121" x2="845" y2="151" stroke="#000000" stroke-width="1" /><line x1="680" y1="121" x2="680" y2="151" stroke="#000000" stroke-width="1" /><text font-size="18" font-family="Arial" x="762.5" y="137" text-anchor="middle" dominant-baseline="middle" >Retain as published</text><rect x="845" y="121" height="30" width="330" fill="#eeeeee" /><line x1="845" y1="121" x2="1175" y2="121" stroke="#000000" stroke-width="1" /><line x1="845" y1="151" x2="1175" y2="151" stroke="#000000" stroke-width="1" /><line x1="1175" y1="121" x2="1175" y2="151" stroke="#000000" stroke-width="1" /><line x1="845" y1="121" x2="845" y2="151" stroke="#000000" stroke-width="1" /><text font-size="18" font-family="Arial" x="1010" y="137" text-anchor="middle" dominant-baseline="middle" >Session Present</text><rect x="1175" y="121" height="30" width="330" fill="#eeeeee" /><line x1="1175" y1="121" x2="1505" y2="121" stroke="#000000" stroke-width="1" /><line x1="1175" y1="151" x2="1505" y2="151" stroke="#000000" stroke-width="1" /><line x1="1505" y1="121" x2="1505" y2="151" stroke="#000000" stroke-width="1" /><line x1="1175" y1="121" x2="1175" y2="151" stroke="#000000" stroke-width="1" /><text font-size="18" font-family="Arial" x="1340" y="137" text-anchor="middle" dominant-baseline="middle" >Topic Type</text><text font-size="18" font-family="Arial" x="15" y="166" text-anchor="end" > </text><line x1="20" y1="151" x2="185" y2="151" stroke="#000000" stroke-width="1" /><line x1="20" y1="181" x2="185" y2="181" stroke="#000000" stroke-width="1" /><line x1="185" y1="151" x2="185" y2="181" stroke="#000000" stroke-width="1" /><line x1="20" y1="151" x2="20" y2="181" stroke="#000000" stroke-width="1" /><text font-size="18" font-family="Arial" x="102.5" y="167" text-anchor="middle" dominant-baseline="middle" >3</text><line x1="185" y1="151" x2="350" y2="151" stroke="#000000" stroke-width="1" /><line x1="185" y1="181" x2="350" y2="181" stroke="#000000" stroke-width="1" /><line x1="350" y1="151" x2="350" y2="181" stroke="#000000" stroke-width="1" /><line x1="185" y1="151" x2="185" y2="181" stroke="#000000" stroke-width="1" /><text font-size="18" font-family="Arial" x="267.5" y="167" text-anchor="middle" dominant-baseline="middle" >X</text><line x1="350" y1="151" x2="515" y2="151" stroke="#000000" stroke-width="1" /><line x1="350" y1="181" x2="515" y2="181" stroke="#000000" stroke-width="1" /><line x1="515" y1="151" x2="515" y2="181" stroke="#000000" stroke-width="1" /><line x1="350" y1="151" x2="350" y2="181" stroke="#000000" stroke-width="1" /><text font-size="18" font-family="Arial" x="432.5" y="167" text-anchor="middle" dominant-baseline="middle" >X</text><line x1="515" y1="151" x2="680" y2="151" stroke="#000000" stroke-width="1" /><line x1="515" y1="181" x2="680" y2="181" stroke="#000000" stroke-width="1" /><line x1="680" y1="151" x2="680" y2="181" stroke="#000000" stroke-width="1" /><line x1="515" y1="151" x2="515" y2="181" stroke="#000000" stroke-width="1" /><text font-size="18" font-family="Arial" x="597.5" y="167" text-anchor="middle" dominant-baseline="middle" >X</text><line x1="680" y1="151" x2="845" y2="151" stroke="#000000" stroke-width="1" /><line x1="680" y1="181" x2="845" y2="181" stroke="#000000" stroke-width="1" /><line x1="845" y1="151" x2="845" y2="181" stroke="#000000" stroke-width="1" /><line x1="680" y1="151" x2="680" y2="181" stroke="#000000" stroke-width="1" /><text font-size="18" font-family="Arial" x="762.5" y="167" text-anchor="middle" dominant-baseline="middle" >X</text><line x1="845" y1="151" x2="1010" y2="151" stroke="#000000" stroke-width="1" /><line x1="845" y1="181" x2="1010" y2="181" stroke="#000000" stroke-width="1" /><line x1="1010" y1="151" x2="1010" y2="181" stroke="#000000" stroke-width="1" /><line x1="845" y1="151" x2="845" y2="181" stroke="#000000" stroke-width="1" /><text font-size="18" font-family="Arial" x="927.5" y="167" text-anchor="middle" dominant-baseline="middle" >X</text><line x1="1010" y1="151" x2="1175" y2="151" stroke="#000000" stroke-width="1" /><line x1="1010" y1="181" x2="1175" y2="181" stroke="#000000" stroke-width="1" /><line x1="1175" y1="151" x2="1175" y2="181" stroke="#000000" stroke-width="1" /><line x1="1010" y1="151" x2="1010" y2="181" stroke="#000000" stroke-width="1" /><text font-size="18" font-family="Arial" x="1092.5" y="167" text-anchor="middle" dominant-baseline="middle" >X</text><line x1="1175" y1="151" x2="1340" y2="151" stroke="#000000" stroke-width="1" /><line x1="1175" y1="181" x2="1340" y2="181" stroke="#000000" stroke-width="1" /><line x1="1340" y1="151" x2="1340" y2="181" stroke="#000000" stroke-width="1" /><line x1="1175" y1="151" x2="1175" y2="181" stroke="#000000" stroke-width="1" /><text font-size="18" font-family="Arial" x="1257.5" y="167" text-anchor="middle" dominant-baseline="middle" >X</text><line x1="1340" y1="151" x2="1505" y2="151" stroke="#000000" stroke-width="1" /><line x1="1340" y1="181" x2="1505" y2="181" stroke="#000000" stroke-width="1" /><line x1="1505" y1="151" x2="1505" y2="181" stroke="#000000" stroke-width="1" /><line x1="1340" y1="151" x2="1340" y2="181" stroke="#000000" stroke-width="1" /><text font-size="18" font-family="Arial" x="1422.5" y="167" text-anchor="middle" dominant-baseline="middle" >X</text><text font-size="18" font-family="Arial" x="15" y="196" text-anchor="end" > </text><line x1="20" y1="181" x2="185" y2="181" stroke="#000000" stroke-width="1" /><line x1="20" y1="211" x2="185" y2="211" stroke="#000000" stroke-width="1" /><line x1="185" y1="181" x2="185" y2="211" stroke="#000000" stroke-width="1" /><line x1="20" y1="181" x2="20" y2="211" stroke="#000000" stroke-width="1" /><text font-size="18" font-family="Arial" x="102.5" y="197" text-anchor="middle" dominant-baseline="middle" >4</text><line x1="185" y1="181" x2="1505" y2="181" stroke="#000000" stroke-width="1" /><line x1="185" y1="211" x2="1505" y2="211" stroke="#000000" stroke-width="1" /><line x1="1505" y1="181" x2="1505" y2="211" stroke="#000000" stroke-width="1" /><line x1="185" y1="181" x2="185" y2="211" stroke="#000000" stroke-width="1" /><text font-size="18" font-family="Arial" x="845" y="197" text-anchor="middle" dominant-baseline="middle" >Packet Identifier MSB</text><text font-size="18" font-family="Arial" x="15" y="226" text-anchor="end" > </text><line x1="20" y1="211" x2="185" y2="211" stroke="#000000" stroke-width="1" /><line x1="20" y1="241" x2="185" y2="241" stroke="#000000" stroke-width="1" /><line x1="185" y1="211" x2="185" y2="241" stroke="#000000" stroke-width="1" /><line x1="20" y1="211" x2="20" y2="241" stroke="#000000" stroke-width="1" /><text font-size="18" font-family="Arial" x="102.5" y="227" text-anchor="middle" dominant-baseline="middle" >5</text><line x1="185" y1="211" x2="1505" y2="211" stroke="#000000" stroke-width="1" /><line x1="185" y1="241" x2="1505" y2="241" stroke="#000000" stroke-width="1" /><line x1="1505" y1="211" x2="1505" y2="241" stroke="#000000" stroke-width="1" /><line x1="185" y1="211" x2="185" y2="241" stroke="#000000" stroke-width="1" /><text font-size="18" font-family="Arial" x="845" y="227" text-anchor="middle" dominant-baseline="middle" >Packet Identifier LSB</text><text font-size="18" font-family="Arial" x="15" y="256" text-anchor="end" > </text><line x1="20" y1="241" x2="185" y2="241" stroke="#000000" stroke-width="1" /><line x1="20" y1="271" x2="185" y2="271" stroke="#000000" stroke-width="1" /><line x1="185" y1="241" x2="185" y2="271" stroke="#000000" stroke-width="1" /><line x1="20" y1="241" x2="20" y2="271" stroke="#000000" stroke-width="1" /><text font-size="18" font-family="Arial" x="102.5" y="257" text-anchor="middle" dominant-baseline="middle" >6:N</text><line x1="185" y1="241" x2="1505" y2="241" stroke="#000000" stroke-width="1" /><line x1="1505" y1="241" x2="1505" y2="271" stroke="#000000" stroke-width="1" /><line x1="185" y1="241" x2="185" y2="271" stroke="#000000" stroke-width="1" /><text font-size="18" font-family="Arial" x="845" y="257" text-anchor="middle" dominant-baseline="middle" >Topic Filter (N)</text><text font-size="18" font-family="Arial" x="15" y="286" text-anchor="end" > </text><line x1="20" y1="271" x2="20" y2="286" stroke="#000000" stroke-width="1" /><line x1="1505" y1="271" x2="1505" y2="286" stroke="#000000" stroke-width="1" /><line stroke-dasharray="1,1" x1="20" y1="286" x2="1505" y2="316" stroke="#000000" stroke-width="1" /><line x1="1505" y1="271" x2="1505" y2="316" stroke="#000000" stroke-width="1" /><line stroke-dasharray="1,1" x1="20" y1="296" x2="1505" y2="326" stroke="#000000" stroke-width="1" /><line x1="20" y1="296" x2="20" y2="326" stroke="#000000" stroke-width="1" /><line x1="20" y1="326" x2="20" y2="341" stroke="#000000" stroke-width="1" /><line x1="1505" y1="326" x2="1505" y2="341" stroke="#000000" stroke-width="1" /><text font-size="18" font-family="Arial" x="15" y="356" text-anchor="end" > </text><line x1="20" y1="341" x2="1505" y2="341" stroke="#000000" stroke-width="1" /></svg>