<svg xmlns="http://www.w3.org/2000/svg" version="1.1" height="384" width="576" viewBox="0 0 576 384" class="diagram" text-anchor="middle" font-family="monospace" font-size="13px" stroke-linecap="round">
<path d="M 8,16 L 8,112" fill="none" stroke="black"/>
<path d="M 8,144 L 8,240" fill="none" stroke="black"/>
<path d="M 8,272 L 8,368" fill="none" stroke="black"/>
<path d="M 104,16 L 104,48" fill="none" stroke="black"/>
<path d="M 104,80 L 104,112" fill="none" stroke="black"/>
<path d="M 104,144 L 104,176" fill="none" stroke="black"/>
<path d="M 104,208 L 104,240" fill="none" stroke="black"/>
<path d="M 104,272 L 104,304" fill="none" stroke="black"/>
<path d="M 104,336 L 104,368" fill="none" stroke="black"/>
<path d="M 216,128 L 216,176" fill="none" stroke="black"/>
<path d="M 216,208 L 216,256" fill="none" stroke="black"/>
<path d="M 232,64 L 232,176" fill="none" stroke="black"/>
<path d="M 232,208 L 232,320" fill="none" stroke="black"/>
<path d="M 360,128 L 360,256" fill="none" stroke="black"/>
<path d="M 432,128 L 432,176" fill="none" stroke="black"/>
<path d="M 432,208 L 432,256" fill="none" stroke="black"/>
<path d="M 568,128 L 568,256" fill="none" stroke="black"/>
<path d="M 8,16 L 104,16" fill="none" stroke="black"/>
<path d="M 104,64 L 232,64" fill="none" stroke="black"/>
<path d="M 8,112 L 104,112" fill="none" stroke="black"/>
<path d="M 216,128 L 360,128" fill="none" stroke="black"/>
<path d="M 432,128 L 568,128" fill="none" stroke="black"/>
<path d="M 8,144 L 104,144" fill="none" stroke="black"/>
<path d="M 104,192 L 216,192" fill="none" stroke="black"/>
<path d="M 248,192 L 432,192" fill="none" stroke="black"/>
<path d="M 8,240 L 104,240" fill="none" stroke="black"/>
<path d="M 216,256 L 360,256" fill="none" stroke="black"/>
<path d="M 432,256 L 568,256" fill="none" stroke="black"/>
<path d="M 8,272 L 104,272" fill="none" stroke="black"/>
<path d="M 104,320 L 232,320" fill="none" stroke="black"/>
<path d="M 8,368 L 104,368" fill="none" stroke="black"/>
<polygon class="arrowhead" points="440,192 428,186.4 428,197.6" fill="black" transform="rotate(0,432,192)"/>
<polygon class="arrowhead" points="256,192 244,186.4 244,197.6" fill="black" transform="rotate(180,248,192)"/>
<polygon class="arrowhead" points="240,208 228,202.4 228,213.6" fill="black" transform="rotate(270,232,208)"/>
<polygon class="arrowhead" points="240,176 228,170.4 228,181.6" fill="black" transform="rotate(90,232,176)"/>
<polygon class="arrowhead" points="224,192 212,186.4 212,197.6" fill="black" transform="rotate(0,216,192)"/>
<polygon class="arrowhead" points="112,320 100,314.4 100,325.6" fill="black" transform="rotate(180,104,320)"/>
<polygon class="arrowhead" points="112,192 100,186.4 100,197.6" fill="black" transform="rotate(180,104,192)"/>
<polygon class="arrowhead" points="112,64 100,58.4 100,69.6" fill="black" transform="rotate(180,104,64)"/>
<g class="text">
<text x="56" y="52">MQTT-SN</text>
<text x="52" y="84">Client</text>
<text x="56" y="180">MQTT-SN</text>
<text x="492" y="180">MQTT</text>
<text x="52" y="212">Client</text>
<text x="288" y="212">MQTT-SN</text>
<text x="500" y="212">Broker</text>
<text x="304" y="228">Aggregating</text>
<text x="288" y="244">Gateway</text>
<text x="56" y="308">MQTT-SN</text>
<text x="52" y="340">Client</text>
</g>
</svg>
