<svg xmlns="http://www.w3.org/2000/svg" version="1.1" height="384" width="368" viewBox="0 0 368 384" class="diagram" text-anchor="middle" font-family="monospace" font-size="13px" stroke-linecap="round">
<path d="M 8,16 L 8,112" fill="none" stroke="black"/>
<path d="M 8,144 L 8,240" fill="none" stroke="black"/>
<path d="M 8,272 L 8,368" fill="none" stroke="black"/>
<path d="M 104,16 L 104,48" fill="none" stroke="black"/>
<path d="M 104,80 L 104,112" fill="none" stroke="black"/>
<path d="M 104,144 L 104,176" fill="none" stroke="black"/>
<path d="M 104,208 L 104,240" fill="none" stroke="black"/>
<path d="M 104,272 L 104,304" fill="none" stroke="black"/>
<path d="M 104,336 L 104,368" fill="none" stroke="black"/>
<path d="M 216,128 L 216,176" fill="none" stroke="black"/>
<path d="M 216,208 L 216,256" fill="none" stroke="black"/>
<path d="M 240,64 L 240,128" fill="none" stroke="black"/>
<path d="M 240,256 L 240,320" fill="none" stroke="black"/>
<path d="M 360,128 L 360,256" fill="none" stroke="black"/>
<path d="M 8,16 L 104,16" fill="none" stroke="black"/>
<path d="M 104,64 L 240,64" fill="none" stroke="black"/>
<path d="M 8,112 L 104,112" fill="none" stroke="black"/>
<path d="M 216,128 L 232,128" fill="none" stroke="black"/>
<path d="M 248,128 L 360,128" fill="none" stroke="black"/>
<path d="M 8,144 L 104,144" fill="none" stroke="black"/>
<path d="M 104,192 L 216,192" fill="none" stroke="black"/>
<path d="M 8,240 L 104,240" fill="none" stroke="black"/>
<path d="M 216,256 L 232,256" fill="none" stroke="black"/>
<path d="M 248,256 L 360,256" fill="none" stroke="black"/>
<path d="M 8,272 L 104,272" fill="none" stroke="black"/>
<path d="M 104,320 L 240,320" fill="none" stroke="black"/>
<path d="M 8,368 L 104,368" fill="none" stroke="black"/>
<polygon class="arrowhead" points="248,256 236,250.4 236,261.6" fill="black" transform="rotate(270,240,256)"/>
<polygon class="arrowhead" points="248,128 236,122.4 236,133.6" fill="black" transform="rotate(90,240,128)"/>
<polygon class="arrowhead" points="224,192 212,186.4 212,197.6" fill="black" transform="rotate(0,216,192)"/>
<polygon class="arrowhead" points="112,320 100,314.4 100,325.6" fill="black" transform="rotate(180,104,320)"/>
<polygon class="arrowhead" points="112,192 100,186.4 100,197.6" fill="black" transform="rotate(180,104,192)"/>
<polygon class="arrowhead" points="112,64 100,58.4 100,69.6" fill="black" transform="rotate(180,104,64)"/>
<g class="text">
<text x="56" y="52">MQTT-SN</text>
<text x="52" y="84">Client</text>
<text x="56" y="180">MQTT-SN</text>
<text x="288" y="180">MQTT-SN</text>
<text x="52" y="212">Client</text>
<text x="284" y="212">Broker</text>
<text x="56" y="308">MQTT-SN</text>
<text x="52" y="340">Client</text>
</g>
</svg>
